<svg width="1025" height="545" viewBox="0 0 1025 545" fill="none" xmlns="http://www.w3.org/2000/svg">
<g style="mix-blend-mode:exclusion">
<mask id="mask0_386_9" style="mask-type:luminance" maskUnits="userSpaceOnUse" x="0" y="0" width="1798" height="545">
<path d="M0 0H1797.85V545H0V0Z" fill="white"/>
</mask>
<g mask="url(#mask0_386_9)">
<path d="M1701.44 0.109375L1670.8 266.921L1671.61 267.019L1702.25 0.206746L1701.44 0.109375ZM1712.17 0.547543L1677.27 272.114L1678.09 272.212L1712.98 0.661142L1712.17 0.547543ZM1691.13 3.20901L1664.78 261.193L1665.61 261.258L1691.95 3.29015L1691.13 3.20901ZM1722.16 4.50728L1684.3 276.529L1685.11 276.642L1722.99 4.62088L1722.16 4.50728ZM1681.92 8.77537L1659.16 255.058L1659.99 255.139L1682.73 8.85651L1681.92 8.77537ZM1730.86 10.8688L1691.9 279.855L1692.72 279.985L1731.67 10.9987L1730.86 10.8688ZM1673.77 15.851L1653.86 248.664L1654.68 248.745L1674.58 15.9159L1673.77 15.851ZM1738.34 18.6423L1699.99 281.738L1700.81 281.868L1739.14 18.7721L1738.34 18.6423ZM1666.34 23.6893L1648.83 242.076L1649.64 242.124L1667.15 23.7542L1666.34 23.6893ZM1744.85 27.2433L1708.29 281.916L1709.1 282.03L1745.65 27.3569L1744.85 27.2433ZM1659.42 31.9496L1643.97 235.308L1644.8 235.373L1660.24 32.0145L1659.42 31.9496ZM1750.61 36.3637L1716.45 280.407L1717.26 280.537L1751.42 36.4936L1750.61 36.3637ZM1653 40.6318L1639.3 228.444L1640.13 228.509L1653.82 40.6805L1653 40.6318ZM1755.8 45.8249L1724.22 277.486L1725.04 277.6L1756.6 45.9223L1755.8 45.8249ZM1647.11 49.6548L1634.74 221.498L1635.57 221.563L1647.92 49.7197L1647.11 49.6548ZM1165.51 53.0466L1095.03 130.911L1085.12 132.923L1092.76 124.598L1101.77 121.596L1101.51 120.817L1093.89 123.348L1102.63 113.855L1106.72 111.972L1106.36 111.226L1104.05 112.28L1155.64 56.0975L1155.04 55.5457L1111.94 102.495L1111.54 101.781L1102.17 107.233L1111.47 97.4963L1117.56 93.2444L1117.09 92.5791L1114.33 94.5102L1146.13 61.177L1145.53 60.609L1123.32 83.8968L1123.11 83.6696L1115.69 89.6417L1124.14 81.3328L1130.3 75.7826L1130.05 75.5067L1137.74 67.9605L1137.16 67.3763L1123.58 80.7323L1097.06 104.637L1079.19 119.015L1065.38 128.655L1053.76 135.422L1043.6 140.096L1034.26 143.212L1025.38 145.013L1016.71 145.614L1008.11 145.046L999.267 143.277L990.016 140.193L980.101 135.601L969.309 129.19L957.332 120.589L943.652 109.132L927.829 94.1208L922.117 88.0838L921.532 88.6518L932.973 100.726L932.73 101.034L935.294 103.192L939.919 108.061L938.345 106.925L937.874 107.574L916.047 82.4525L915.43 83.0043L948.228 120.752L947.741 120.524L947.4 121.271L949.543 122.261L954.963 128.493L952.123 127.551L951.863 128.33L956.018 129.71L961.195 135.666L956.294 134.692L956.245 134.984L909.604 77.2594L908.955 77.7787L960.821 141.962L960.318 141.897L960.27 142.725L961.519 142.806L966.566 149.038L964.229 149.2L964.278 150.028L967.183 149.817L972.003 155.773L968.011 156.568L968.173 157.379L972.571 156.487L977.18 162.183L972.23 163.822L902.756 72.5694L902.107 73.0562L976.579 170.898L975.362 171.449L975.703 172.196L977.082 171.563L981.561 177.438L978.949 178.947L979.371 179.661L982.064 178.087L986.381 183.767L982.503 186.461L982.973 187.126L986.868 184.416L991.071 189.934L986.381 193.699L895.551 68.4149L894.885 68.9018L990.455 200.709L989.594 201.488L990.146 202.105L990.941 201.391L995.08 207.103L993.148 209.002L993.716 209.586L995.567 207.769L999.672 213.432L996.735 216.516L997.319 217.067L1000.16 214.098L1004.25 219.745L1000.35 223.981L1000.95 224.533L1004.74 220.411L1008.86 226.09L1004.09 231.365L888.118 64.731L887.436 65.2017L1008.06 238.521L1007.77 238.846L1008.39 239.398L1008.55 239.219L1012.64 245.094L1011.62 246.214L1012.22 246.766L1013.13 245.792L1017.25 251.731L1015.54 253.517L1016.14 254.085L1017.73 252.413L1021.91 258.401L1019.62 260.771L1020.2 261.339L1022.38 259.083L1026.58 265.12L1023.82 267.944L1024.4 268.512L1027.05 265.818L1031.3 271.903L1028.19 275.003L1028.77 275.571L1031.77 272.585L1036.04 278.719L1032.75 281.933L1033.31 282.517L1036.51 279.401L1038.33 282.014L1039.01 281.543L1037.11 278.817L1226.51 93.8449L1225.95 93.2607L1036.64 278.135L1032.36 272.001L1038.04 266.337L1042.08 271.903L1042.73 271.417L1038.62 265.753L1044.41 259.992L1045.78 261.777L1046.43 261.29L1045 259.407L1219.62 85.5521L1219.05 84.9679L1044.51 258.758L1039.94 252.738L1045.65 246.928L1049.48 251.65L1050.11 251.147L1046.23 246.327L1052.14 240.339L1053.18 241.524L1053.79 240.988L1052.72 239.755L1212.38 77.5515L1211.79 76.9835L1052.17 239.122L1047.17 233.377L1053 227.324L1056.88 231.413L1057.48 230.845L1053.58 226.723L1059.67 220.411L1060.61 221.303L1061.18 220.703L1060.24 219.81L1204.64 70.0378L1204.05 69.4698L1059.65 219.258L1054.05 213.935L1060.04 207.574L1064.38 211.193L1064.89 210.56L1060.61 206.973L1066.97 200.239L1068.16 201.115L1068.64 200.433L1067.54 199.638L1196.26 63.2218L1195.68 62.67L1066.86 199.168L1060.46 194.575L1066.66 187.873L1072.02 191.037L1072.42 190.339L1067.23 187.256L1073.89 180.05L1075.91 180.992L1076.27 180.245L1074.49 179.417L1187.08 57.6068L1186.48 57.0388L1073.71 179.044L1066.37 175.636L1072.78 168.593L1079.92 170.962L1080.18 170.183L1073.38 167.928L1080.38 160.252L1084.01 160.982L1084.17 160.171L1081.01 159.554L1176.89 54.1339L1176.27 53.5821L1088.26 150.352V150.223L1079.18 149.622L1086.48 141.557L1092.55 141.135L1092.5 140.323L1087.27 140.68L1095.47 131.625L1097.08 131.3L1096.9 130.505L1096.39 130.602L1166.14 53.5659L1165.51 53.0466ZM839.757 54.2962L839.059 54.7343L1015.04 342.432L1015.74 341.994L839.757 54.2962ZM848.082 54.5071L847.385 54.9453L1019.07 332.419L1019.76 331.997L848.082 54.5071ZM831.464 54.7019L830.767 55.14L1010.92 352.396L1011.62 351.975L831.464 54.7019ZM856.343 55.351L855.645 55.7892L1023.03 322.39L1023.72 321.952L856.343 55.351ZM1760.51 55.5295L1731.49 273.478L1732.32 273.591L1761.32 55.6431L1760.51 55.5295ZM823.204 55.708L822.506 56.13L1006.72 362.328L1007.41 361.906L823.204 55.708ZM864.522 56.8278L863.824 57.266L1026.92 312.328L1027.62 311.89L864.522 56.8278ZM1472.59 56.9739L1471.84 57.3146L1607.69 356.389L1608.45 356.048L1472.59 56.9739ZM1464.28 57.0388L1463.53 57.3796L1607.17 367.181L1607.9 366.824L1464.28 57.0388ZM815.041 57.266L814.343 57.6879L1002.4 372.228L1003.11 371.806L815.041 57.266ZM1480.88 57.6717L1480.12 57.9962L1608.09 345.613L1608.84 345.288L1480.88 57.6717ZM1455.98 57.769L1455.25 58.1098L1606.44 377.94L1607.18 377.599L1455.98 57.769ZM872.571 58.905L871.89 59.3594L1030.77 302.267L1031.45 301.829L872.571 58.905ZM1641.7 59.0186L1630.29 214.503L1631.12 214.552L1642.53 59.0836L1641.7 59.0186ZM1489.07 59.0836L1488.31 59.4081L1608.37 334.837L1609.12 334.513L1489.07 59.0836ZM1447.79 59.1485L1447.06 59.5055L1605.53 388.7L1606.28 388.343L1447.79 59.1485ZM806.992 59.327L806.278 59.7489L997.985 382.062L998.699 381.656L806.992 59.327ZM1439.74 61.1121L1438.99 61.4691L1604.38 399.41L1605.12 399.053L1439.74 61.1121ZM1497.09 61.2257L1496.34 61.5503L1608.55 324.045L1609.29 323.721L1497.09 61.2257ZM880.442 61.5665L879.76 62.0209L1034.56 292.157L1035.25 291.702L880.442 61.5665ZM799.072 61.8424L798.358 62.2643L993.457 391.848L994.155 391.442L799.072 61.8424ZM1431.79 63.5951L1431.06 63.9521L1602.96 410.105L1603.71 409.732L1431.79 63.5951ZM1504.91 64.0495L1504.15 64.374L1608.63 313.253L1609.39 312.929L1504.91 64.0495ZM791.299 64.796L790.585 65.2017L988.783 401.585L989.497 401.163L791.299 64.796ZM1764.83 65.4289L1738.29 268.706L1739.11 268.82L1765.64 65.5262L1764.83 65.4289ZM1424.01 66.5324L1423.28 66.9057L1601.26 420.751L1602.01 420.377L1424.01 66.5324ZM1512.48 67.5223L1511.71 67.8307L1608.66 302.462L1609.42 302.153L1512.48 67.5223ZM783.672 68.1066L782.958 68.5123L983.963 411.241L984.661 410.819L783.672 68.1066ZM1636.85 68.6421L1625.91 207.428L1626.72 207.493L1637.68 68.707L1636.85 68.6421ZM1416.42 69.9079L1415.67 70.2812L1599.23 431.332L1599.96 430.975L1416.42 69.9079ZM1519.75 71.547L1518.98 71.8553L1608.66 291.67L1609.42 291.361L1519.75 71.547ZM776.207 71.758L775.493 72.1637L978.965 420.799L979.679 420.394L776.207 71.758ZM1409.02 73.7216L1408.29 74.0949L1596.81 441.864L1597.54 441.491L1409.02 73.7216ZM1768.82 75.4418L1744.67 263.367L1745.48 263.481L1769.61 75.5392L1768.82 75.4418ZM768.888 75.6853L768.19 76.1072L973.772 430.261L974.486 429.855L768.888 75.6853ZM1526.71 76.0747L1525.94 76.3668L1608.64 280.894L1609.41 280.586L1526.71 76.0747ZM119.896 76.659L119.117 76.8699L178.302 294.428L179.097 294.218L119.896 76.659ZM128.205 77.0971L127.41 77.3243L188.169 290.031L188.964 289.803L128.205 77.0971ZM111.635 77.5353L110.84 77.7463L168.078 297.853L168.873 297.642L111.635 77.5353ZM1401.88 77.941L1401.13 78.3143L1593.99 452.283L1594.72 451.909L1401.88 77.941ZM1632.52 78.509L1621.58 200.336L1622.39 200.417L1633.33 78.5739L1632.52 78.509ZM136.254 79.0445L135.475 79.2717L197.581 284.756L198.377 284.529L136.254 79.0445ZM103.554 79.4665L102.759 79.6612L157.546 300.238L158.341 300.044L103.554 79.4665ZM761.731 79.9046L761.017 80.3104L968.384 439.592L969.098 439.186L761.731 79.9046ZM1533.38 81.0244L1532.61 81.3328L1608.61 270.118L1609.38 269.81L1533.38 81.0244ZM144.076 81.8358L143.297 82.0793L206.539 278.736L207.318 278.492L144.076 81.8358ZM95.6992 82.2091L94.904 82.4038L146.835 301.569L147.63 301.374L95.6992 82.2091ZM1394.96 82.5661L1394.23 82.9394L1590.71 462.571L1591.44 462.182L1394.96 82.5661ZM754.704 84.335L753.99 84.7407L962.769 448.81L963.467 448.388L754.704 84.335ZM151.801 84.9192L151.022 85.1789L215.027 272.082L215.806 271.806L151.801 84.9192ZM1772.54 85.5846L1750.68 257.639L1751.47 257.752L1773.35 85.682L1772.54 85.5846ZM88.1042 85.5846L87.309 85.7631L136.043 301.861L136.838 301.683L88.1042 85.5846ZM1539.76 86.3473L1539.01 86.6395L1608.61 259.31L1609.38 259.002L1539.76 86.3473ZM1120.62 86.7206L1110.93 96.8634L1101.99 103.111L1109.78 95.4353L1120.62 86.7206ZM1388.29 87.532L1387.56 87.9053L1586.96 472.666L1587.68 472.276L1388.29 87.532ZM159.396 88.2785L158.633 88.5544L223.076 264.893L223.855 264.617L159.396 88.2785ZM1628.65 88.5544L1617.28 193.228L1618.09 193.309L1629.48 88.6518L1628.65 88.5544ZM747.807 88.9763L747.093 89.3821L956.894 457.849L957.608 457.443L747.807 88.9763ZM80.769 89.447L79.9576 89.6255L125.251 301.196L126.063 301.033L80.769 89.447ZM166.861 91.9299L166.082 92.2383L230.736 257.314L231.515 257.006L166.861 91.9299ZM1545.89 91.9948L1545.11 92.3032L1608.66 248.551L1609.41 248.242L1545.89 91.9948ZM1381.9 92.8549L1381.17 93.2282L1582.66 482.565L1583.41 482.175L1381.9 92.8549ZM73.6609 93.7637L72.8657 93.926L114.654 299.313L115.449 299.151L73.6609 93.7637ZM741.056 93.8287L740.342 94.2344L950.76 466.742L951.474 466.336L741.056 93.8287ZM1110.14 93.9585L1109.26 94.8348L1108.5 95.4353L1110.14 93.9585ZM1775.99 95.7923L1756.36 251.585L1757.15 251.699L1776.82 95.8897L1775.99 95.7923ZM174.147 95.9059L173.385 96.2305L238.071 249.395L238.818 249.086L174.147 95.9059ZM1551.73 97.8695L1550.97 98.1779L1608.74 237.759L1609.5 237.434L1551.73 97.8695ZM1375.77 98.4538L1375.04 98.827L1577.81 492.188L1578.56 491.799L1375.77 98.4538ZM66.8125 98.4538L66.0011 98.5998L104.349 296.084L105.16 295.922L66.8125 98.4538ZM1625.26 98.7783L1612.99 186.104L1613.81 186.217L1626.07 98.8919L1625.26 98.7783ZM734.402 98.8432L733.688 99.2327L944.333 475.392L945.047 474.986L734.402 98.8432ZM1108.08 99.8656L1099.62 108.726L1091.46 113.481L1098.5 106.552L1108.08 99.8656ZM181.272 100.174L180.525 100.515L245.114 241.215L245.861 240.875L181.272 100.174ZM1103.34 100.628L1097.98 105.919L1093.07 109.343L1097.58 105.27L1103.34 100.628ZM1232.53 101.846L1037.5 288.781L1038.07 289.365L1233.1 102.43L1232.53 101.846ZM1111.92 102.511L1102.12 113.173L1092.11 117.782L1100.14 109.376L1111.92 102.511ZM60.1589 103.485L59.3637 103.631L94.4982 291.653L95.3097 291.507L60.1589 103.485ZM1557.35 103.971L1556.6 104.296L1608.92 226.983L1609.67 226.658L1557.35 103.971ZM727.878 103.971L727.164 104.377L937.566 483.782L938.28 483.393L727.878 103.971ZM1369.88 104.296L1369.15 104.669L1572.36 501.471L1573.09 501.114L1369.88 104.296ZM188.185 104.702L187.455 105.075L251.914 232.825L252.644 232.468L188.185 104.702ZM1779.25 106.065L1761.74 245.24L1762.56 245.354L1780.05 106.162L1779.25 106.065ZM937.891 107.623L942.905 111.226L947.839 116.419L943.149 113.644L937.891 107.623ZM940.763 107.769L943.116 109.733L945.81 112.297L943.441 110.593L940.763 107.769ZM53.7486 108.775L52.9372 108.921L85.248 286.103L86.0595 285.957L53.7486 108.775ZM1622.28 109.116L1620.23 119.713L1619.71 119.551L1615.41 134.254L1609.62 145.743L1603.68 150.791L1597.25 150.596L1589.72 145.289L1582.66 136.737L1582.34 137.013L1577.92 129.986L1577.23 130.408L1610.79 183.929L1611.48 183.491L1586.93 144.332L1589.15 145.906L1592.92 150.466L1591.57 150.401V151.229L1593.63 151.277L1597.53 156.016L1595.79 157.493L1596.33 158.126L1598.06 156.649L1601.83 161.209L1600.09 164.666L1600.82 165.039L1602.4 161.907L1606.03 166.305L1604.41 171.806L1605.2 172.034L1606.66 167.068L1610.2 171.352L1608.73 178.947L1609.54 179.109L1610.88 172.18L1611.71 173.202L1612.36 172.666L1611.08 171.125L1612.77 162.459L1612.88 162.54L1613.37 161.875L1612.95 161.582L1623.14 109.262L1622.28 109.116ZM721.452 109.246L720.738 109.635L930.442 491.88L931.156 491.491L721.452 109.246ZM1094.48 109.343L1088.59 115.12L1083.05 118.35L1088.17 113.741L1094.48 109.343ZM194.904 109.57L194.19 109.976L258.552 224.322L259.266 223.916L194.904 109.57ZM1562.77 110.252L1562.02 110.593L1609.18 216.175L1609.93 215.834L1562.77 110.252ZM1364.23 110.365L1363.5 110.739L1566.34 510.397L1567.05 510.04L1364.23 110.365ZM1238.9 110.528L1042.52 295.386L1043.07 295.986L1239.45 111.128L1238.9 110.528ZM1097.58 110.836L1090.08 118.691L1082.66 122.099L1089.09 115.77L1097.58 110.836ZM946.443 113.741L950.159 116.419L954.022 120.086L950.419 117.944L946.443 113.741ZM47.5493 114.293L46.7379 114.439L76.6145 279.644L77.4097 279.498L47.5493 114.293ZM715.123 114.617L714.409 115.007L922.912 499.605L923.642 499.215L715.123 114.617ZM1100.69 114.698L1092.29 123.851L1083.48 126.789L1090.57 119.356L1100.69 114.698ZM201.395 114.698L200.697 115.137L265.059 215.704L265.741 215.266L201.395 114.698ZM944.804 115.542L949.9 118.577L954.882 123.819L950.03 121.563L944.804 115.542ZM1782.29 116.37L1766.92 238.7L1767.73 238.797L1783.12 116.484L1782.29 116.37ZM385.718 116.451L274.05 214.438L274.585 215.055L386.269 117.068L385.718 116.451ZM1358.79 116.646L1358.06 117.003L1559.72 518.917L1560.45 518.543L1358.79 116.646ZM1567.99 116.695L1567.25 117.052L1609.57 205.399L1610.3 205.042L1567.99 116.695ZM396.51 116.987L278.091 221.693L278.642 222.309L397.045 117.603L396.51 116.987ZM374.974 117.311L271.599 205.837L267.218 199.979L274.196 194.283L277.912 198.405L278.513 197.853L274.829 193.763L282.132 187.808L284.371 189.771L284.907 189.155L282.764 187.272L290.538 180.943L290.927 181.203L291.366 180.521L291.203 180.407L364.945 120.232L364.426 119.599L290.473 179.937L284.939 176.383L292.566 170.67L297.662 172.764L297.987 172.001L293.313 170.086L301.557 163.903L304.64 164.471L304.786 163.676L302.45 163.238L311.521 156.406H311.895V156.146L354.786 123.9L354.299 123.251L311.245 155.61L304.251 155.789L312.803 150.141L319.506 148.665L319.327 147.869L314.718 148.876L323.936 142.79L327.539 141.378L327.247 140.615L345.163 128.785L344.708 128.103L335.718 134.027L335.669 133.962L313.079 146.165L295.309 153.144L280.541 156.389L267.461 156.73L255.16 154.442L242.956 149.444L230.444 141.41L219.425 131.755L219.198 131.998L213.648 125.831L213.047 126.383L235.199 150.985L235.085 151.553L235.832 151.683L240.992 157.412H240.051V158.239L241.69 158.174L246.737 163.789L244.66 164.244L244.839 165.055L247.37 164.487L252.32 169.973L249.139 171.222L249.447 171.985L252.904 170.638L257.74 176.01L253.488 178.298L253.894 179.012L258.308 176.626L263.063 181.917L257.74 185.438L258.195 186.12L263.631 182.533L268.354 187.791L261.878 192.644L262.382 193.293L268.905 188.392L273.628 193.634L266.698 199.281L207.611 120.119L206.961 120.606L266.065 199.8L265.968 199.882L266.487 200.514L266.552 200.45L270.95 206.34L270.009 207.136L270.544 207.769L271.437 206.99L271.486 207.055L272.151 206.568L272.086 206.487L375.51 117.912L374.974 117.311ZM1086.23 117.441L1080.46 123.105L1074.94 125.653L1080.08 121.028L1086.23 117.441ZM1082.75 117.522L1079.6 120.362L1076.76 122.001L1079.69 119.648L1082.75 117.522ZM407.156 118.739L282.18 228.93L282.732 229.547L407.707 119.356L407.156 118.739ZM1245.06 119.388L1047.79 301.829L1048.34 302.429L1245.61 119.989L1245.06 119.388ZM955.044 119.924L956.829 121.206L959.069 123.072L957.186 121.969L955.044 119.924ZM41.5286 120.038L40.7334 120.184L68.5327 272.504L69.3279 272.358L41.5286 120.038ZM708.891 120.119L708.161 120.492L914.96 506.908L915.69 506.518L708.891 120.119ZM952.48 120.119L956.683 122.602L960.935 126.643L956.894 124.76L952.48 120.119ZM1088.56 120.281L1081.82 127.34L1075.04 129.596L1080.94 123.786L1088.56 120.281ZM417.59 121.547L286.351 236.103L286.903 236.72L418.126 122.164L417.59 121.547ZM1619.63 122.732L1618.15 130.343L1617.54 130.034L1617.46 130.18L1619.63 122.732ZM1076.63 123.024L1072.44 126.789L1068.61 128.558L1072.51 125.425L1076.63 123.024ZM951.344 123.072L956.407 125.425L961.292 130.586L956.472 128.979L951.344 123.072ZM1353.57 123.072L1352.84 123.446L1552.56 526.95L1553.29 526.576L1353.57 123.072ZM1573.02 123.235L1572.31 123.624L1610.11 194.607L1610.82 194.218L1573.02 123.235ZM959.864 124.468L962.98 126.318L966.339 129.126L963.272 127.697L959.864 124.468ZM1078.74 124.76L1073.27 130.148L1067.95 131.933L1072.9 127.454L1078.74 124.76ZM1091.15 125.068L1083.74 133.134L1075.88 134.724L1082.28 128.022L1091.15 125.068ZM427.717 125.247L290.635 243.212L291.171 243.828L428.252 125.864L427.717 125.247ZM702.74 125.669L702.01 126.042L906.57 513.642L907.3 513.269L702.74 125.669ZM35.735 125.961L34.9236 126.107L60.9216 264.795L61.7168 264.633L35.735 125.961ZM958.42 126.35L962.801 128.395L967.151 132.517L962.931 131.122L958.42 126.35ZM1785.18 126.756L1771.89 232.03L1772.71 232.144L1785.99 126.87L1785.18 126.756ZM1067.77 128.152L1065.56 129.937L1063.61 130.83L1065.84 129.288L1067.77 128.152ZM1251.05 128.314L1053.34 307.963L1053.89 308.58L1251.6 128.931L1251.05 128.314ZM1080.62 128.574L1074.47 135.016L1068.22 136.282L1073.71 130.878L1080.62 128.574ZM1070.4 128.639L1066 132.598L1061.88 133.978L1066 130.651L1070.4 128.639ZM967.378 128.947L968.854 129.823L970.802 131.219L969.212 130.489L967.378 128.947ZM965.138 129.499L968.757 131.187L972.522 134.335L968.984 133.15L965.138 129.499ZM1348.52 129.71L1347.79 130.067L1544.85 534.528L1545.6 534.171L1348.52 129.71ZM437.486 129.84L295.049 250.271L295.585 250.888L438.022 130.472L437.486 129.84ZM957.527 130.197L962.477 131.852L967.215 136.85L962.477 135.909L957.527 130.197ZM1618.07 130.765L1616.09 140.924L1615.74 140.518L1613.98 142.011L1616.17 134.53L1618.07 130.765ZM696.671 131.365L695.941 131.738L897.693 519.825L898.423 519.452L696.671 131.365ZM1071.94 131.495L1066.74 136.591L1061.65 137.629L1066.42 133.329L1071.94 131.495ZM1094.11 131.901L1086.09 140.761L1077.33 141.362L1084.17 133.913L1094.11 131.901ZM1062.95 132.063L1059.65 134.708L1056.65 135.714L1059.81 133.491L1062.95 132.063ZM30.1687 132.144L29.3735 132.306L53.6999 256.762L54.5114 256.616L30.1687 132.144ZM964.132 132.387L968.546 133.864L972.863 137.97L968.611 137.126L964.132 132.387ZM971.63 132.517L974.372 133.783L977.374 135.941L974.648 135.033L971.63 132.517ZM1064.47 133.962L1060.07 137.938L1055.89 138.781L1060.04 135.438L1064.47 133.962ZM1082.79 134.173L1076.12 141.443L1069.02 141.93L1074.89 135.779L1082.79 134.173ZM970.38 134.465L974.242 135.763L978.137 139.009L974.372 138.262L970.38 134.465ZM221.989 135.081L225.803 138.408L224.943 137.856L224.764 138.149L221.989 135.081ZM446.867 135.179L299.658 257.184L300.178 257.817L447.402 135.812L446.867 135.179ZM1055.61 135.422L1053.91 136.623L1052.38 137.126L1054.13 136.104L1055.61 135.422ZM956.732 135.584L962.055 136.639L966.988 142.319L961.909 141.995L956.732 135.584ZM978.381 135.649L979.711 136.266L981.448 137.305L980.003 136.818L978.381 135.649ZM1073.5 136.055L1067.8 142.011L1061.99 142.417L1067.15 137.337L1073.5 136.055ZM1057.82 136.185L1054.15 139.138L1050.74 139.82L1054.28 137.353L1057.82 136.185ZM1343.65 136.428L1342.92 136.785L1536.41 541.198L1537.14 540.841L1343.65 136.428ZM976.352 136.493L979.63 137.581L983.022 140.015L979.809 139.382L976.352 136.493ZM963.353 136.931L968.205 137.889L972.782 142.725L968.14 142.433L963.353 136.931ZM690.666 137.126L689.936 137.499L888.361 525.262L889.092 524.889L690.666 137.126ZM1787.87 137.24L1776.69 225.295L1777.5 225.393L1788.68 137.337L1787.87 137.24ZM1256.93 137.418L1059.21 313.87L1059.77 314.487L1257.46 138.035L1256.93 137.418ZM1065.67 137.662L1060.72 142.53L1055.86 142.871L1060.45 138.717L1065.67 137.662ZM969.601 138.181L973.983 139.057L978.235 143.082L973.983 142.806L969.601 138.181ZM1051.54 138.295L1048.73 140.258L1046.15 140.778L1048.91 139.171L1051.54 138.295ZM982.259 138.457L984.775 139.301L987.501 140.907L984.969 140.404L982.259 138.457ZM24.862 138.554L24.0506 138.733L46.8028 248.518L47.598 248.356L24.862 138.554ZM1614.13 138.603L1612.85 143.001L1611.23 144.38L1614.13 138.603ZM328.642 138.717L323.547 142.076L319.392 143.699L328.642 138.717ZM1058.87 139.057L1054.52 142.968L1050.39 143.261L1054.51 139.934L1058.87 139.057ZM975.492 139.366L979.452 140.145L983.363 143.423L979.5 143.179L975.492 139.366ZM225.981 139.544L229.941 142.092L234.323 145.922L230.217 144.234L225.981 139.544ZM1583.96 139.593L1587.22 143.553L1586.82 144.153L1583.96 139.593ZM1052.76 140.291L1048.94 143.358L1045.37 143.601L1049.06 141.037L1052.76 140.291ZM1045.11 140.453L1043.65 141.297L1042.37 141.557L1043.89 140.859L1045.11 140.453ZM981.123 140.502L984.645 141.199L988.199 143.764L984.742 143.536L981.123 140.502ZM988.442 140.55L989.708 140.989L991.266 141.703L989.919 141.443L988.442 140.55ZM455.841 141.264L304.462 264.033L304.981 264.666L456.36 141.897L455.841 141.264ZM1616.01 141.427L1614.13 151.131L1611.34 151.05L1613.56 143.504L1616.01 141.427ZM1047.04 141.475L1043.78 143.747L1040.76 143.958L1043.96 142.108L1047.04 141.475ZM986.592 141.605L989.627 142.222L992.743 144.072L989.741 143.861L986.592 141.605ZM1085.29 141.686L1078.12 149.606L1070.27 149.103L1076.51 142.303L1085.29 141.686ZM1075.33 142.384L1069.21 149.038L1062.7 148.616L1068.17 142.871L1075.33 142.384ZM1041.46 142.611L1038.91 144.088L1036.59 144.25L1039.12 143.082L1041.46 142.611ZM992.045 142.693L994.431 143.163L996.946 144.332L994.544 144.186L992.045 142.693ZM962.607 142.936L967.735 143.261L972.457 148.681L967.54 149.022L962.607 142.936ZM1066.97 142.985L1061.63 148.567L1056.2 148.21L1061.1 143.39L1066.97 142.985ZM684.727 142.985L683.997 143.342L878.592 529.871L879.322 529.498L684.727 142.985ZM1338.93 143.342L1338.2 143.682L1526.22 544.606L1526.97 544.249L1338.93 143.342ZM968.887 143.342L973.609 143.634L978.024 148.308L973.48 148.616L968.887 143.342ZM1059.83 143.455L1055.09 148.113L1050.42 147.804L1054.87 143.796L1059.83 143.455ZM974.81 143.715L979.16 144.007L983.298 147.934L979.095 148.226L974.81 143.715ZM1035.62 143.78L1034.27 144.396L1033.05 144.478L1034.48 144.007L1035.62 143.78ZM997.839 143.845L999.072 144.088L1000.48 144.559L999.202 144.494L997.839 143.845ZM1053.53 143.893L1049.27 147.756L1045.19 147.48L1049.27 144.202L1053.53 143.893ZM980.442 144.088L984.418 144.348L988.296 147.593L984.401 147.869L980.442 144.088ZM320.252 144.283L312.479 149.427L306.409 150.758L313.42 146.977L320.252 144.283ZM1047.82 144.283L1043.98 147.399L1040.34 147.155L1044.07 144.559L1047.82 144.283ZM985.813 144.445L989.448 144.672L993.067 147.269L989.481 147.512L985.813 144.445ZM1612.43 144.494L1610.49 151.05L1607.93 150.969L1610.27 146.328L1612.43 144.494ZM1042.48 144.689L1039.03 147.09L1035.78 146.896L1039.17 144.916L1042.48 144.689ZM991.006 144.802L994.301 145.013L997.611 146.977L994.349 147.204L991.006 144.802ZM1037.31 145.046L1034.32 146.798L1031.5 146.604L1034.48 145.24L1037.31 145.046ZM234.598 145.127L238.753 147.788L236.659 146.928L234.598 145.127ZM996.102 145.127L998.991 145.305L1001.91 146.668L999.039 146.863L996.102 145.127ZM19.8312 145.224L19.0197 145.403L40.0843 240.144L40.8795 239.966L19.8312 145.224ZM1032.18 145.403L1029.79 146.49L1027.54 146.344L1029.94 145.549L1032.18 145.403ZM1001.25 145.468L1003.55 145.614L1005.9 146.393L1003.6 146.555L1001.25 145.468ZM231.466 145.679L236.221 147.626L241.09 151.894L236.254 151.001L231.466 145.679ZM1026.66 145.776L1025.38 146.214L1024.16 146.133L1025.48 145.873L1026.66 145.776ZM1006.76 145.841L1008 145.922L1009.3 146.182L1008.05 146.263L1006.76 145.841ZM1016.73 146.474L1017.96 146.555L1016.71 146.815L1015.46 146.571L1016.73 146.474ZM1262.65 146.636L1065.41 319.469L1065.97 320.086L1263.21 147.253L1262.65 146.636ZM1021.08 146.766L1023.3 146.912L1021.01 147.675L1018.79 147.236L1021.08 146.766ZM1012.36 146.766L1014.62 147.22L1012.35 147.675L1010.09 146.928L1012.36 146.766ZM1025.48 147.026L1028.22 147.204L1025.36 148.519L1022.64 147.983L1025.48 147.026ZM1007.95 147.09L1010.74 148.015L1007.95 148.583L1005.14 147.285L1007.95 147.09ZM1029.94 147.334L1033.04 147.545L1029.81 149.427L1026.73 148.811L1029.94 147.334ZM1003.45 147.399L1006.59 148.859L1003.44 149.492L1000.29 147.61L1003.45 147.399ZM1034.51 147.626L1037.94 147.853L1034.38 150.336L1031.01 149.655L1034.51 147.626ZM1016.7 147.626L1019.44 148.178L1016.65 149.103L1013.92 148.194L1016.7 147.626ZM1608.66 147.675L1607.02 150.937L1604.9 150.872L1608.66 147.675ZM998.845 147.675L1002.25 149.703L998.828 150.385L995.388 147.918L998.845 147.675ZM1591.67 147.675L1595.76 150.547L1594.01 150.498L1591.67 147.675ZM1790.42 147.74L1781.33 218.414L1782.14 218.528L1791.23 147.837L1790.42 147.74ZM464.393 147.821L309.509 270.589L310.012 271.222L464.896 148.454L464.393 147.821ZM1039.25 147.886L1043.03 148.129L1039.17 151.229L1035.5 150.498L1039.25 147.886ZM994.106 147.983L997.725 150.596L994.074 151.326L990.39 148.243L994.106 147.983ZM1044.24 148.21L1048.42 148.486L1044.25 152.251L1040.23 151.456L1044.24 148.21ZM989.205 148.324L993.051 151.537L989.14 152.332L985.213 148.616L989.205 148.324ZM1021.06 148.454L1024.1 149.07L1020.96 150.498L1017.95 149.492L1021.06 148.454ZM1012.3 148.454L1015.35 149.476L1012.25 150.515L1009.2 149.087L1012.3 148.454ZM238.558 148.519L242.567 150.158L246.818 152.9L242.664 152.121L238.558 148.519ZM1049.57 148.519L1054.31 148.827L1049.75 153.306L1045.24 152.413L1049.57 148.519ZM984.109 148.648L988.15 152.494L983.979 153.338L979.825 148.94L984.109 148.648ZM678.852 148.794L678.106 149.168L868.417 533.409L869.147 533.052L678.852 148.794ZM1055.4 148.892L1060.9 149.249L1055.87 154.539L1050.73 153.501L1055.4 148.892ZM978.754 149.005L983.038 153.517L978.575 154.426L974.161 149.33L978.754 149.005ZM1025.46 149.297L1028.74 149.947L1025.35 151.926L1022.1 150.839L1025.46 149.297ZM1061.97 149.297L1068.5 149.719L1062.83 155.886L1056.81 154.685L1061.97 149.297ZM1007.84 149.297L1011.11 150.823L1007.79 151.926L1004.49 149.979L1007.84 149.297ZM307.107 149.346L303.504 151.294L300.421 151.975L307.107 149.346ZM973.123 149.346L977.65 154.556L972.879 155.529L968.173 149.703L973.123 149.346ZM1069.55 149.768L1077.42 150.271L1070.9 157.477L1063.77 156.049L1069.55 149.768ZM1016.65 149.833L1019.88 150.92L1016.57 152.446L1013.34 150.937L1016.65 149.833ZM1029.94 150.141L1033.46 150.839L1029.84 153.371L1026.38 152.219L1029.94 150.141ZM1334.34 150.141L1333.59 150.482L1515.54 543.389L1516.29 543.048L1334.34 150.141ZM1003.29 150.206L1006.76 152.267L1003.23 153.436L999.737 150.92L1003.29 150.206ZM1078.46 150.336L1087.66 150.937L1080.05 159.294L1071.84 157.655L1078.46 150.336ZM310.564 150.563L302.693 155.756L296.64 155.902L303.78 152.04L310.564 150.563ZM1034.56 151.066L1038.34 151.813L1034.48 154.913L1030.8 153.695L1034.56 151.066ZM998.634 151.148L1002.27 153.76L998.569 154.994L994.869 151.91L998.634 151.148ZM1594.7 151.245L1596.98 151.31L1600.25 153.614L1598.13 155.416L1594.7 151.245ZM1021.01 151.294L1024.4 152.43L1020.9 154.458L1017.54 152.9L1021.01 151.294ZM1012.2 151.294L1015.58 152.868L1012.1 154.458L1008.73 152.446L1012.2 151.294ZM1598.47 151.342L1602.75 151.488L1600.9 153.046L1598.47 151.342ZM1603.97 151.521L1606.62 151.602L1604.57 155.643L1601.59 153.549L1603.97 151.521ZM1607.51 151.634L1610.27 151.716L1608.34 158.288L1605.25 156.113L1607.51 151.634ZM1611.1 151.732L1613.95 151.829L1612.17 160.982L1609.03 158.775L1611.1 151.732ZM246.77 151.813L251.216 153.63L248.961 153.209L246.77 151.813ZM237.146 151.862L242.291 152.819L247.273 157.185L242.064 157.331L237.146 151.862ZM15.0925 151.926L14.281 152.105L33.4793 231.495L34.2745 231.3L15.0925 151.926ZM1039.38 152.056L1043.49 152.868L1039.38 156.568L1035.41 155.253L1039.38 152.056ZM993.846 152.154L997.644 155.334L993.733 156.633L989.87 152.949L993.846 152.154ZM300.875 152.722L294.822 155.984L289.889 156.113L295.552 153.89L300.875 152.722ZM1025.44 152.803L1029 153.988L1025.33 156.552L1021.81 154.913L1025.44 152.803ZM1007.69 152.852L1011.21 154.929L1007.59 156.6L1004.05 154.052L1007.69 152.852ZM1044.5 153.079L1049.06 153.988L1044.63 158.321L1040.28 156.876L1044.5 153.079ZM243.865 153.144L248.652 154.036L253.375 157.055L248.49 157.185L243.865 153.144ZM988.88 153.144L992.856 156.909L988.718 158.288L984.645 154.004L988.88 153.144ZM1016.55 153.355L1020.04 154.977L1016.44 157.071L1012.96 155.01L1016.55 153.355ZM1600.94 154.117L1604.2 156.406L1602.2 160.365L1598.66 156.049L1600.94 154.117ZM1050.01 154.166L1055.19 155.205L1050.39 160.235L1045.5 158.613L1050.01 154.166ZM983.704 154.166L987.858 158.548L983.476 160.008L979.192 155.075L983.704 154.166ZM1029.97 154.28L1033.72 155.529L1029.87 158.629L1026.19 156.909L1029.97 154.28ZM1003.1 154.345L1006.73 156.957L1002.97 158.694L999.299 155.61L1003.1 154.345ZM250.778 154.393L254.933 155.172L259.103 156.876L254.819 156.99L250.778 154.393ZM673.01 154.685L672.28 155.042L857.933 535.924L858.663 535.567L673.01 154.685ZM472.556 154.799L314.816 276.886L315.319 277.535L473.059 155.448L472.556 154.799ZM290.457 154.994L287.487 156.162L284.858 156.227L290.457 154.994ZM978.267 155.286L982.632 160.3L977.991 161.858L973.463 156.259L978.267 155.286ZM1056.15 155.383L1062.18 156.584L1056.86 162.378L1051.25 160.511L1056.15 155.383ZM1020.95 155.383L1024.55 157.055L1020.82 159.651L1017.25 157.525L1020.95 155.383ZM1012.05 155.432L1015.62 157.542L1011.92 159.7L1008.35 157.136L1012.05 155.432ZM1268.3 155.691L1071.99 324.419L1072.52 325.052L1268.82 156.324L1268.3 155.691ZM1034.64 155.854L1038.67 157.201L1034.61 160.852L1030.7 159.035L1034.64 155.854ZM258.876 155.919L263.534 156.795L261.132 156.844L258.876 155.919ZM998.39 155.919L1002.16 159.067L998.228 160.868L994.414 157.249L998.39 155.919ZM310.109 156.389L301.362 162.978L295.033 161.793L302.953 156.568L310.109 156.389ZM301.395 156.617L293.881 161.582L288.136 160.511L295.033 156.779L301.395 156.617ZM1063.13 156.763L1070.27 158.191L1064.25 164.844L1057.72 162.653L1063.13 156.763ZM293.232 156.827L286.854 160.268L281.693 159.31L287.649 156.957L293.232 156.827ZM1604.88 156.876L1608.09 159.132L1606.28 165.299L1602.77 161.047L1604.88 156.876ZM285.247 157.038L280.168 159.035L275.786 158.223L280.639 157.152L285.247 157.038ZM1329.86 157.152L1329.11 157.493L1505.66 539.121L1506.39 538.78L1329.86 157.152ZM276.322 157.249L273.725 157.834L271.34 157.395L276.322 157.249ZM1025.41 157.46L1029.16 159.197L1025.3 162.313L1021.6 160.122L1025.41 157.46ZM1039.58 157.46L1043.98 158.921L1039.66 163.157L1035.42 161.193L1039.58 157.46ZM267.396 157.46L271.664 158.256L267.12 159.262L263.014 157.574L267.396 157.46ZM1007.49 157.46L1011.15 160.073L1007.35 162.296L1003.66 159.213L1007.49 157.46ZM993.522 157.46L997.433 161.16L993.327 163.059L989.335 158.856L993.522 157.46ZM260.986 157.574L265.725 159.505L260.629 160.625L256.052 157.704L260.986 157.574ZM254.592 157.736L259.493 160.885L254.17 162.053L249.383 157.866L254.592 157.736ZM248.182 157.899L253.164 162.28L247.695 163.481L242.794 158.045L248.182 157.899ZM1016.44 157.899L1020.09 160.073L1016.29 162.718L1012.66 160.106L1016.44 157.899ZM1792.79 158.061L1785.84 211.241L1786.65 211.355L1793.62 158.158L1792.79 158.061ZM1071.21 158.272L1079.42 159.911L1072.52 167.49L1065.11 165.007L1071.21 158.272ZM273.741 158.564L278.724 159.489L273.19 161.664L268.451 159.716L273.741 158.564ZM10.6783 158.824L9.88312 159.035L26.8905 222.829L27.6857 222.618L10.6783 158.824ZM988.475 159.116L992.532 163.384L988.231 165.364L984.061 160.576L988.475 159.116ZM1044.85 159.116L1049.77 160.755L1045.13 165.607L1040.45 163.432L1044.85 159.116ZM1029.99 159.473L1033.96 161.307L1029.92 164.942L1026.04 162.637L1029.99 159.473ZM1608.79 159.521L1612 161.777L1610.38 170.151L1606.91 165.948L1608.79 159.521ZM1002.84 159.586L1006.59 162.718L1002.66 165.007L998.877 161.404L1002.84 159.586ZM280.249 159.797L285.702 160.82L279.373 164.228L274.277 162.15L280.249 159.797ZM267.055 160.057L272.086 162.118L266.406 164.341L261.603 161.258L267.055 160.057ZM1020.85 160.56L1024.62 162.783L1020.72 165.915L1017 163.254L1020.85 160.56ZM667.233 160.56L666.502 160.917L847.239 537.32L847.969 536.963L667.233 160.56ZM1011.88 160.56L1015.58 163.205L1011.71 165.915L1008.01 162.816L1011.88 160.56ZM983.217 160.868L987.452 165.737L982.908 167.83L978.543 162.426L983.217 160.868ZM286.984 161.031L292.891 162.134L285.767 166.824L280.346 164.601L286.984 161.031ZM1050.61 161.079L1056.26 162.962L1051.2 168.463L1045.92 166.013L1050.61 161.079ZM260.467 161.518L265.465 164.715L259.753 166.97L254.933 162.735L260.467 161.518ZM1034.76 161.745L1039.04 163.725L1034.81 167.895L1030.67 165.429L1034.76 161.745ZM998.066 161.793L1001.93 165.445L997.839 167.83L993.911 163.692L998.066 161.793ZM480.346 162.199L320.447 282.939L320.934 283.604L480.849 162.848L480.346 162.199ZM294.059 162.378L300.47 163.579L292.437 169.599L286.692 167.246L294.059 162.378ZM273.173 162.589L278.448 164.747L272.232 168.106L267.266 164.909L273.173 162.589ZM977.715 162.751L982.129 168.22L977.326 170.427L972.749 164.406L977.715 162.751ZM253.927 162.962L258.892 167.311L253.148 169.567L248.328 164.211L253.927 162.962ZM1025.36 163.254L1029.29 165.591L1025.28 169.21L1021.42 166.435L1025.36 163.254ZM1057.1 163.254L1063.64 165.429L1058.01 171.644L1051.98 168.837L1057.1 163.254ZM1007.27 163.303L1011.02 166.451L1007.06 169.226L1003.28 165.623L1007.27 163.303ZM1016.29 163.773L1020.06 166.483L1016.13 169.664L1012.36 166.516L1016.29 163.773ZM993.132 164.082L997.108 168.269L992.84 170.751L988.783 166.078L993.132 164.082ZM1039.84 164.13L1044.53 166.321L1040.03 171.027L1035.54 168.366L1039.84 164.13ZM1325.47 164.195L1324.73 164.536L1496.72 533.084L1497.45 532.743L1325.47 164.195ZM1273.84 164.925L1078.9 328.995L1079.44 329.628L1274.37 165.542L1273.84 164.925ZM279.421 165.201L284.939 167.473L278.139 171.952L273.027 168.658L279.421 165.201ZM266.325 165.331L271.405 168.593L265.303 171.887L260.45 167.636L266.325 165.331ZM1064.49 165.769L1071.92 168.252L1065.58 175.214L1058.79 172.066L1064.49 165.769ZM1030.04 166.061L1034.21 168.544L1030.02 172.65L1025.96 169.745L1030.04 166.061ZM1002.54 166.061L1006.37 169.713L1002.29 172.553L998.407 168.463L1002.54 166.061ZM6.70235 166.175L5.92338 166.418L20.2369 214.422L21.0158 214.179L6.70235 166.175ZM988.004 166.435L992.126 171.173L987.663 173.786L983.428 168.544L988.004 166.435ZM661.504 166.613L660.757 166.97L836.447 537.774L837.177 537.417L661.504 166.613ZM1045.32 166.678L1050.61 169.145L1045.76 174.435L1040.76 171.466L1045.32 166.678ZM1020.75 167.003L1024.65 169.794L1020.62 173.429L1016.76 170.2L1020.75 167.003ZM1011.67 167.003L1015.48 170.183L1011.47 173.397L1007.67 169.794L1011.67 167.003ZM285.864 167.798L291.674 170.183L284.209 175.799L278.902 172.391L285.864 167.798ZM259.59 167.928L264.54 172.261L258.503 175.523L253.732 170.232L259.59 167.928ZM1795.01 168.674L1790.21 204.247L1791.04 204.344L1795.82 168.772L1795.01 168.674ZM997.692 168.869L1001.6 173.007L997.384 175.961L993.392 171.368L997.692 168.869ZM982.665 168.869L986.949 174.159L982.259 176.886L977.845 171.092L982.665 168.869ZM1034.94 168.934L1039.45 171.612L1035.05 176.22L1030.7 173.088L1034.94 168.934ZM272.2 169.048L277.393 172.391L270.853 176.707L265.968 172.423L272.2 169.048ZM1051.39 169.486L1057.45 172.293L1052.12 178.168L1046.49 174.841L1051.39 169.486ZM487.795 170.021L326.387 288.765L326.857 289.43L488.282 170.67L487.795 170.021ZM1025.33 170.265L1029.42 173.202L1025.26 177.292L1021.26 173.932L1025.33 170.265ZM1006.98 170.265L1010.82 173.916L1006.73 177.21L1002.87 173.137L1006.98 170.265ZM1016.11 170.719L1020.01 173.965L1015.93 177.632L1012.07 173.965L1016.11 170.719ZM1321.16 171.255L1320.43 171.595L1488.52 526.025L1489.27 525.668L1321.16 171.255ZM992.662 171.79L996.703 176.431L992.305 179.515L988.183 174.403L992.662 171.79ZM1040.18 172.05L1045.19 175.036L1040.5 180.148L1035.73 176.724L1040.18 172.05ZM655.792 172.65L655.045 173.007L825.655 537.401L826.385 537.044L655.792 172.65ZM1058.22 172.65L1064.99 175.799L1059.08 182.306L1052.84 178.606L1058.22 172.65ZM265.189 172.829L270.155 177.178L263.793 181.381L259.071 176.139L265.189 172.829ZM278.156 172.894L283.511 176.334L276.468 181.625L271.502 177.275L278.156 172.894ZM1002.19 173.624L1006.08 177.73L1001.86 181.138L997.92 176.594L1002.19 173.624ZM1030.1 173.689L1034.48 176.837L1030.13 181.381L1025.9 177.827L1030.1 173.689ZM3.32683 173.754L2.54787 174.013L13.4047 206.065L14.1837 205.805L3.32683 173.754ZM1279.32 174.192L1086.15 333.02L1086.69 333.653L1279.84 174.825L1279.32 174.192ZM1011.42 174.5L1015.32 178.2L1011.18 181.933L1007.28 177.827L1011.42 174.5ZM1020.64 174.5L1024.68 177.876L1020.51 181.982L1016.53 178.2L1020.64 174.5ZM987.469 174.825L991.623 179.985L987.03 183.182L982.762 177.567L987.469 174.825ZM1045.92 175.458L1051.55 178.801L1046.46 184.432L1041.17 180.635L1045.92 175.458ZM1065.77 176.172L1073.09 179.58L1066.5 186.72L1059.8 182.744L1065.77 176.172ZM284.257 176.805L289.808 180.375L282.148 186.623L277.084 182.193L284.257 176.805ZM997.238 177.064L1001.23 181.641L996.865 185.162L992.824 180.148L997.238 177.064ZM1035.15 177.324L1039.95 180.764L1035.36 185.747L1030.77 181.917L1035.15 177.324ZM270.788 177.762L275.786 182.144L269.035 187.223L264.345 182.014L270.788 177.762ZM494.935 178.119L332.618 294.266L333.105 294.932L495.422 178.785L494.935 178.119ZM1006.65 178.346L1010.58 182.485L1006.34 186.282L1002.4 181.754L1006.65 178.346ZM1316.92 178.395L1316.18 178.752L1480.91 518.381L1481.64 518.024L1316.92 178.395ZM1025.31 178.395L1029.58 181.965L1025.26 186.477L1021.09 182.533L1025.31 178.395ZM650.128 178.72L649.381 179.06L814.895 536.443L815.626 536.103L650.128 178.72ZM1015.92 178.72L1019.93 182.517L1015.71 186.655L1011.75 182.485L1015.92 178.72ZM1052.27 179.19L1058.52 182.907L1052.93 189.041L1047.14 184.87L1052.27 179.19ZM1797.02 179.255L1794.48 197.09L1795.3 197.22L1797.85 179.369L1797.02 179.255ZM992.142 180.602L996.232 185.649L991.704 189.301L987.533 183.815L992.142 180.602ZM1040.62 181.219L1045.91 185.033L1040.99 190.453L1035.99 186.266L1040.62 181.219ZM0.762737 181.625L0 181.917L6.32909 197.934L7.09183 197.626L0.762737 181.625ZM1001.77 182.257L1005.73 186.818L1001.39 190.745L997.384 185.779L1001.77 182.257ZM1030.2 182.485L1034.81 186.347L1030.28 191.264L1025.85 187.045L1030.2 182.485ZM276.419 182.663L281.499 187.126L274.277 193.017L269.587 187.808L276.419 182.663ZM1011.13 183.053L1015.12 187.256L1010.85 191.459L1006.88 186.883L1011.13 183.053ZM1020.51 183.101L1024.7 187.077L1020.38 191.605L1016.27 187.272L1020.51 183.101ZM1059.23 183.345L1065.93 187.321L1059.78 193.958L1053.62 189.544L1059.23 183.345ZM1284.72 183.491L1093.73 336.411L1094.25 337.044L1285.24 184.124L1284.72 183.491ZM644.48 184.805L643.734 185.146L804.201 534.902L804.947 534.561L644.48 184.805ZM1046.59 185.503L1052.38 189.658L1047.06 195.516L1041.62 190.972L1046.59 185.503ZM1312.7 185.503L1311.97 185.86L1473.74 510.283L1474.47 509.926L1312.7 185.503ZM996.735 186.266L1000.78 191.264L996.297 195.305L992.207 189.917L996.735 186.266ZM501.8 186.396L339.158 299.329L339.629 300.011L502.27 187.077L501.8 186.396ZM1035.42 186.834L1040.44 191.037L1035.65 196.328L1030.88 191.8L1035.42 186.834ZM1006.28 187.402L1010.27 192.011L1005.9 196.295L1001.9 191.345L1006.28 187.402ZM1025.28 187.613L1029.73 191.832L1025.25 196.717L1020.93 192.173L1025.28 187.613ZM1015.69 187.824L1019.81 192.173L1015.45 196.733L1011.39 192.059L1015.69 187.824ZM1053.05 190.128L1059.21 194.542L1053.42 200.823L1047.69 196.019L1053.05 190.128ZM991.558 190.437L995.68 195.857L991.055 200.011L986.852 194.218L991.558 190.437ZM638.865 190.891L638.119 191.232L793.62 532.711L794.366 532.386L638.865 190.891ZM1041.07 191.556L1046.51 196.1L1041.36 201.748L1036.25 196.896L1041.07 191.556ZM1001.3 191.897L1005.32 196.879L1000.84 201.277L996.784 195.954L1001.3 191.897ZM1030.33 192.4L1035.1 196.928L1030.39 202.137L1025.82 197.301L1030.33 192.4ZM1010.81 192.627L1014.89 197.317L1010.46 201.943L1006.42 196.928L1010.81 192.627ZM1308.52 192.676L1307.8 193.049L1466.91 501.925L1467.64 501.552L1308.52 192.676ZM1020.36 192.757L1024.7 197.317L1020.22 202.202L1016 197.35L1020.36 192.757ZM1290.06 192.838L1101.59 339.122L1102.09 339.771L1290.58 193.488L1290.06 192.838ZM508.405 194.932L346.007 304.036L346.477 304.717L508.875 195.613L508.405 194.932ZM1059.9 195.029L1066.27 199.606L1059.96 206.308L1054.05 201.342L1059.9 195.029ZM996.183 196.506L1000.26 201.861L995.664 206.373L991.542 200.677L996.183 196.506ZM1047.14 196.62L1052.87 201.423L1047.34 207.412L1041.96 202.316L1047.14 196.62ZM633.25 197.042L632.504 197.366L783.185 529.952L783.931 529.611L633.25 197.042ZM1035.7 197.496L1040.81 202.365L1035.81 207.85L1030.96 202.738L1035.7 197.496ZM1005.84 197.496L1009.9 202.527L1005.4 207.249L1001.34 201.926L1005.84 197.496ZM1025.26 197.902L1029.84 202.738L1025.17 207.898L1020.75 202.819L1025.26 197.902ZM1015.43 197.95L1019.65 202.819L1015.14 207.736L1010.98 202.608L1015.43 197.95ZM1304.35 199.865L1303.63 200.255L1460.35 493.373L1461.08 492.984L1304.35 199.865ZM1053.49 201.959L1059.41 206.908L1053.44 213.221L1047.92 207.996L1053.49 201.959ZM1295.37 202.251L1109.64 341.183L1110.14 341.832L1295.84 202.916L1295.37 202.251ZM1000.76 202.527L1004.83 207.866L1000.24 212.686L996.151 207.055L1000.76 202.527ZM1041.41 202.933L1046.77 208.028L1041.43 213.789L1036.38 208.466L1041.41 202.933ZM627.668 203.192L626.921 203.533L772.928 526.593L773.675 526.268L627.668 203.192ZM1010.42 203.192L1014.57 208.337L1010.01 213.319L1005.9 207.931L1010.42 203.192ZM1030.41 203.354L1035.26 208.466L1030.34 213.87L1025.72 208.531L1030.41 203.354ZM1020.19 203.436L1024.62 208.531L1019.96 213.676L1015.66 208.369L1020.19 203.436ZM514.799 203.63L353.147 308.304L353.602 308.985L515.253 204.312L514.799 203.63ZM1300.19 207.038L1299.46 207.444L1454.04 484.642L1454.75 484.236L1300.19 207.038ZM1005.34 208.531L1009.44 213.935L1004.8 218.982L1000.73 213.351L1005.34 208.531ZM1047.37 208.58L1052.87 213.822L1047.19 219.859L1042 214.39L1047.37 208.58ZM1015.09 208.986L1019.39 214.292L1014.7 219.486L1010.51 213.968L1015.09 208.986ZM1035.83 209.067L1040.88 214.39L1035.68 220.005L1030.9 214.487L1035.83 209.067ZM1025.15 209.148L1029.79 214.471L1024.92 219.826L1020.48 214.325L1025.15 209.148ZM622.069 209.327L621.322 209.667L762.867 522.633L763.63 522.292L622.069 209.327ZM1300.6 211.663L1296.3 214.747L1295.99 214.195L1295.26 214.601L1295.63 215.234L1117.85 342.481L1118.32 343.146L1296.05 215.931L1300.99 224.387L1295.79 227.924L1291.75 221.336L1291.04 221.774L1295.11 228.379L1289.77 232.014L1287.45 228.444L1286.75 228.898L1289.11 232.468L1283.57 236.217L1283.09 235.503L1282.42 235.974L1282.91 236.671L1126.12 343.114L1126.58 343.795L1283.36 237.353L1288.59 244.851L1283.04 248.405L1278.62 242.514L1277.97 243.001L1282.34 248.843L1276.56 252.527L1274.08 249.459L1273.43 249.963L1275.86 252.965L1269.83 256.811L1269.39 256.308L1268.79 256.86L1269.13 257.249L1134.43 343.098L1134.87 343.779L1269.68 257.882L1275.26 264.195L1269.18 267.798L1264.57 263.075L1263.99 263.643L1268.45 268.236L1262.07 272.001L1259.59 269.729L1259.04 270.329L1261.34 272.439L1254.64 276.399L1254.44 276.236L1254.02 276.756L1142.74 342.481L1143.16 343.195L1254.56 277.389L1260.59 282.257L1253.84 285.909L1249.09 282.598L1248.63 283.28L1253.03 286.33L1245.91 290.177L1243.54 288.781L1243.13 289.495L1245.06 290.631L1151 341.329L1151.39 342.043L1237.58 295.597L1244.12 298.713L1236.62 302.332L1231.74 300.53L1231.46 301.309L1235.6 302.835L1227.73 306.632L1225.49 306.032L1225.3 306.827L1226.59 307.168L1159.2 339.673L1159.55 340.404L1218.92 311.793L1218.85 312.069L1225.44 313.124L1217.43 316.499L1212.25 316.158L1212.2 316.97L1215.72 317.197L1207.51 320.654L1205.27 320.719V321.53H1205.38L1167.23 337.564L1167.56 338.326L1175.2 335.113L1175.44 335.811L1186.15 332.03L1206.71 326.269L1225.52 322.471L1242.79 320.41L1258.68 319.94L1273.27 320.865L1286.83 323.055L1299.56 326.415L1311.63 330.861L1323.17 336.363L1334.34 342.887L1345.32 350.53L1356.2 359.294L1367.12 369.29L1378.1 380.553L1389.37 393.292L1401.07 407.768L1413.4 424.256L1426.51 443.097L1436.06 457.719L1436.25 457.606L1441.9 466.791L1442.43 466.466L1447.87 475.765L1448.58 475.343L1372.26 344.769V344.704H1372.21L1367 335.811L1367.1 335.194L1366.6 335.113L1361.55 326.48H1361.92L1361.99 325.652L1361.05 325.587L1356.02 316.986L1356.89 316.921V316.11L1355.56 316.158L1350.55 307.574L1351.89 307.411L1351.8 306.6L1350.09 306.795L1345.08 298.242L1346.86 297.885L1346.7 297.074L1344.66 297.496L1339.66 288.943L1341.85 288.343L1341.62 287.548L1339.24 288.213L1334.27 279.709L1336.82 278.8L1336.54 278.038L1333.83 278.979L1328.87 270.492L1331.76 269.274L1331.45 268.512L1328.46 269.777L1323.49 261.29L1326.69 259.748L1326.35 259.002L1323.07 260.576L1318.12 252.105L1321.63 250.222L1321.22 249.508L1317.72 251.391L1312.78 242.936L1316.52 240.729L1316.09 240.015L1312.36 242.222L1307.41 233.767L1311.39 231.235L1310.95 230.537L1307.01 233.052L1302.06 224.597L1306.24 221.741L1305.77 221.076L1301.64 223.883L1296.69 215.412L1301.05 212.28L1300.6 211.663ZM520.998 212.459L360.547 312.085L360.969 312.783L521.436 213.156L520.998 212.459ZM1053.47 214.374L1059.07 219.696L1053 225.977L1047.74 220.443L1053.47 214.374ZM1009.94 214.585L1014.15 220.102L1009.41 225.328L1005.3 219.648L1009.94 214.585ZM1019.93 214.942L1024.37 220.443L1019.5 225.782L1015.2 220.135L1019.93 214.942ZM1041.44 214.99L1046.62 220.459L1041.12 226.285L1036.22 220.638L1041.44 214.99ZM1030.33 215.104L1035.13 220.622L1030.02 226.139L1025.44 220.475L1030.33 215.104ZM616.486 215.493L615.74 215.818L753.065 518.121L753.811 517.781L616.486 215.493ZM1014.65 220.768L1018.95 226.415L1014.07 231.77L1009.9 226.009L1014.65 220.768ZM1047.19 221.043L1052.43 226.577L1046.62 232.598L1041.66 226.902L1047.19 221.043ZM1024.89 221.092L1029.45 226.756L1024.4 232.225L1020.01 226.464L1024.89 221.092ZM1035.67 221.254L1040.55 226.886L1035.2 232.549L1030.54 226.788L1035.67 221.254ZM527.035 221.4L368.159 315.412L368.58 316.126L527.457 222.115L527.035 221.4ZM610.904 221.644L610.157 221.985L743.539 513.058L744.285 512.734L610.904 221.644ZM1301.41 225.101L1306.34 233.556L1301.25 236.785L1296.21 228.622L1301.41 225.101ZM1009.34 226.642L1013.52 232.387L1008.63 237.759L1004.3 231.543L1004.62 231.852L1009.34 226.642ZM1019.45 227.08L1023.84 232.842L1018.79 238.278L1014.57 232.452L1019.45 227.08ZM1029.97 227.405L1034.63 233.15L1029.35 238.732L1024.91 232.89L1029.97 227.405ZM1041.1 227.502L1046.05 233.199L1040.44 239.025L1035.72 233.199L1041.1 227.502ZM605.305 227.778L604.558 228.119L734.272 507.524L735.019 507.183L605.305 227.778ZM1295.55 229.093L1300.56 237.223L1295.35 240.55L1290.23 232.695L1295.55 229.093ZM532.926 230.44L375.948 318.284L376.354 319.015L533.315 231.154L532.926 230.44ZM1014 233.069L1018.24 238.895L1013.21 244.331L1009.1 238.457L1014 233.069ZM1289.54 233.166L1294.66 240.988L1289.29 244.412L1284.04 236.899L1289.54 233.166ZM1024.34 233.491L1028.79 239.349L1023.58 244.867L1019.29 238.96L1024.34 233.491ZM1035.15 233.799L1039.85 239.625L1034.37 245.321L1029.87 239.398L1035.15 233.799ZM1046.59 233.799L1051.59 239.56L1045.7 245.532L1040.94 239.657L1046.59 233.799ZM599.69 233.88L598.943 234.237L725.298 501.503L726.044 501.146L599.69 233.88ZM1306.76 234.237L1311.68 242.676L1306.7 245.613L1301.68 237.467L1306.76 234.237ZM1300.99 237.905L1306 246.035L1300.9 249.054L1295.79 241.215L1300.99 237.905ZM538.671 239.544L383.916 320.719L384.29 321.449L539.06 240.274L538.671 239.544ZM1018.72 239.544L1022.99 245.451L1017.82 250.952L1013.68 244.997L1018.72 239.544ZM594.042 239.982L593.312 240.339L716.616 495.093L717.362 494.736L594.042 239.982ZM1029.29 239.982L1033.78 245.889L1028.4 251.488L1024.06 245.516L1029.29 239.982ZM1040.37 240.242L1045.13 246.116L1039.42 251.91L1034.87 245.954L1040.37 240.242ZM1295.11 241.654L1300.19 249.459L1294.97 252.559L1289.76 245.062L1295.11 241.654ZM1312.09 243.374L1317.02 251.813L1312.15 254.442L1307.14 246.311L1312.09 243.374ZM1289.06 245.5L1294.25 252.965L1288.85 256.162L1283.52 249.038L1289.06 245.5ZM588.379 246.035L587.632 246.409L708.242 488.294L708.972 487.92L588.379 246.035ZM1023.5 246.133L1027.81 252.088L1022.47 257.622L1018.3 251.634L1023.5 246.133ZM1034.29 246.538L1038.83 252.494L1033.25 258.174L1028.88 252.17L1034.29 246.538ZM1306.42 246.733L1311.42 254.831L1306.44 257.525L1301.36 249.719L1306.42 246.733ZM544.318 248.745L391.982 322.747L392.355 323.494L544.675 249.476L544.318 248.745ZM1282.83 249.476L1288.13 256.584L1282.53 259.878L1277.08 253.143L1282.83 249.476ZM1300.65 250.141L1305.72 257.914L1300.61 260.657L1295.44 253.224L1300.65 250.141ZM582.65 252.072L581.92 252.445L700.128 481.169L700.858 480.796L582.65 252.072ZM1317.44 252.527L1322.37 260.965L1317.59 263.27L1312.57 255.156L1317.44 252.527ZM1028.3 252.754L1032.66 258.775L1027.15 264.357L1022.94 258.32L1028.3 252.754ZM1039.33 253.16L1043.91 259.164L1038.13 264.925L1033.74 258.856L1039.33 253.16ZM1276.38 253.581L1281.84 260.316L1275.99 263.757L1270.4 257.411L1276.38 253.581ZM1294.72 253.646L1299.88 261.063L1294.62 263.903L1289.33 256.827L1294.72 253.646ZM1311.86 255.545L1316.84 263.643L1311.96 265.996L1306.89 258.223L1311.86 255.545ZM1288.64 257.249L1293.89 264.292L1288.47 267.213L1283.05 260.543L1288.64 257.249ZM549.885 257.996L400.161 324.402L400.486 325.149L550.209 258.742L549.885 257.996ZM576.889 258.061L576.175 258.434L692.306 473.753L693.036 473.363L576.889 258.061ZM1306.16 258.612L1311.21 266.337L1306.23 268.755L1301.08 261.355L1306.16 258.612ZM1033.15 259.44L1037.53 265.509L1031.87 271.141L1027.63 265.055L1033.15 259.44ZM1282.36 260.949L1287.73 267.603L1282.1 270.654L1276.55 264.373L1282.36 260.949ZM1322.8 261.679L1327.73 270.118L1323.01 272.098L1318.03 263.984L1322.8 261.679ZM1300.35 261.728L1305.48 269.112L1300.37 271.579L1295.13 264.552L1300.35 261.728ZM571.079 263.984L570.365 264.39L684.743 466.061L685.457 465.655L571.079 263.984ZM1317.26 264.341L1322.26 272.423L1317.47 274.435L1312.41 266.678L1317.26 264.341ZM1275.83 264.795L1281.35 271.043L1275.47 274.208L1269.78 268.382L1275.83 264.795ZM1294.4 264.958L1299.62 271.936L1294.35 274.484L1288.99 267.863L1294.4 264.958ZM1311.66 267.035L1316.71 274.76L1311.83 276.804L1306.7 269.437L1311.66 267.035ZM555.37 267.295L408.389 325.668L408.697 326.431L555.662 268.057L555.37 267.295ZM1288.26 268.252L1293.59 274.841L1288.13 277.486L1282.65 271.287L1288.26 268.252ZM1269.05 268.804L1274.73 274.63L1268.58 277.924L1262.72 272.553L1269.05 268.804ZM1305.97 269.794L1311.06 277.129L1306.07 279.222L1300.87 272.244L1305.97 269.794ZM565.204 269.859L564.507 270.281L677.44 458.157L678.138 457.735L565.204 269.859ZM1328.14 270.832L1333.09 279.287L1328.46 280.926L1323.45 272.812L1328.14 270.832ZM1281.9 271.676L1287.37 277.859L1281.69 280.586L1276.08 274.825L1281.9 271.676ZM1300.13 272.617L1305.3 279.547L1300.19 281.705L1294.88 275.133L1300.13 272.617ZM1261.97 272.991L1267.81 278.346L1261.37 281.819L1255.32 276.918L1261.97 272.991ZM1322.68 273.137L1327.67 281.219L1322.98 282.874L1317.93 275.133L1322.68 273.137ZM1275.33 275.246L1280.91 280.959L1275 283.815L1269.23 278.525L1275.33 275.246ZM1317.17 275.457L1322.18 283.15L1317.41 284.821L1312.31 277.502L1317.17 275.457ZM1294.12 275.506L1299.4 282.03L1294.11 284.253L1288.68 278.135L1294.12 275.506ZM559.249 275.668L558.567 276.123L559.232 277.161L416.665 326.609L416.925 327.372L559.687 277.875L565.091 286.298L558.048 288.359L553.212 281.397L552.53 281.851L557.204 288.602L549.901 290.728L547.061 286.98L546.396 287.483L549.057 290.972L541.43 293.211L540.781 292.432L540.148 292.952L540.57 293.455L424.958 327.226L425.185 328.021L541.154 294.153L546.947 301.082L539.223 302.884L534.354 297.69L533.754 298.242L538.298 303.094L530.167 304.993L527.749 302.737L527.197 303.338L529.193 305.22L433.283 327.551L433.462 328.362L520.544 308.077L520.446 308.174L526.694 313.221L517.882 314.714L513.955 312.053L513.501 312.734L516.714 314.909L507.35 316.499L506.701 316.142L506.425 316.645L441.625 327.616L441.755 328.427L507.204 317.359L513.809 321.011L504.348 321.952L499.171 319.696L498.846 320.459L502.692 322.13L492.923 323.104L491.332 322.585L491.121 323.299L449.966 327.437L450.047 328.249L458.324 327.421V327.859L471.501 327.486L489.466 328.395L507.317 330.796L528.934 335.616L547.743 341.702L563.825 348.696L578.544 356.827L592.549 366.321L606.279 377.388L620.154 390.387L634.484 405.642L649.625 423.737L656.83 433.247L657.333 432.857L663.484 441.734L664.149 441.263L614.945 370.345L615.074 370.053L614.571 369.842L608.745 361.436L609.2 361.582L609.459 360.803L607.966 360.316L602.173 351.958L603.731 352.315L603.909 351.504L601.475 350.968L595.698 342.643L598.327 343L598.424 342.189L595.065 341.734L589.336 333.474L592.955 333.653L593.02 332.841L588.752 332.614L583.072 324.419L587.648 324.289V323.461L582.536 323.607L576.873 315.461L582.358 314.909L582.277 314.097L576.337 314.682L570.722 306.6L577.067 305.529L576.921 304.717L570.219 305.853L564.62 297.804L571.485 296.197L670.381 450.027L671.063 449.589L566.405 286.769H566.454L566.227 285.973L565.951 286.055L560.531 277.6L561.099 277.405L560.839 276.626L560.076 276.886L559.249 275.668ZM1311.55 277.827L1316.6 285.113L1311.76 286.817L1306.58 279.904L1311.55 277.827ZM1287.92 278.492L1293.31 284.594L1287.84 286.882L1282.29 281.219L1287.92 278.492ZM1268.46 278.93L1274.21 284.205L1268.03 287.174L1262.07 282.371L1268.46 278.93ZM1333.51 280.018L1338.46 288.489L1333.9 289.755L1328.88 281.64L1333.51 280.018ZM1305.81 280.229L1310.95 287.109L1305.97 288.862L1300.71 282.371L1305.81 280.229ZM1281.53 281.576L1287.03 287.223L1281.35 289.625L1275.65 284.416L1281.53 281.576ZM1328.1 281.916L1333.07 289.982L1328.46 291.28L1323.43 283.572L1328.1 281.916ZM1299.93 282.695L1305.16 289.154L1300.04 290.956L1294.67 284.902L1299.93 282.695ZM1261.29 282.793L1267.21 287.564L1260.76 290.68L1254.6 286.395L1261.29 282.793ZM1322.63 283.848L1327.63 291.507L1322.98 292.822L1317.9 285.519L1322.63 283.848ZM1274.86 284.789L1280.51 289.966L1274.6 292.449L1268.74 287.742L1274.86 284.789ZM1293.88 285.227L1299.2 291.248L1293.93 293.114L1288.46 287.515L1293.88 285.227ZM1317.1 285.795L1322.15 293.049L1317.41 294.38L1312.26 287.499L1317.1 285.795ZM1253.79 286.834L1259.9 291.085L1253.11 294.364L1246.75 290.631L1253.79 286.834ZM565.561 286.996L570.998 295.451L564.101 297.057L558.534 289.057L565.561 286.996ZM1311.47 287.791L1316.57 294.607L1311.73 295.97L1306.52 289.527L1311.47 287.791ZM1287.65 287.856L1293.07 293.406L1287.6 295.337L1282 290.225L1287.65 287.856ZM1267.91 288.132L1273.74 292.806L1267.54 295.402L1261.52 291.215L1267.91 288.132ZM1338.88 289.203L1343.85 297.69L1339.33 298.599L1334.34 290.485L1338.88 289.203ZM557.707 289.3L563.241 297.268L556.116 298.924L550.436 291.41L557.707 289.3ZM1305.69 289.82L1310.87 296.214L1305.92 297.593L1300.63 291.621L1305.69 289.82ZM1281.19 290.566L1286.72 295.646L1281.04 297.658L1275.31 293.033L1281.19 290.566ZM1333.51 290.712L1338.47 298.778L1333.96 299.687L1328.93 291.994L1333.51 290.712ZM1245.89 291.085L1252.22 294.786L1245.1 298.226L1238.49 295.094L1245.89 291.085ZM1260.67 291.621L1266.65 295.792L1260.19 298.502L1253.97 294.867L1260.67 291.621ZM549.593 291.686L555.24 299.151L547.84 300.871L542.014 293.893L549.593 291.686ZM1299.78 291.913L1305.04 297.853L1299.95 299.281L1294.56 293.763L1299.78 291.913ZM1328.1 292.238L1333.09 299.881L1328.53 300.79L1323.48 293.536L1328.1 292.238ZM1274.45 293.406L1280.15 297.983L1274.24 300.076L1268.35 295.97L1274.45 293.406ZM1322.63 293.763L1327.65 300.969L1323.02 301.91L1317.93 295.094L1322.63 293.763ZM1293.7 294.071L1299.04 299.54L1293.78 301.017L1288.3 295.986L1293.7 294.071ZM1253.08 295.305L1259.25 298.908L1252.46 301.764L1246.04 298.697L1253.08 295.305ZM1317.08 295.305L1322.13 302.072L1317.44 303.013L1312.28 296.652L1317.08 295.305ZM1287.42 296.262L1292.86 301.244L1287.42 302.77L1281.79 298.242L1287.42 296.262ZM1267.44 296.327L1273.28 300.384L1267.13 302.559L1261.06 299.005L1267.44 296.327ZM1311.44 296.895L1316.53 303.192L1311.73 304.166L1306.52 298.258L1311.44 296.895ZM563.744 297.983L569.294 305.983L562.364 307.152L556.652 299.622L563.744 297.983ZM1344.28 298.421L1349.25 306.924L1344.79 307.444L1339.79 299.329L1344.28 298.421ZM1305.64 298.518L1310.8 304.36L1305.89 305.35L1300.6 299.93L1305.64 298.518ZM1280.9 298.567L1286.45 303.046L1280.81 304.62L1275.07 300.628L1280.9 298.567ZM1245.1 299.135L1251.46 302.153L1244.35 305.139L1237.71 302.689L1245.1 299.135ZM1260.12 299.411L1266.13 302.916L1259.7 305.172L1253.45 302.202L1260.12 299.411ZM1338.93 299.508L1343.89 307.557L1339.43 308.077L1334.43 300.417L1338.93 299.508ZM555.776 299.833L561.456 307.314L554.283 308.531L548.44 301.553L555.776 299.833ZM1299.69 300.173L1304.93 305.545L1299.88 306.567L1294.49 301.634L1299.69 300.173ZM1333.57 300.579L1338.54 308.19L1334.06 308.726L1329.04 301.504L1333.57 300.579ZM1274.11 300.952L1279.79 304.896L1273.95 306.535L1268.06 303.094L1274.11 300.952ZM1328.15 301.666L1333.13 308.823L1328.62 309.359L1323.56 302.608L1328.15 301.666ZM547.548 301.748L553.341 308.677L545.876 309.943L539.872 303.533L547.548 301.748ZM1293.57 301.894L1298.88 306.762L1293.68 307.817L1288.2 303.387L1293.57 301.894ZM1252.45 302.624L1258.6 305.561L1251.91 307.914L1245.48 305.545L1252.45 302.624ZM1322.68 302.786L1327.68 309.472L1323.11 310.008L1318.03 303.727L1322.68 302.786ZM1236.69 303.176L1243.25 305.61L1235.83 308.726L1228.95 306.908L1236.69 303.176ZM1267.05 303.452L1272.85 306.843L1266.79 308.547L1260.76 305.675L1267.05 303.452ZM1287.22 303.662L1292.64 308.028L1287.27 309.099L1281.69 305.22L1287.22 303.662ZM538.947 303.744L544.903 310.105L537.08 311.42L530.881 305.626L538.947 303.744ZM1317.12 303.906L1322.15 310.121L1317.51 310.673L1312.36 304.863L1317.12 303.906ZM1311.44 305.058L1316.5 310.787L1311.76 311.355L1306.57 306.032L1311.44 305.058ZM1280.67 305.496L1286.15 309.326L1280.62 310.446L1274.92 307.103L1280.67 305.496ZM529.924 305.837L536.058 311.598L527.782 312.994L521.388 307.833L529.924 305.837ZM1244.36 305.999L1250.69 308.336L1243.75 310.787L1237.14 309.05L1244.36 305.999ZM1259.65 306.064L1265.58 308.888L1259.3 310.641L1253.11 308.369L1259.65 306.064ZM1305.61 306.243L1310.74 311.485L1305.89 312.069L1300.63 307.249L1305.61 306.243ZM569.813 306.73L575.396 314.763L568.645 315.444L562.916 307.898L569.813 306.73ZM1273.84 307.427L1279.42 310.689L1273.71 311.858L1267.91 309.083L1273.84 307.427ZM1299.64 307.427L1304.8 312.166L1299.83 312.767L1294.51 308.466L1299.64 307.427ZM1227.81 307.427L1234.6 309.213L1226.87 312.458L1219.76 311.306L1227.81 307.427ZM1349.69 307.655L1354.65 316.175L1350.26 316.304L1345.26 308.19L1349.69 307.655ZM562.007 308.012L567.687 315.509L560.742 316.207L554.883 309.213L562.007 308.012ZM1344.36 308.288L1349.31 316.337L1344.93 316.467L1339.93 308.823L1344.36 308.288ZM1293.47 308.661L1298.7 312.88L1293.62 313.481L1288.2 309.732L1293.47 308.661ZM1251.91 308.758L1257.95 310.998L1251.46 312.815L1245.16 311.144L1251.91 308.758ZM1339.03 308.92L1343.98 316.483L1339.58 316.613L1334.58 309.44L1339.03 308.92ZM553.958 309.375L559.752 316.304L552.562 317.035L546.542 310.624L553.958 309.375ZM1266.71 309.375L1272.38 312.069L1266.52 313.253L1260.61 311.079L1266.71 309.375ZM1235.89 309.537L1242.37 311.241L1235.18 313.773L1228.4 312.685L1235.89 309.537ZM1333.65 309.537L1338.6 316.629L1334.19 316.759L1329.17 310.056L1333.65 309.537ZM1287.09 309.927L1292.38 313.611L1287.18 314.227L1281.69 311.014L1287.09 309.927ZM1328.25 310.17L1333.18 316.791L1328.74 316.921L1323.72 310.706L1328.25 310.17ZM545.584 310.771L551.524 317.1L544.01 317.862L537.827 312.085L545.584 310.771ZM1322.76 310.819L1327.71 316.954L1323.22 317.083L1318.16 311.371L1322.76 310.819ZM1280.49 311.257L1285.83 314.373L1280.49 315.006L1274.96 312.377L1280.49 311.257ZM1259.26 311.436L1264.97 313.546L1259 314.763L1253.03 313.189L1259.26 311.436ZM1317.17 311.501L1322.15 317.116L1317.57 317.262L1312.48 312.053L1317.17 311.501ZM1243.78 311.614L1249.91 313.221L1243.28 315.087L1236.87 314.049L1243.78 311.614ZM1311.45 312.182L1316.45 317.294L1311.81 317.44L1306.68 312.75L1311.45 312.182ZM536.805 312.264L542.923 317.992L535.003 318.787L528.642 313.643L536.805 312.264ZM1273.61 312.653L1278.96 315.201L1273.56 315.85L1267.98 313.789L1273.61 312.653ZM1305.61 312.864L1310.63 317.473L1305.9 317.603L1300.73 313.448L1305.61 312.864ZM1226.97 313.27L1233.56 314.341L1226.17 316.954L1219.28 316.515L1226.97 313.27ZM1299.59 313.578L1304.64 317.651L1299.83 317.781L1294.64 314.162L1299.59 313.578ZM1251.47 313.627L1257.19 315.136L1251.15 316.353L1245.19 315.396L1251.47 313.627ZM527.554 313.821L533.851 318.885L525.445 319.745L518.872 315.282L527.554 313.821ZM1266.44 314.097L1271.76 316.061L1266.34 316.71L1260.8 315.233L1266.44 314.097ZM1293.41 314.308L1298.45 317.83L1293.57 317.976L1288.34 314.909L1293.41 314.308ZM1235.24 314.617L1241.38 315.607L1234.68 317.489L1228.25 317.083L1235.24 314.617ZM1287 315.071L1292.03 318.025L1287.11 318.171L1281.89 315.672L1287 315.071ZM575.931 315.477L581.53 323.559L574.974 323.737L569.229 316.142L575.931 315.477ZM517.704 315.477L524.179 319.858L515.237 320.751L508.502 317.035L517.704 315.477ZM1258.97 315.607L1264.1 316.954L1258.81 317.586L1253.45 316.71L1258.97 315.607ZM1280.34 315.85L1285.31 318.203L1280.41 318.349L1275.25 316.45L1280.34 315.85ZM1243.31 315.915L1248.86 316.808L1242.94 318.008L1237.14 317.635L1243.31 315.915ZM568.272 316.24L573.968 323.753L567.249 323.932L561.374 316.921L568.272 316.24ZM1273.45 316.661L1278.22 318.43L1273.45 318.576L1268.48 317.262L1273.45 316.661ZM1355.14 316.937L1360.12 325.457L1355.76 325.181L1350.76 317.067L1355.14 316.937ZM560.384 317.035L566.194 323.964L559.265 324.159L553.26 317.749L560.384 317.035ZM1349.8 317.1L1354.75 325.133L1350.42 324.841L1345.45 317.229L1349.8 317.1ZM1251.16 317.181L1255.84 317.944L1250.95 318.511L1246.09 318.203L1251.16 317.181ZM1217.57 317.229L1224.19 317.668L1216.73 320.297L1209.8 320.508L1217.57 317.229ZM1344.49 317.294L1349.41 324.808L1345.09 324.532L1340.13 317.424L1344.49 317.294ZM1339.16 317.44L1344.06 324.467L1339.74 324.191L1334.79 317.57L1339.16 317.44ZM1266.27 317.554L1270.56 318.69L1266.22 318.804L1261.75 318.09L1266.27 317.554ZM1333.78 317.603L1338.65 324.127L1334.34 323.851L1329.39 317.733L1333.78 317.603ZM1328.35 317.765L1333.22 323.77L1328.87 323.494L1323.92 317.895L1328.35 317.765ZM1226.29 317.765L1232.29 318.154L1225.69 320.005L1219.42 320.183L1226.29 317.765ZM552.238 317.846L558.177 324.175L550.988 324.386L544.805 318.593L552.238 317.846ZM1322.85 317.895L1327.7 323.396L1323.3 323.12L1318.35 318.041L1322.85 317.895ZM1317.23 318.073L1322.08 323.039L1317.64 322.763L1312.69 318.203L1317.23 318.073ZM1311.5 318.252L1316.34 322.682L1311.86 322.39L1306.89 318.382L1311.5 318.252ZM1234.76 318.301L1239.85 318.625L1234.35 319.745L1229.08 319.891L1234.76 318.301ZM1258.79 318.414L1261.89 318.901L1258.73 318.998L1255.48 318.804L1258.79 318.414ZM1305.63 318.414L1310.45 322.293L1305.94 322.001L1300.97 318.544L1305.63 318.414ZM1299.59 318.593L1304.35 321.903L1299.83 321.611L1294.92 318.722L1299.59 318.593ZM543.718 318.69L549.82 324.402L542.274 324.597L535.912 319.469L543.718 318.69ZM1293.36 318.771L1298.02 321.498L1293.55 321.205L1288.72 318.917L1293.36 318.771ZM1243 318.82L1246.46 319.047L1242.76 319.485L1239.2 319.583L1243 318.82ZM1286.93 318.982L1291.35 321.076L1287.06 320.8L1282.45 319.112L1286.93 318.982ZM1280.26 319.177L1284.19 320.621L1280.34 320.378L1276.24 319.307L1280.26 319.177ZM1273.37 319.388L1276.11 320.118L1273.4 319.94L1270.51 319.469L1273.37 319.388ZM534.76 319.615L541.008 324.646L533.04 324.873L526.499 320.443L534.76 319.615ZM525.234 320.573L531.628 324.906L523.173 325.149L516.503 321.449L525.234 320.573ZM1229.58 320.702L1225.41 321.546L1221.56 322.001L1225.8 320.816L1229.58 320.702ZM1222.41 320.913L1216.29 322.634L1210.59 323.299L1216.89 321.076L1222.41 320.913ZM1214.2 321.157L1206.88 323.753L1200.09 324.548L1207.7 321.351L1214.2 321.157ZM1284.45 321.465L1286.88 321.627L1289.3 322.52L1287.03 322.147L1284.45 321.465ZM515.075 321.595L521.566 325.198L512.608 325.441L505.906 322.52L515.075 321.595ZM1289.76 321.806L1293.34 322.033L1296.95 323.753L1293.54 323.202L1289.76 321.806ZM1295.53 322.179L1299.59 322.423L1303.71 324.841L1299.83 324.208L1295.53 322.179ZM1301.41 322.552L1305.64 322.828L1310.03 325.879L1305.95 325.214L1301.41 322.552ZM504.234 322.698L510.677 325.49L501.41 325.749L494.886 323.64L504.234 322.698ZM1307.23 322.926L1311.55 323.202L1316.08 326.853L1311.91 326.171L1307.23 322.926ZM1312.96 323.283L1317.3 323.559L1321.92 327.794L1317.72 327.113L1312.96 323.283ZM1318.61 323.64L1322.94 323.916L1327.62 328.719L1323.4 328.038L1318.61 323.64ZM492.842 323.851L498.944 325.814L490.278 326.058L484.257 324.711L492.842 323.851ZM1324.16 323.997L1328.48 324.273L1333.2 329.612L1328.98 328.93L1324.16 323.997ZM1211.18 324.062L1206.55 325.36L1202.37 326.204L1207.06 324.548L1211.18 324.062ZM1329.63 324.354L1333.93 324.613L1338.67 330.504L1334.48 329.823L1329.63 324.354ZM582.098 324.354L587.729 332.468L581.352 332.143L575.574 324.516L582.098 324.354ZM574.568 324.548L580.281 332.095L573.789 331.754L567.914 324.727L574.568 324.548ZM1297.55 324.678L1299.59 325.003L1301.7 326.009L1299.83 325.522L1297.55 324.678ZM1335.03 324.678L1339.3 324.954L1344.1 331.364L1339.89 330.683L1335.03 324.678ZM566.876 324.759L572.669 331.689L566.032 331.348L560.027 324.938L566.876 324.759ZM483.17 324.808L483.072 325.279L486.935 326.139L480.816 326.317L475.461 325.587L483.17 324.808ZM558.924 324.97L564.864 331.3L558.015 330.959L551.832 325.165L558.924 324.97ZM1203.36 324.97L1196.6 327.356L1190.63 328.573L1190.79 329.368L1191.05 329.32L1185.93 331.137L1183.01 331.949L1183.05 332.143L1176.55 334.448L1198.13 325.376V325.603L1203.36 324.97ZM1340.37 325.035L1344.64 325.311L1349.48 332.257L1345.26 331.575L1340.37 325.035ZM550.664 325.214L556.733 330.894L549.609 330.537L543.263 325.409L550.664 325.214ZM1345.7 325.36L1349.96 325.636L1354.85 333.117L1350.6 332.436L1345.7 325.36ZM541.998 325.457L548.213 330.456L540.716 330.082L534.208 325.668L541.998 325.457ZM1302.48 325.506L1305.68 326.025L1309 327.956L1305.97 327.161L1302.48 325.506ZM474.958 325.668L474.861 326.366L475.704 326.48L471.518 326.593L467.704 326.399L474.958 325.668ZM532.796 325.717L539.141 330.017L531.222 329.612L524.585 325.944L532.796 325.717ZM1350.99 325.717L1355.27 325.993L1360.2 334.01L1355.94 333.312L1350.99 325.717ZM522.978 325.993L529.356 329.531L520.998 329.092L514.393 326.22L522.978 325.993ZM1356.28 326.058L1360.61 326.35L1365.61 334.886L1361.27 334.188L1356.28 326.058ZM512.446 326.285L518.661 328.979L509.995 328.541L503.747 326.528L512.446 326.285ZM1307.92 326.382L1311.58 326.983L1315.46 329.66L1311.94 328.735L1307.92 326.382ZM466.633 326.512V326.723L463.663 326.804L466.633 326.512ZM501.297 326.593L506.831 328.378L498.814 327.973L493.556 326.804L501.297 326.593ZM490.213 326.902L493.945 327.729L489.564 327.502L485.896 327.015L490.213 326.902ZM1313.47 327.275L1317.36 327.908L1321.53 331.267L1317.78 330.277L1313.47 327.275ZM1319 328.184L1323.02 328.833L1327.39 332.809L1323.48 331.786L1319 328.184ZM503.569 329.044L509.833 329.368L514.426 330.845L507.464 329.92L503.569 329.044ZM1324.5 329.044L1328.59 329.709L1333.07 334.286L1329.09 333.231L1324.5 329.044ZM1309.96 329.044L1311.63 329.482L1313.43 330.537L1311.97 330.001L1309.96 329.044ZM512.997 329.498L520.803 329.888L526.743 332.468L518.969 331.429L512.997 329.498ZM1329.94 329.92L1334.06 330.585L1338.62 335.746L1334.61 334.691L1329.94 329.92ZM523.14 330.001L530.995 330.407L537.259 333.88L529.713 332.874L523.14 330.001ZM1314.59 330.261L1317.43 331.007L1320.49 333.133L1317.81 332.16L1314.59 330.261ZM532.861 330.504L540.44 330.894L546.736 335.146L539.498 334.188L532.861 330.504ZM1335.34 330.796L1339.46 331.462L1344.09 337.19L1340.05 336.119L1335.34 330.796ZM542.03 330.975L549.3 331.332L555.484 336.314L548.554 335.389L542.03 330.975ZM550.696 331.413L557.674 331.77L563.711 337.434L557.058 336.525L550.696 331.413ZM1319.75 331.624L1323.11 332.5L1326.76 335.454L1323.54 334.269L1319.75 331.624ZM1340.66 331.673L1344.8 332.338L1349.51 338.635L1345.44 337.564L1340.66 331.673ZM558.94 331.851L565.675 332.192L571.582 338.505L565.123 337.629L558.94 331.851ZM516.762 331.981L518.791 332.257L520.592 332.841L516.762 331.981ZM566.843 332.257L573.4 332.582L579.209 339.527L572.88 338.667L566.843 332.257ZM1345.97 332.533L1350.13 333.214L1354.9 340.063L1350.79 338.976L1345.97 332.533ZM574.503 332.646L580.93 332.971L586.658 340.534L580.41 339.69L574.503 332.646ZM523.335 332.857L529.502 333.685L534.857 336.022L529.193 334.756L523.335 332.857ZM582.001 333.02L588.33 333.344L593.994 341.507L587.794 340.68L582.001 333.02ZM1325.04 333.02L1328.69 333.977L1332.66 337.629L1329.17 336.347L1325.04 333.02ZM1351.25 333.377L1355.45 334.042L1360.28 341.459L1356.13 340.371L1351.25 333.377ZM532.472 334.058L539.239 334.967L545.308 338.326L539.093 336.947L532.472 334.058ZM1356.55 334.221L1360.79 334.902L1365.69 342.887L1361.47 341.767L1356.55 334.221ZM1330.39 334.432L1334.17 335.422L1338.39 339.738L1334.71 338.391L1330.39 334.432ZM1321.86 334.529L1323.15 335L1324.66 336.054L1323.58 335.535L1321.86 334.529ZM1361.86 335.081L1366.14 335.779L1371.14 344.331L1366.84 343.195L1361.86 335.081ZM541.478 335.275L548.246 336.184L554.412 340.355L548.148 338.959L541.478 335.275ZM1335.71 335.843L1339.59 336.866L1343.98 341.799L1340.18 340.404L1335.71 335.843ZM1326.22 336.136L1328.77 337.061L1331.59 339.333L1329.22 338.213L1326.22 336.136ZM550.079 336.428L556.717 337.32L562.819 342.237L556.587 340.842L550.079 336.428ZM1341.02 337.239L1344.96 338.278L1349.46 343.828L1345.6 342.4L1341.02 337.239ZM537.551 337.434L538.833 337.726L540.002 338.229L537.551 337.434ZM558.275 337.531L564.75 338.391L570.738 344.006L564.62 342.643L558.275 337.531ZM1331.17 337.969L1334.27 339.105L1337.74 342.286L1334.77 340.874L1331.17 337.969ZM566.146 338.586L572.475 339.43L578.366 345.71L572.312 344.363L566.146 338.586ZM1346.31 338.635L1350.3 339.69L1354.9 345.84L1350.97 344.396L1346.31 338.635ZM543.069 338.7L547.84 339.771L552.335 342.254L548.051 340.858L543.069 338.7ZM573.757 339.641L579.988 340.469L585.782 347.382L579.777 346.051L573.757 339.641ZM1336.3 339.884L1339.72 341.134L1343.57 345.077L1340.27 343.503L1336.3 339.884ZM1351.57 340.047L1355.63 341.118L1360.32 347.853L1356.31 346.376L1351.57 340.047ZM550.68 340.404L556.262 341.637L561.569 345.24L556.409 343.568L550.68 340.404ZM581.189 340.631L587.356 341.459L593.085 349.021L587.097 347.674L581.189 340.631ZM1333.36 341.134L1334.34 341.588L1335.55 342.578L1334.82 342.14L1333.36 341.134ZM1356.84 341.442L1360.95 342.513L1365.74 349.865L1361.66 348.356L1356.84 341.442ZM588.492 341.605L594.627 342.432L600.323 350.628L594.318 349.297L588.492 341.605ZM1341.51 341.799L1345.11 343.13L1349.22 347.771L1345.71 346.1L1341.51 341.799ZM558.437 342.14L564.247 343.422L569.813 347.901L564.36 346.149L558.437 342.14ZM1362.13 342.838L1366.32 343.941L1371.21 351.877L1367.04 350.335L1362.13 342.838ZM1337.53 343.114L1339.8 344.201L1342.43 346.587L1340.32 345.37L1337.53 343.114ZM1346.73 343.731L1350.47 345.11L1354.75 350.417L1351.12 348.68L1346.73 343.731ZM566.064 343.828L571.923 345.142L577.538 350.4L571.988 348.615L566.064 343.828ZM1367.46 344.234L1371.73 345.37L1376.72 353.906L1372.46 352.332L1367.46 344.234ZM555.824 344.234L556.084 344.315L556.327 344.461L555.824 344.234ZM1342.34 345.402L1345.22 346.781L1348.54 350.173L1345.79 348.567L1342.34 345.402ZM573.497 345.483L579.356 346.798L585.003 352.818L579.372 351.001L573.497 345.483ZM560.174 345.645L563.987 346.879L567.704 349.394L564.214 347.885L560.174 345.645ZM1351.98 345.645L1355.79 347.057L1360.25 353.013L1356.47 351.212L1351.98 345.645ZM580.784 347.09L586.642 348.404L592.306 355.155L586.61 353.322L580.784 347.09ZM1357.2 347.577L1361.13 349.021L1365.72 355.61L1361.84 353.76L1357.2 347.577ZM566.779 347.771L571.582 349.329L576.288 353.111L571.777 351.147L566.779 347.771ZM1347.37 347.771L1350.6 349.313L1354.35 353.549L1351.21 351.715L1347.37 347.771ZM587.957 348.68L593.848 349.995L599.511 357.476L593.766 355.626L587.957 348.68ZM1344.64 348.81L1345.31 349.199L1346.21 350.043L1345.83 349.767L1344.64 348.81ZM1362.48 349.508L1366.5 350.985L1371.22 358.223L1367.21 356.324L1362.48 349.508ZM573.773 350.011L578.95 351.682L584.062 356.47L579.128 354.328L573.773 350.011ZM1352.49 350.206L1355.95 351.861L1359.99 356.843L1356.62 354.879L1352.49 350.206ZM595.081 350.271L601.004 351.585L606.7 359.797L600.874 357.914L595.081 350.271ZM1348.67 351.163L1350.71 352.364L1353.13 354.847L1351.28 353.565L1348.67 351.163ZM1367.78 351.455L1371.9 352.981L1376.76 360.852L1372.63 358.888L1367.78 351.455ZM580.784 352.283L586.155 354.019L591.494 359.699L586.301 357.444L580.784 352.283ZM1357.67 352.672L1361.31 354.409L1365.58 360.105L1361.99 358.012L1357.67 352.672ZM1373.14 353.435L1377.16 354.912L1377.23 354.733L1382.37 363.513L1378.12 361.501L1373.14 353.435ZM575.444 353.63L578.69 355.042L581.968 357.671L578.982 356.032L575.444 353.63ZM1353.37 353.922L1356.08 355.512L1359.28 359.115L1356.71 357.33L1353.37 353.922ZM587.778 354.539L593.28 356.324L598.749 362.864L593.393 360.527L587.778 354.539ZM1362.88 355.155L1366.68 356.957L1371.13 363.367L1367.39 361.176L1362.88 355.155ZM581.53 356.275L585.847 358.141L590.229 362.247L586.123 359.975L581.53 356.275ZM594.756 356.794L600.371 358.628L605.954 365.996L600.436 363.594L594.756 356.794ZM1358.35 356.859L1361.45 358.661L1365.12 363.205L1362.12 361.111L1358.35 356.859ZM1368.17 357.687L1372.07 359.553L1376.71 366.645L1372.81 364.373L1368.17 357.687ZM1355.82 357.736L1356.18 357.995L1356.83 358.644L1356.76 358.596L1355.82 357.736ZM601.751 359.083L607.479 360.933L613.159 369.128L607.496 366.661L601.751 359.083ZM588.086 359.131L592.906 361.225L597.807 366.467L593.15 363.886L588.086 359.131ZM1363.47 359.845L1366.84 361.825L1370.83 367.181L1367.52 364.876L1363.47 359.845ZM1373.49 360.235L1377.55 362.15L1382.34 369.956L1378.3 367.586L1373.49 360.235ZM1359.75 360.462L1361.58 361.744L1363.84 364.292L1362.2 362.977L1359.75 360.462ZM594.805 362.052L599.933 364.276L605.159 370.524L600.144 367.749L594.805 362.052ZM1378.91 362.799L1382.27 364.406L1382.55 363.838L1438.21 459.115L1414.33 420.296L1414.39 420.231L1414.03 419.842L1408.69 411.16L1408.99 410.884L1407.74 409.618L1403.1 402.072L1403.61 401.488L1401.59 399.638L1396.86 391.961L1397.79 392.708L1398.31 392.075L1395.58 389.868L1390.75 382.03L1392.58 383.295L1393.05 382.63L1389.67 380.277L1384.77 372.325L1387.4 373.867L1387.81 373.153L1383.85 370.832L1378.91 362.799ZM1368.66 362.88L1372.24 364.99L1376.51 371.124L1372.98 368.657L1368.66 362.88ZM589.839 362.977L592.679 364.552L595.649 367.327L593.069 365.59L589.839 362.977ZM1364.42 363.708L1366.97 365.493L1370.07 369.307L1367.64 367.359L1364.42 363.708ZM601.605 365.006L606.976 367.343L612.429 374.548L607.155 371.627L601.605 365.006ZM1373.93 365.98L1377.71 368.187L1382.23 375.084L1378.44 372.471L1373.93 365.98ZM595.6 366.174L599.641 368.398L603.861 372.893L599.998 370.28L595.6 366.174ZM1369.39 367.164L1372.39 369.258L1376.01 374.11L1373.09 371.757L1369.39 367.164ZM1367.02 367.911L1367.08 367.96L1367.18 368.073L1367.02 367.911ZM608.502 367.992L614.052 370.41L619.732 378.573L614.214 375.522L608.502 367.992ZM1379.3 369.112L1383.26 371.432L1387.99 379.092L1384.01 376.333L1379.3 369.112ZM601.978 369.696L606.619 372.26L611.472 378.054L606.944 374.986L601.978 369.696ZM1374.52 370.735L1377.86 373.055L1381.88 378.833L1378.59 376.171L1374.52 370.735ZM1370.87 371.011L1372.5 372.325L1374.63 374.938L1373.19 373.623L1370.87 371.011ZM608.615 373.364L613.662 376.155L618.921 383.117L613.938 379.741L608.615 373.364ZM603.828 373.867L606.408 375.619L609.183 378.573L606.83 376.674L603.828 373.867ZM1379.81 374.402L1383.41 376.918L1387.74 383.555L1384.16 380.666L1379.81 374.402ZM1375.54 374.776L1378.01 376.739L1381.02 380.796L1378.69 378.654L1375.54 374.776ZM615.431 377.129L620.397 379.887L620.495 379.693L626.386 388.164L621.046 384.545L615.431 377.129ZM609.492 377.697L613.387 380.342L617.557 385.324L613.792 382.289L609.492 377.697ZM1385.21 378.167L1389.06 380.845L1393.67 388.31L1389.8 385.21L1385.21 378.167ZM1380.57 378.816L1383.54 381.218L1387.16 386.428L1384.27 383.766L1380.57 378.816ZM615.853 382.013L620.462 385.146L625.379 391.637L620.835 387.969L615.853 382.013ZM1382.16 382.955L1383.65 384.318L1385.63 386.963L1384.34 385.632L1382.16 382.955ZM1385.81 383.052L1389.19 385.762L1393.24 391.994L1389.92 388.943L1385.81 383.052ZM622.588 386.574L626.126 388.975L626.532 388.375L654.72 428.979L650.972 424.045L651.02 423.98L650.306 423.136L644.464 415.428L644.708 415.217L642.63 412.994L638.005 406.892L638.541 406.324L635.23 403.24L630.102 396.457L632.001 397.982L632.52 397.349L628.057 393.747L622.588 386.574ZM617.849 386.622L620.267 388.586L622.945 391.783L620.754 389.738L617.849 386.622ZM1386.88 387.304L1389.3 389.511L1392.29 393.811L1389.98 391.442L1386.88 387.304ZM1391.25 387.45L1394.95 390.42L1399.38 397.625L1395.7 394.25L1391.25 387.45ZM623.562 391.231L627.44 394.363L631.676 399.946L627.895 396.424L623.562 391.231ZM1392.04 392.026L1395.06 394.785L1398.73 400.384L1395.76 397.366L1392.04 392.026ZM1393.73 396.457L1395.14 397.885L1397.04 400.611L1395.81 399.232L1393.73 396.457ZM1397.5 397.008L1400.95 400.173L1405.12 406.94L1401.67 403.419L1397.5 397.008ZM1398.62 401.455L1401.03 403.922L1404.05 408.547L1401.72 405.918L1398.62 401.455ZM632.244 401.601L634.597 403.808L637.259 407.33L635.116 405.042L632.244 401.601ZM1403.99 406.957L1407.07 410.121L1410.85 416.255L1407.79 412.783L1403.99 406.957ZM1405.77 411.744L1407.14 413.286L1409 416.158L1407.82 414.681L1405.77 411.744ZM1410.88 417.521L1413.35 420.329L1416.47 425.392L1414.07 422.422L1410.88 417.521ZM1418.46 429.157L1419.21 430.082L1419.31 430.001L1421.74 433.928L1420.56 432.338L1418.46 429.157Z" fill="#0038D6"/>
</g>
</g>
</svg>
