<svg width="676" height="483" viewBox="0 0 676 483" fill="none" xmlns="http://www.w3.org/2000/svg">
<g filter="url(#filter0_d_386_135)">
<rect width="598.688" height="411.139" rx="14" transform="matrix(-1 0 0 1 635.688 31)" fill="url(#paint0_linear_386_135)"/>
<rect x="22.9062" y="22.5156" width="602.096" height="408.481" rx="15" fill="#282932"/>
</g>
<path d="M52.172 232.098C51.528 232.098 50.9493 231.986 50.436 231.762C49.932 231.529 49.5353 231.211 49.246 230.81C48.9567 230.399 48.8073 229.928 48.798 229.396H50.156C50.2027 229.853 50.3893 230.241 50.716 230.558C51.052 230.866 51.5373 231.02 52.172 231.02C52.7787 231.02 53.2547 230.871 53.6 230.572C53.9547 230.264 54.132 229.872 54.132 229.396C54.132 229.023 54.0293 228.719 53.824 228.486C53.6187 228.253 53.362 228.075 53.054 227.954C52.746 227.833 52.3307 227.702 51.808 227.562C51.164 227.394 50.646 227.226 50.254 227.058C49.8713 226.89 49.54 226.629 49.26 226.274C48.9893 225.91 48.854 225.425 48.854 224.818C48.854 224.286 48.9893 223.815 49.26 223.404C49.5307 222.993 49.9087 222.676 50.394 222.452C50.8887 222.228 51.4533 222.116 52.088 222.116C53.0027 222.116 53.7493 222.345 54.328 222.802C54.916 223.259 55.2473 223.866 55.322 224.622H53.922C53.8753 224.249 53.6793 223.922 53.334 223.642C52.9887 223.353 52.5313 223.208 51.962 223.208C51.43 223.208 50.996 223.348 50.66 223.628C50.324 223.899 50.156 224.281 50.156 224.776C50.156 225.131 50.254 225.42 50.45 225.644C50.6553 225.868 50.9027 226.041 51.192 226.162C51.4907 226.274 51.906 226.405 52.438 226.554C53.082 226.731 53.6 226.909 53.992 227.086C54.384 227.254 54.72 227.52 55 227.884C55.28 228.239 55.42 228.724 55.42 229.34C55.42 229.816 55.294 230.264 55.042 230.684C54.79 231.104 54.4167 231.445 53.922 231.706C53.4273 231.967 52.844 232.098 52.172 232.098ZM61.1028 224.188C61.6815 224.188 62.2041 224.314 62.6708 224.566C63.1375 224.809 63.5015 225.177 63.7628 225.672C64.0335 226.167 64.1688 226.769 64.1688 227.478V232H62.9088V227.66C62.9088 226.895 62.7175 226.311 62.3348 225.91C61.9521 225.499 61.4295 225.294 60.7668 225.294C60.0948 225.294 59.5581 225.504 59.1568 225.924C58.7648 226.344 58.5688 226.955 58.5688 227.758V232H57.2948V221.64H58.5688V225.42C58.8208 225.028 59.1661 224.725 59.6048 224.51C60.0528 224.295 60.5521 224.188 61.1028 224.188ZM69.5959 232.126C68.8772 232.126 68.2239 231.963 67.6359 231.636C67.0572 231.309 66.5999 230.847 66.2639 230.25C65.9372 229.643 65.7739 228.943 65.7739 228.15C65.7739 227.366 65.9419 226.675 66.2779 226.078C66.6232 225.471 67.0899 225.009 67.6779 224.692C68.2659 224.365 68.9239 224.202 69.6519 224.202C70.3799 224.202 71.0379 224.365 71.6259 224.692C72.2139 225.009 72.6759 225.467 73.0119 226.064C73.3572 226.661 73.5299 227.357 73.5299 228.15C73.5299 228.943 73.3525 229.643 72.9979 230.25C72.6525 230.847 72.1812 231.309 71.5839 231.636C70.9865 231.963 70.3239 232.126 69.5959 232.126ZM69.5959 231.006C70.0532 231.006 70.4825 230.899 70.8839 230.684C71.2852 230.469 71.6072 230.147 71.8499 229.718C72.1019 229.289 72.2279 228.766 72.2279 228.15C72.2279 227.534 72.1065 227.011 71.8639 226.582C71.6212 226.153 71.3039 225.835 70.9119 225.63C70.5199 225.415 70.0952 225.308 69.6379 225.308C69.1712 225.308 68.7419 225.415 68.3499 225.63C67.9672 225.835 67.6592 226.153 67.4259 226.582C67.1925 227.011 67.0759 227.534 67.0759 228.15C67.0759 228.775 67.1879 229.303 67.4119 229.732C67.6452 230.161 67.9532 230.483 68.3359 230.698C68.7185 230.903 69.1385 231.006 69.5959 231.006ZM76.479 225.742C76.731 225.303 77.1043 224.939 77.599 224.65C78.103 224.351 78.6863 224.202 79.349 224.202C80.0303 224.202 80.6463 224.365 81.197 224.692C81.757 225.019 82.1956 225.481 82.513 226.078C82.8303 226.666 82.989 227.352 82.989 228.136C82.989 228.911 82.8303 229.601 82.513 230.208C82.1956 230.815 81.757 231.286 81.197 231.622C80.6463 231.958 80.0303 232.126 79.349 232.126C78.6956 232.126 78.117 231.981 77.613 231.692C77.1183 231.393 76.7403 231.025 76.479 230.586V235.64H75.205V224.328H76.479V225.742ZM81.687 228.136C81.687 227.557 81.5703 227.053 81.337 226.624C81.1036 226.195 80.7863 225.868 80.385 225.644C79.993 225.42 79.559 225.308 79.083 225.308C78.6163 225.308 78.1823 225.425 77.781 225.658C77.389 225.882 77.0716 226.213 76.829 226.652C76.5956 227.081 76.479 227.581 76.479 228.15C76.479 228.729 76.5956 229.237 76.829 229.676C77.0716 230.105 77.389 230.437 77.781 230.67C78.1823 230.894 78.6163 231.006 79.083 231.006C79.559 231.006 79.993 230.894 80.385 230.67C80.7863 230.437 81.1036 230.105 81.337 229.676C81.5703 229.237 81.687 228.724 81.687 228.136ZM91.5203 225.378H89.9103V232H88.6363V225.378H87.6423V224.328H88.6363V223.782C88.6363 222.923 88.8556 222.298 89.2943 221.906C89.7423 221.505 90.4563 221.304 91.4363 221.304V222.368C90.8763 222.368 90.4796 222.48 90.2463 222.704C90.0223 222.919 89.9103 223.278 89.9103 223.782V224.328H91.5203V225.378ZM94.2797 221.64V232H93.0057V221.64H94.2797ZM99.797 232.126C99.0784 232.126 98.425 231.963 97.837 231.636C97.2584 231.309 96.801 230.847 96.465 230.25C96.1384 229.643 95.975 228.943 95.975 228.15C95.975 227.366 96.143 226.675 96.479 226.078C96.8244 225.471 97.291 225.009 97.879 224.692C98.467 224.365 99.125 224.202 99.853 224.202C100.581 224.202 101.239 224.365 101.827 224.692C102.415 225.009 102.877 225.467 103.213 226.064C103.558 226.661 103.731 227.357 103.731 228.15C103.731 228.943 103.554 229.643 103.199 230.25C102.854 230.847 102.382 231.309 101.785 231.636C101.188 231.963 100.525 232.126 99.797 232.126ZM99.797 231.006C100.254 231.006 100.684 230.899 101.085 230.684C101.486 230.469 101.808 230.147 102.051 229.718C102.303 229.289 102.429 228.766 102.429 228.15C102.429 227.534 102.308 227.011 102.065 226.582C101.822 226.153 101.505 225.835 101.113 225.63C100.721 225.415 100.296 225.308 99.839 225.308C99.3724 225.308 98.943 225.415 98.551 225.63C98.1684 225.835 97.8604 226.153 97.627 226.582C97.3937 227.011 97.277 227.534 97.277 228.15C97.277 228.775 97.389 229.303 97.613 229.732C97.8464 230.161 98.1544 230.483 98.537 230.698C98.9197 230.903 99.3397 231.006 99.797 231.006ZM108.752 232.126C108.033 232.126 107.38 231.963 106.792 231.636C106.213 231.309 105.756 230.847 105.42 230.25C105.093 229.643 104.93 228.943 104.93 228.15C104.93 227.366 105.098 226.675 105.434 226.078C105.779 225.471 106.246 225.009 106.834 224.692C107.422 224.365 108.08 224.202 108.808 224.202C109.536 224.202 110.194 224.365 110.782 224.692C111.37 225.009 111.832 225.467 112.168 226.064C112.513 226.661 112.686 227.357 112.686 228.15C112.686 228.943 112.509 229.643 112.154 230.25C111.809 230.847 111.337 231.309 110.74 231.636C110.143 231.963 109.48 232.126 108.752 232.126ZM108.752 231.006C109.209 231.006 109.639 230.899 110.04 230.684C110.441 230.469 110.763 230.147 111.006 229.718C111.258 229.289 111.384 228.766 111.384 228.15C111.384 227.534 111.263 227.011 111.02 226.582C110.777 226.153 110.46 225.835 110.068 225.63C109.676 225.415 109.251 225.308 108.794 225.308C108.327 225.308 107.898 225.415 107.506 225.63C107.123 225.835 106.815 226.153 106.582 226.582C106.349 227.011 106.232 227.534 106.232 228.15C106.232 228.775 106.344 229.303 106.568 229.732C106.801 230.161 107.109 230.483 107.492 230.698C107.875 230.903 108.295 231.006 108.752 231.006ZM115.635 225.574C115.859 225.135 116.177 224.795 116.587 224.552C117.007 224.309 117.516 224.188 118.113 224.188V225.504H117.777C116.349 225.504 115.635 226.279 115.635 227.828V232H114.361V224.328H115.635V225.574Z" fill="white"/>
<path d="M148.172 133.098C147.528 133.098 146.949 132.986 146.436 132.762C145.932 132.529 145.535 132.211 145.246 131.81C144.957 131.399 144.807 130.928 144.798 130.396H146.156C146.203 130.853 146.389 131.241 146.716 131.558C147.052 131.866 147.537 132.02 148.172 132.02C148.779 132.02 149.255 131.871 149.6 131.572C149.955 131.264 150.132 130.872 150.132 130.396C150.132 130.023 150.029 129.719 149.824 129.486C149.619 129.253 149.362 129.075 149.054 128.954C148.746 128.833 148.331 128.702 147.808 128.562C147.164 128.394 146.646 128.226 146.254 128.058C145.871 127.89 145.54 127.629 145.26 127.274C144.989 126.91 144.854 126.425 144.854 125.818C144.854 125.286 144.989 124.815 145.26 124.404C145.531 123.993 145.909 123.676 146.394 123.452C146.889 123.228 147.453 123.116 148.088 123.116C149.003 123.116 149.749 123.345 150.328 123.802C150.916 124.259 151.247 124.866 151.322 125.622H149.922C149.875 125.249 149.679 124.922 149.334 124.642C148.989 124.353 148.531 124.208 147.962 124.208C147.43 124.208 146.996 124.348 146.66 124.628C146.324 124.899 146.156 125.281 146.156 125.776C146.156 126.131 146.254 126.42 146.45 126.644C146.655 126.868 146.903 127.041 147.192 127.162C147.491 127.274 147.906 127.405 148.438 127.554C149.082 127.731 149.6 127.909 149.992 128.086C150.384 128.254 150.72 128.52 151 128.884C151.28 129.239 151.42 129.724 151.42 130.34C151.42 130.816 151.294 131.264 151.042 131.684C150.79 132.104 150.417 132.445 149.922 132.706C149.427 132.967 148.844 133.098 148.172 133.098ZM157.103 125.188C157.681 125.188 158.204 125.314 158.671 125.566C159.137 125.809 159.501 126.177 159.763 126.672C160.033 127.167 160.169 127.769 160.169 128.478V133H158.909V128.66C158.909 127.895 158.717 127.311 158.335 126.91C157.952 126.499 157.429 126.294 156.767 126.294C156.095 126.294 155.558 126.504 155.157 126.924C154.765 127.344 154.569 127.955 154.569 128.758V133H153.295V122.64H154.569V126.42C154.821 126.028 155.166 125.725 155.605 125.51C156.053 125.295 156.552 125.188 157.103 125.188ZM165.596 133.126C164.877 133.126 164.224 132.963 163.636 132.636C163.057 132.309 162.6 131.847 162.264 131.25C161.937 130.643 161.774 129.943 161.774 129.15C161.774 128.366 161.942 127.675 162.278 127.078C162.623 126.471 163.09 126.009 163.678 125.692C164.266 125.365 164.924 125.202 165.652 125.202C166.38 125.202 167.038 125.365 167.626 125.692C168.214 126.009 168.676 126.467 169.012 127.064C169.357 127.661 169.53 128.357 169.53 129.15C169.53 129.943 169.353 130.643 168.998 131.25C168.653 131.847 168.181 132.309 167.584 132.636C166.987 132.963 166.324 133.126 165.596 133.126ZM165.596 132.006C166.053 132.006 166.483 131.899 166.884 131.684C167.285 131.469 167.607 131.147 167.85 130.718C168.102 130.289 168.228 129.766 168.228 129.15C168.228 128.534 168.107 128.011 167.864 127.582C167.621 127.153 167.304 126.835 166.912 126.63C166.52 126.415 166.095 126.308 165.638 126.308C165.171 126.308 164.742 126.415 164.35 126.63C163.967 126.835 163.659 127.153 163.426 127.582C163.193 128.011 163.076 128.534 163.076 129.15C163.076 129.775 163.188 130.303 163.412 130.732C163.645 131.161 163.953 131.483 164.336 131.698C164.719 131.903 165.139 132.006 165.596 132.006ZM172.479 126.742C172.731 126.303 173.104 125.939 173.599 125.65C174.103 125.351 174.686 125.202 175.349 125.202C176.03 125.202 176.646 125.365 177.197 125.692C177.757 126.019 178.196 126.481 178.513 127.078C178.83 127.666 178.989 128.352 178.989 129.136C178.989 129.911 178.83 130.601 178.513 131.208C178.196 131.815 177.757 132.286 177.197 132.622C176.646 132.958 176.03 133.126 175.349 133.126C174.696 133.126 174.117 132.981 173.613 132.692C173.118 132.393 172.74 132.025 172.479 131.586V136.64H171.205V125.328H172.479V126.742ZM177.687 129.136C177.687 128.557 177.57 128.053 177.337 127.624C177.104 127.195 176.786 126.868 176.385 126.644C175.993 126.42 175.559 126.308 175.083 126.308C174.616 126.308 174.182 126.425 173.781 126.658C173.389 126.882 173.072 127.213 172.829 127.652C172.596 128.081 172.479 128.581 172.479 129.15C172.479 129.729 172.596 130.237 172.829 130.676C173.072 131.105 173.389 131.437 173.781 131.67C174.182 131.894 174.616 132.006 175.083 132.006C175.559 132.006 175.993 131.894 176.385 131.67C176.786 131.437 177.104 131.105 177.337 130.676C177.57 130.237 177.687 129.724 177.687 129.136ZM187.52 126.378H185.91V133H184.636V126.378H183.642V125.328H184.636V124.782C184.636 123.923 184.856 123.298 185.294 122.906C185.742 122.505 186.456 122.304 187.436 122.304V123.368C186.876 123.368 186.48 123.48 186.246 123.704C186.022 123.919 185.91 124.278 185.91 124.782V125.328H187.52V126.378ZM190.28 122.64V133H189.006V122.64H190.28ZM195.797 133.126C195.078 133.126 194.425 132.963 193.837 132.636C193.258 132.309 192.801 131.847 192.465 131.25C192.138 130.643 191.975 129.943 191.975 129.15C191.975 128.366 192.143 127.675 192.479 127.078C192.824 126.471 193.291 126.009 193.879 125.692C194.467 125.365 195.125 125.202 195.853 125.202C196.581 125.202 197.239 125.365 197.827 125.692C198.415 126.009 198.877 126.467 199.213 127.064C199.558 127.661 199.731 128.357 199.731 129.15C199.731 129.943 199.554 130.643 199.199 131.25C198.854 131.847 198.382 132.309 197.785 132.636C197.188 132.963 196.525 133.126 195.797 133.126ZM195.797 132.006C196.254 132.006 196.684 131.899 197.085 131.684C197.486 131.469 197.808 131.147 198.051 130.718C198.303 130.289 198.429 129.766 198.429 129.15C198.429 128.534 198.308 128.011 198.065 127.582C197.822 127.153 197.505 126.835 197.113 126.63C196.721 126.415 196.296 126.308 195.839 126.308C195.372 126.308 194.943 126.415 194.551 126.63C194.168 126.835 193.86 127.153 193.627 127.582C193.394 128.011 193.277 128.534 193.277 129.15C193.277 129.775 193.389 130.303 193.613 130.732C193.846 131.161 194.154 131.483 194.537 131.698C194.92 131.903 195.34 132.006 195.797 132.006ZM204.752 133.126C204.033 133.126 203.38 132.963 202.792 132.636C202.213 132.309 201.756 131.847 201.42 131.25C201.093 130.643 200.93 129.943 200.93 129.15C200.93 128.366 201.098 127.675 201.434 127.078C201.779 126.471 202.246 126.009 202.834 125.692C203.422 125.365 204.08 125.202 204.808 125.202C205.536 125.202 206.194 125.365 206.782 125.692C207.37 126.009 207.832 126.467 208.168 127.064C208.513 127.661 208.686 128.357 208.686 129.15C208.686 129.943 208.509 130.643 208.154 131.25C207.809 131.847 207.337 132.309 206.74 132.636C206.143 132.963 205.48 133.126 204.752 133.126ZM204.752 132.006C205.209 132.006 205.639 131.899 206.04 131.684C206.441 131.469 206.763 131.147 207.006 130.718C207.258 130.289 207.384 129.766 207.384 129.15C207.384 128.534 207.263 128.011 207.02 127.582C206.777 127.153 206.46 126.835 206.068 126.63C205.676 126.415 205.251 126.308 204.794 126.308C204.327 126.308 203.898 126.415 203.506 126.63C203.123 126.835 202.815 127.153 202.582 127.582C202.349 128.011 202.232 128.534 202.232 129.15C202.232 129.775 202.344 130.303 202.568 130.732C202.801 131.161 203.109 131.483 203.492 131.698C203.875 131.903 204.295 132.006 204.752 132.006ZM211.635 126.574C211.859 126.135 212.177 125.795 212.587 125.552C213.007 125.309 213.516 125.188 214.113 125.188V126.504H213.777C212.349 126.504 211.635 127.279 211.635 128.828V133H210.361V125.328H211.635V126.574ZM150.846 148.83H146.59L145.806 151H144.462L147.99 141.298H149.46L152.974 151H151.63L150.846 148.83ZM150.482 147.794L148.718 142.866L146.954 147.794H150.482ZM161.316 143.328V151H160.042V149.866C159.799 150.258 159.458 150.566 159.02 150.79C158.59 151.005 158.114 151.112 157.592 151.112C156.994 151.112 156.458 150.991 155.982 150.748C155.506 150.496 155.128 150.123 154.848 149.628C154.577 149.133 154.442 148.531 154.442 147.822V143.328H155.702V147.654C155.702 148.41 155.893 148.993 156.276 149.404C156.658 149.805 157.181 150.006 157.844 150.006C158.525 150.006 159.062 149.796 159.454 149.376C159.846 148.956 160.042 148.345 160.042 147.542V143.328H161.316ZM165.021 144.378V148.9C165.021 149.273 165.1 149.539 165.259 149.698C165.417 149.847 165.693 149.922 166.085 149.922H167.023V151H165.875C165.165 151 164.633 150.837 164.279 150.51C163.924 150.183 163.747 149.647 163.747 148.9V144.378H162.753V143.328H163.747V141.396H165.021V143.328H167.023V144.378H165.021ZM171.912 151.126C171.194 151.126 170.54 150.963 169.952 150.636C169.374 150.309 168.916 149.847 168.58 149.25C168.254 148.643 168.09 147.943 168.09 147.15C168.09 146.366 168.258 145.675 168.594 145.078C168.94 144.471 169.406 144.009 169.994 143.692C170.582 143.365 171.24 143.202 171.968 143.202C172.696 143.202 173.354 143.365 173.942 143.692C174.53 144.009 174.992 144.467 175.328 145.064C175.674 145.661 175.846 146.357 175.846 147.15C175.846 147.943 175.669 148.643 175.314 149.25C174.969 149.847 174.498 150.309 173.9 150.636C173.303 150.963 172.64 151.126 171.912 151.126ZM171.912 150.006C172.37 150.006 172.799 149.899 173.2 149.684C173.602 149.469 173.924 149.147 174.166 148.718C174.418 148.289 174.544 147.766 174.544 147.15C174.544 146.534 174.423 146.011 174.18 145.582C173.938 145.153 173.62 144.835 173.228 144.63C172.836 144.415 172.412 144.308 171.954 144.308C171.488 144.308 171.058 144.415 170.666 144.63C170.284 144.835 169.976 145.153 169.742 145.582C169.509 146.011 169.392 146.534 169.392 147.15C169.392 147.775 169.504 148.303 169.728 148.732C169.962 149.161 170.27 149.483 170.652 149.698C171.035 149.903 171.455 150.006 171.912 150.006ZM186.747 143.188C187.345 143.188 187.877 143.314 188.343 143.566C188.81 143.809 189.179 144.177 189.449 144.672C189.72 145.167 189.855 145.769 189.855 146.478V151H188.595V146.66C188.595 145.895 188.404 145.311 188.021 144.91C187.648 144.499 187.139 144.294 186.495 144.294C185.833 144.294 185.305 144.509 184.913 144.938C184.521 145.358 184.325 145.969 184.325 146.772V151H183.065V146.66C183.065 145.895 182.874 145.311 182.491 144.91C182.118 144.499 181.609 144.294 180.965 144.294C180.303 144.294 179.775 144.509 179.383 144.938C178.991 145.358 178.795 145.969 178.795 146.772V151H177.521V143.328H178.795V144.434C179.047 144.033 179.383 143.725 179.803 143.51C180.233 143.295 180.704 143.188 181.217 143.188C181.861 143.188 182.431 143.333 182.925 143.622C183.42 143.911 183.789 144.336 184.031 144.896C184.246 144.355 184.601 143.935 185.095 143.636C185.59 143.337 186.141 143.188 186.747 143.188ZM191.469 147.136C191.469 146.352 191.628 145.666 191.945 145.078C192.263 144.481 192.697 144.019 193.247 143.692C193.807 143.365 194.428 143.202 195.109 143.202C195.781 143.202 196.365 143.347 196.859 143.636C197.354 143.925 197.723 144.289 197.965 144.728V143.328H199.253V151H197.965V149.572C197.713 150.02 197.335 150.393 196.831 150.692C196.337 150.981 195.758 151.126 195.095 151.126C194.414 151.126 193.798 150.958 193.247 150.622C192.697 150.286 192.263 149.815 191.945 149.208C191.628 148.601 191.469 147.911 191.469 147.136ZM197.965 147.15C197.965 146.571 197.849 146.067 197.615 145.638C197.382 145.209 197.065 144.882 196.663 144.658C196.271 144.425 195.837 144.308 195.361 144.308C194.885 144.308 194.451 144.42 194.059 144.644C193.667 144.868 193.355 145.195 193.121 145.624C192.888 146.053 192.771 146.557 192.771 147.136C192.771 147.724 192.888 148.237 193.121 148.676C193.355 149.105 193.667 149.437 194.059 149.67C194.451 149.894 194.885 150.006 195.361 150.006C195.837 150.006 196.271 149.894 196.663 149.67C197.065 149.437 197.382 149.105 197.615 148.676C197.849 148.237 197.965 147.729 197.965 147.15ZM202.96 144.378V148.9C202.96 149.273 203.039 149.539 203.198 149.698C203.357 149.847 203.632 149.922 204.024 149.922H204.962V151H203.814C203.105 151 202.573 150.837 202.218 150.51C201.863 150.183 201.686 149.647 201.686 148.9V144.378H200.692V143.328H201.686V141.396H202.96V143.328H204.962V144.378H202.96ZM207.164 142.082C206.921 142.082 206.716 141.998 206.548 141.83C206.38 141.662 206.296 141.457 206.296 141.214C206.296 140.971 206.38 140.766 206.548 140.598C206.716 140.43 206.921 140.346 207.164 140.346C207.397 140.346 207.593 140.43 207.752 140.598C207.92 140.766 208.004 140.971 208.004 141.214C208.004 141.457 207.92 141.662 207.752 141.83C207.593 141.998 207.397 142.082 207.164 142.082ZM207.78 143.328V151H206.506V143.328H207.78ZM213.297 151.126C212.578 151.126 211.925 150.963 211.337 150.636C210.758 150.309 210.301 149.847 209.965 149.25C209.638 148.643 209.475 147.943 209.475 147.15C209.475 146.366 209.643 145.675 209.979 145.078C210.324 144.471 210.791 144.009 211.379 143.692C211.967 143.365 212.625 143.202 213.353 143.202C214.081 143.202 214.739 143.365 215.327 143.692C215.915 144.009 216.377 144.467 216.713 145.064C217.058 145.661 217.231 146.357 217.231 147.15C217.231 147.943 217.054 148.643 216.699 149.25C216.354 149.847 215.882 150.309 215.285 150.636C214.688 150.963 214.025 151.126 213.297 151.126ZM213.297 150.006C213.754 150.006 214.184 149.899 214.585 149.684C214.986 149.469 215.308 149.147 215.551 148.718C215.803 148.289 215.929 147.766 215.929 147.15C215.929 146.534 215.808 146.011 215.565 145.582C215.322 145.153 215.005 144.835 214.613 144.63C214.221 144.415 213.796 144.308 213.339 144.308C212.872 144.308 212.443 144.415 212.051 144.63C211.668 144.835 211.36 145.153 211.127 145.582C210.894 146.011 210.777 146.534 210.777 147.15C210.777 147.775 210.889 148.303 211.113 148.732C211.346 149.161 211.654 149.483 212.037 149.698C212.42 149.903 212.84 150.006 213.297 150.006ZM222.644 143.188C223.577 143.188 224.333 143.473 224.912 144.042C225.491 144.602 225.78 145.414 225.78 146.478V151H224.52V146.66C224.52 145.895 224.329 145.311 223.946 144.91C223.563 144.499 223.041 144.294 222.378 144.294C221.706 144.294 221.169 144.504 220.768 144.924C220.376 145.344 220.18 145.955 220.18 146.758V151H218.906V143.328H220.18V144.42C220.432 144.028 220.773 143.725 221.202 143.51C221.641 143.295 222.121 143.188 222.644 143.188Z" fill="white"/>
<path d="M255.768 55.112C255.032 55.112 254.371 54.984 253.784 54.728C253.208 54.4613 252.755 54.0987 252.424 53.64C252.093 53.1707 251.923 52.632 251.912 52.024H253.464C253.517 52.5467 253.731 52.9893 254.104 53.352C254.488 53.704 255.043 53.88 255.768 53.88C256.461 53.88 257.005 53.7093 257.4 53.368C257.805 53.016 258.008 52.568 258.008 52.024C258.008 51.5973 257.891 51.2507 257.656 50.984C257.421 50.7173 257.128 50.5147 256.776 50.376C256.424 50.2373 255.949 50.088 255.352 49.928C254.616 49.736 254.024 49.544 253.576 49.352C253.139 49.16 252.76 48.8613 252.44 48.456C252.131 48.04 251.976 47.4853 251.976 46.792C251.976 46.184 252.131 45.6453 252.44 45.176C252.749 44.7067 253.181 44.344 253.736 44.088C254.301 43.832 254.947 43.704 255.672 43.704C256.717 43.704 257.571 43.9653 258.232 44.488C258.904 45.0107 259.283 45.704 259.368 46.568H257.768C257.715 46.1413 257.491 45.768 257.096 45.448C256.701 45.1173 256.179 44.952 255.528 44.952C254.92 44.952 254.424 45.112 254.04 45.432C253.656 45.7413 253.464 46.1787 253.464 46.744C253.464 47.1493 253.576 47.48 253.8 47.736C254.035 47.992 254.317 48.1893 254.648 48.328C254.989 48.456 255.464 48.6053 256.072 48.776C256.808 48.9787 257.4 49.1813 257.848 49.384C258.296 49.576 258.68 49.88 259 50.296C259.32 50.7013 259.48 51.256 259.48 51.96C259.48 52.504 259.336 53.016 259.048 53.496C258.76 53.976 258.333 54.3653 257.768 54.664C257.203 54.9627 256.536 55.112 255.768 55.112ZM263.079 43.848V55H261.623V43.848H263.079ZM271.432 55L268.776 50.44H267.016V55H265.56V43.848H269.16C270.003 43.848 270.712 43.992 271.288 44.28C271.875 44.568 272.312 44.9573 272.6 45.448C272.888 45.9387 273.032 46.4987 273.032 47.128C273.032 47.896 272.808 48.5733 272.36 49.16C271.923 49.7467 271.261 50.136 270.376 50.328L273.176 55H271.432ZM267.016 49.272H269.16C269.949 49.272 270.541 49.08 270.936 48.696C271.331 48.3013 271.528 47.7787 271.528 47.128C271.528 46.4667 271.331 45.9547 270.936 45.592C270.552 45.2293 269.96 45.048 269.16 45.048H267.016V49.272ZM276.751 43.848V55H275.295V43.848H276.751ZM294.81 43.928V55H293.354V46.744L289.674 55H288.65L284.954 46.728V55H283.498V43.928H285.066L289.162 53.08L293.258 43.928H294.81ZM296.735 50.584C296.735 49.688 296.916 48.904 297.279 48.232C297.642 47.5493 298.138 47.0213 298.767 46.648C299.407 46.2747 300.116 46.088 300.895 46.088C301.663 46.088 302.33 46.2533 302.895 46.584C303.46 46.9147 303.882 47.3307 304.159 47.832V46.232H305.631V55H304.159V53.368C303.871 53.88 303.439 54.3067 302.863 54.648C302.298 54.9787 301.636 55.144 300.879 55.144C300.1 55.144 299.396 54.952 298.767 54.568C298.138 54.184 297.642 53.6453 297.279 52.952C296.916 52.2587 296.735 51.4693 296.735 50.584ZM304.159 50.6C304.159 49.9387 304.026 49.3627 303.759 48.872C303.492 48.3813 303.13 48.008 302.671 47.752C302.223 47.4853 301.727 47.352 301.183 47.352C300.639 47.352 300.143 47.48 299.695 47.736C299.247 47.992 298.89 48.3653 298.623 48.856C298.356 49.3467 298.223 49.9227 298.223 50.584C298.223 51.256 298.356 51.8427 298.623 52.344C298.89 52.8347 299.247 53.2133 299.695 53.48C300.143 53.736 300.639 53.864 301.183 53.864C301.727 53.864 302.223 53.736 302.671 53.48C303.13 53.2133 303.492 52.8347 303.759 52.344C304.026 51.8427 304.159 51.2613 304.159 50.6ZM309.867 47.432V52.6C309.867 53.0267 309.958 53.3307 310.139 53.512C310.321 53.6827 310.635 53.768 311.083 53.768H312.155V55H310.843C310.033 55 309.425 54.8133 309.019 54.44C308.614 54.0667 308.411 53.4533 308.411 52.6V47.432H307.275V46.232H308.411V44.024H309.867V46.232H312.155V47.432H309.867ZM321.696 46.232V55H320.24V53.704C319.962 54.152 319.573 54.504 319.072 54.76C318.581 55.0053 318.037 55.128 317.44 55.128C316.757 55.128 316.144 54.9893 315.6 54.712C315.056 54.424 314.624 53.9973 314.304 53.432C313.994 52.8667 313.84 52.1787 313.84 51.368V46.232H315.28V51.176C315.28 52.04 315.498 52.7067 315.936 53.176C316.373 53.6347 316.97 53.864 317.728 53.864C318.506 53.864 319.12 53.624 319.568 53.144C320.016 52.664 320.24 51.9653 320.24 51.048V46.232H321.696ZM325.61 47.656C325.866 47.1547 326.229 46.7653 326.698 46.488C327.178 46.2107 327.759 46.072 328.442 46.072V47.576H328.058C326.426 47.576 325.61 48.4613 325.61 50.232V55H324.154V46.232H325.61V47.656ZM330.875 44.808C330.597 44.808 330.363 44.712 330.171 44.52C329.979 44.328 329.883 44.0933 329.883 43.816C329.883 43.5387 329.979 43.304 330.171 43.112C330.363 42.92 330.597 42.824 330.875 42.824C331.141 42.824 331.365 42.92 331.547 43.112C331.739 43.304 331.835 43.5387 331.835 43.816C331.835 44.0933 331.739 44.328 331.547 44.52C331.365 44.712 331.141 44.808 330.875 44.808ZM331.579 46.232V55H330.123V46.232H331.579ZM335.836 47.432V52.6C335.836 53.0267 335.927 53.3307 336.108 53.512C336.289 53.6827 336.604 53.768 337.052 53.768H338.124V55H336.812C336.001 55 335.393 54.8133 334.988 54.44C334.583 54.0667 334.38 53.4533 334.38 52.6V47.432H333.244V46.232H334.38V44.024H335.836V46.232H338.124V47.432H335.836ZM347.44 46.232L342.16 59.128H340.656L342.384 54.904L338.848 46.232H340.464L343.216 53.336L345.936 46.232H347.44ZM358.754 49.256C359.159 49.32 359.527 49.4853 359.858 49.752C360.199 50.0187 360.466 50.3493 360.658 50.744C360.86 51.1387 360.962 51.56 360.962 52.008C360.962 52.5733 360.818 53.0853 360.53 53.544C360.242 53.992 359.82 54.3493 359.266 54.616C358.722 54.872 358.076 55 357.33 55H353.17V43.848H357.17C357.927 43.848 358.572 43.976 359.106 44.232C359.639 44.4773 360.039 44.8133 360.306 45.24C360.572 45.6667 360.706 46.1467 360.706 46.68C360.706 47.3413 360.524 47.8907 360.161 48.328C359.81 48.7547 359.34 49.064 358.754 49.256ZM354.626 48.664H357.074C357.756 48.664 358.284 48.504 358.658 48.184C359.031 47.864 359.218 47.4213 359.218 46.856C359.218 46.2907 359.031 45.848 358.658 45.528C358.284 45.208 357.746 45.048 357.042 45.048H354.626V48.664ZM357.202 53.8C357.927 53.8 358.492 53.6293 358.898 53.288C359.303 52.9467 359.506 52.472 359.506 51.864C359.506 51.2453 359.292 50.76 358.866 50.408C358.439 50.0453 357.868 49.864 357.154 49.864H354.626V53.8H357.202ZM362.438 50.584C362.438 49.688 362.619 48.904 362.982 48.232C363.345 47.5493 363.841 47.0213 364.47 46.648C365.11 46.2747 365.819 46.088 366.598 46.088C367.366 46.088 368.033 46.2533 368.598 46.584C369.163 46.9147 369.585 47.3307 369.862 47.832V46.232H371.334V55H369.862V53.368C369.574 53.88 369.142 54.3067 368.566 54.648C368.001 54.9787 367.339 55.144 366.582 55.144C365.803 55.144 365.099 54.952 364.47 54.568C363.841 54.184 363.345 53.6453 362.982 52.952C362.619 52.2587 362.438 51.4693 362.438 50.584ZM369.862 50.6C369.862 49.9387 369.729 49.3627 369.462 48.872C369.195 48.3813 368.833 48.008 368.374 47.752C367.926 47.4853 367.43 47.352 366.886 47.352C366.342 47.352 365.846 47.48 365.398 47.736C364.95 47.992 364.593 48.3653 364.326 48.856C364.059 49.3467 363.926 49.9227 363.926 50.584C363.926 51.256 364.059 51.8427 364.326 52.344C364.593 52.8347 364.95 53.2133 365.398 53.48C365.846 53.736 366.342 53.864 366.886 53.864C367.43 53.864 367.926 53.736 368.374 53.48C368.833 53.2133 369.195 52.8347 369.462 52.344C369.729 51.8427 369.862 51.2613 369.862 50.6ZM378.067 46.072C379.133 46.072 379.997 46.3973 380.659 47.048C381.32 47.688 381.651 48.616 381.651 49.832V55H380.211V50.04C380.211 49.1653 379.992 48.4987 379.555 48.04C379.117 47.5707 378.52 47.336 377.763 47.336C376.995 47.336 376.381 47.576 375.923 48.056C375.475 48.536 375.251 49.2347 375.251 50.152V55H373.795V46.232H375.251V47.48C375.539 47.032 375.928 46.6853 376.419 46.44C376.92 46.1947 377.469 46.072 378.067 46.072ZM383.485 50.584C383.485 49.688 383.666 48.904 384.029 48.232C384.392 47.5493 384.888 47.0213 385.517 46.648C386.157 46.2747 386.872 46.088 387.661 46.088C388.344 46.088 388.978 46.248 389.565 46.568C390.152 46.8773 390.6 47.288 390.909 47.8V43.16H392.381V55H390.909V53.352C390.621 53.8747 390.194 54.3067 389.629 54.648C389.064 54.9787 388.402 55.144 387.645 55.144C386.866 55.144 386.157 54.952 385.517 54.568C384.888 54.184 384.392 53.6453 384.029 52.952C383.666 52.2587 383.485 51.4693 383.485 50.584ZM390.909 50.6C390.909 49.9387 390.776 49.3627 390.509 48.872C390.242 48.3813 389.88 48.008 389.421 47.752C388.973 47.4853 388.477 47.352 387.933 47.352C387.389 47.352 386.893 47.48 386.445 47.736C385.997 47.992 385.64 48.3653 385.373 48.856C385.106 49.3467 384.973 49.9227 384.973 50.584C384.973 51.256 385.106 51.8427 385.373 52.344C385.64 52.8347 385.997 53.2133 386.445 53.48C386.893 53.736 387.389 53.864 387.933 53.864C388.477 53.864 388.973 53.736 389.421 53.48C389.88 53.2133 390.242 52.8347 390.509 52.344C390.776 51.8427 390.909 51.2613 390.909 50.6Z" fill="white"/>
<path d="M148.172 218.098C147.528 218.098 146.949 217.986 146.436 217.762C145.932 217.529 145.535 217.211 145.246 216.81C144.957 216.399 144.807 215.928 144.798 215.396H146.156C146.203 215.853 146.389 216.241 146.716 216.558C147.052 216.866 147.537 217.02 148.172 217.02C148.779 217.02 149.255 216.871 149.6 216.572C149.955 216.264 150.132 215.872 150.132 215.396C150.132 215.023 150.029 214.719 149.824 214.486C149.619 214.253 149.362 214.075 149.054 213.954C148.746 213.833 148.331 213.702 147.808 213.562C147.164 213.394 146.646 213.226 146.254 213.058C145.871 212.89 145.54 212.629 145.26 212.274C144.989 211.91 144.854 211.425 144.854 210.818C144.854 210.286 144.989 209.815 145.26 209.404C145.531 208.993 145.909 208.676 146.394 208.452C146.889 208.228 147.453 208.116 148.088 208.116C149.003 208.116 149.749 208.345 150.328 208.802C150.916 209.259 151.247 209.866 151.322 210.622H149.922C149.875 210.249 149.679 209.922 149.334 209.642C148.989 209.353 148.531 209.208 147.962 209.208C147.43 209.208 146.996 209.348 146.66 209.628C146.324 209.899 146.156 210.281 146.156 210.776C146.156 211.131 146.254 211.42 146.45 211.644C146.655 211.868 146.903 212.041 147.192 212.162C147.491 212.274 147.906 212.405 148.438 212.554C149.082 212.731 149.6 212.909 149.992 213.086C150.384 213.254 150.72 213.52 151 213.884C151.28 214.239 151.42 214.724 151.42 215.34C151.42 215.816 151.294 216.264 151.042 216.684C150.79 217.104 150.417 217.445 149.922 217.706C149.427 217.967 148.844 218.098 148.172 218.098ZM157.103 210.188C157.681 210.188 158.204 210.314 158.671 210.566C159.137 210.809 159.501 211.177 159.763 211.672C160.033 212.167 160.169 212.769 160.169 213.478V218H158.909V213.66C158.909 212.895 158.717 212.311 158.335 211.91C157.952 211.499 157.429 211.294 156.767 211.294C156.095 211.294 155.558 211.504 155.157 211.924C154.765 212.344 154.569 212.955 154.569 213.758V218H153.295V207.64H154.569V211.42C154.821 211.028 155.166 210.725 155.605 210.51C156.053 210.295 156.552 210.188 157.103 210.188ZM165.596 218.126C164.877 218.126 164.224 217.963 163.636 217.636C163.057 217.309 162.6 216.847 162.264 216.25C161.937 215.643 161.774 214.943 161.774 214.15C161.774 213.366 161.942 212.675 162.278 212.078C162.623 211.471 163.09 211.009 163.678 210.692C164.266 210.365 164.924 210.202 165.652 210.202C166.38 210.202 167.038 210.365 167.626 210.692C168.214 211.009 168.676 211.467 169.012 212.064C169.357 212.661 169.53 213.357 169.53 214.15C169.53 214.943 169.353 215.643 168.998 216.25C168.653 216.847 168.181 217.309 167.584 217.636C166.987 217.963 166.324 218.126 165.596 218.126ZM165.596 217.006C166.053 217.006 166.483 216.899 166.884 216.684C167.285 216.469 167.607 216.147 167.85 215.718C168.102 215.289 168.228 214.766 168.228 214.15C168.228 213.534 168.107 213.011 167.864 212.582C167.621 212.153 167.304 211.835 166.912 211.63C166.52 211.415 166.095 211.308 165.638 211.308C165.171 211.308 164.742 211.415 164.35 211.63C163.967 211.835 163.659 212.153 163.426 212.582C163.193 213.011 163.076 213.534 163.076 214.15C163.076 214.775 163.188 215.303 163.412 215.732C163.645 216.161 163.953 216.483 164.336 216.698C164.719 216.903 165.139 217.006 165.596 217.006ZM172.479 211.742C172.731 211.303 173.104 210.939 173.599 210.65C174.103 210.351 174.686 210.202 175.349 210.202C176.03 210.202 176.646 210.365 177.197 210.692C177.757 211.019 178.196 211.481 178.513 212.078C178.83 212.666 178.989 213.352 178.989 214.136C178.989 214.911 178.83 215.601 178.513 216.208C178.196 216.815 177.757 217.286 177.197 217.622C176.646 217.958 176.03 218.126 175.349 218.126C174.696 218.126 174.117 217.981 173.613 217.692C173.118 217.393 172.74 217.025 172.479 216.586V221.64H171.205V210.328H172.479V211.742ZM177.687 214.136C177.687 213.557 177.57 213.053 177.337 212.624C177.104 212.195 176.786 211.868 176.385 211.644C175.993 211.42 175.559 211.308 175.083 211.308C174.616 211.308 174.182 211.425 173.781 211.658C173.389 211.882 173.072 212.213 172.829 212.652C172.596 213.081 172.479 213.581 172.479 214.15C172.479 214.729 172.596 215.237 172.829 215.676C173.072 216.105 173.389 216.437 173.781 216.67C174.182 216.894 174.616 217.006 175.083 217.006C175.559 217.006 175.993 216.894 176.385 216.67C176.786 216.437 177.104 216.105 177.337 215.676C177.57 215.237 177.687 214.724 177.687 214.136ZM187.52 211.378H185.91V218H184.636V211.378H183.642V210.328H184.636V209.782C184.636 208.923 184.856 208.298 185.294 207.906C185.742 207.505 186.456 207.304 187.436 207.304V208.368C186.876 208.368 186.48 208.48 186.246 208.704C186.022 208.919 185.91 209.278 185.91 209.782V210.328H187.52V211.378ZM190.28 207.64V218H189.006V207.64H190.28ZM195.797 218.126C195.078 218.126 194.425 217.963 193.837 217.636C193.258 217.309 192.801 216.847 192.465 216.25C192.138 215.643 191.975 214.943 191.975 214.15C191.975 213.366 192.143 212.675 192.479 212.078C192.824 211.471 193.291 211.009 193.879 210.692C194.467 210.365 195.125 210.202 195.853 210.202C196.581 210.202 197.239 210.365 197.827 210.692C198.415 211.009 198.877 211.467 199.213 212.064C199.558 212.661 199.731 213.357 199.731 214.15C199.731 214.943 199.554 215.643 199.199 216.25C198.854 216.847 198.382 217.309 197.785 217.636C197.188 217.963 196.525 218.126 195.797 218.126ZM195.797 217.006C196.254 217.006 196.684 216.899 197.085 216.684C197.486 216.469 197.808 216.147 198.051 215.718C198.303 215.289 198.429 214.766 198.429 214.15C198.429 213.534 198.308 213.011 198.065 212.582C197.822 212.153 197.505 211.835 197.113 211.63C196.721 211.415 196.296 211.308 195.839 211.308C195.372 211.308 194.943 211.415 194.551 211.63C194.168 211.835 193.86 212.153 193.627 212.582C193.394 213.011 193.277 213.534 193.277 214.15C193.277 214.775 193.389 215.303 193.613 215.732C193.846 216.161 194.154 216.483 194.537 216.698C194.92 216.903 195.34 217.006 195.797 217.006ZM204.752 218.126C204.033 218.126 203.38 217.963 202.792 217.636C202.213 217.309 201.756 216.847 201.42 216.25C201.093 215.643 200.93 214.943 200.93 214.15C200.93 213.366 201.098 212.675 201.434 212.078C201.779 211.471 202.246 211.009 202.834 210.692C203.422 210.365 204.08 210.202 204.808 210.202C205.536 210.202 206.194 210.365 206.782 210.692C207.37 211.009 207.832 211.467 208.168 212.064C208.513 212.661 208.686 213.357 208.686 214.15C208.686 214.943 208.509 215.643 208.154 216.25C207.809 216.847 207.337 217.309 206.74 217.636C206.143 217.963 205.48 218.126 204.752 218.126ZM204.752 217.006C205.209 217.006 205.639 216.899 206.04 216.684C206.441 216.469 206.763 216.147 207.006 215.718C207.258 215.289 207.384 214.766 207.384 214.15C207.384 213.534 207.263 213.011 207.02 212.582C206.777 212.153 206.46 211.835 206.068 211.63C205.676 211.415 205.251 211.308 204.794 211.308C204.327 211.308 203.898 211.415 203.506 211.63C203.123 211.835 202.815 212.153 202.582 212.582C202.349 213.011 202.232 213.534 202.232 214.15C202.232 214.775 202.344 215.303 202.568 215.732C202.801 216.161 203.109 216.483 203.492 216.698C203.875 216.903 204.295 217.006 204.752 217.006ZM211.635 211.574C211.859 211.135 212.177 210.795 212.587 210.552C213.007 210.309 213.516 210.188 214.113 210.188V211.504H213.777C212.349 211.504 211.635 212.279 211.635 213.828V218H210.361V210.328H211.635V211.574ZM144.602 231.114C144.602 230.162 144.817 229.308 145.246 228.552C145.675 227.787 146.259 227.189 146.996 226.76C147.743 226.331 148.569 226.116 149.474 226.116C150.538 226.116 151.467 226.373 152.26 226.886C153.053 227.399 153.632 228.127 153.996 229.07H152.47C152.199 228.482 151.807 228.029 151.294 227.712C150.79 227.395 150.183 227.236 149.474 227.236C148.793 227.236 148.181 227.395 147.64 227.712C147.099 228.029 146.674 228.482 146.366 229.07C146.058 229.649 145.904 230.33 145.904 231.114C145.904 231.889 146.058 232.57 146.366 233.158C146.674 233.737 147.099 234.185 147.64 234.502C148.181 234.819 148.793 234.978 149.474 234.978C150.183 234.978 150.79 234.824 151.294 234.516C151.807 234.199 152.199 233.746 152.47 233.158H153.996C153.632 234.091 153.053 234.815 152.26 235.328C151.467 235.832 150.538 236.084 149.474 236.084C148.569 236.084 147.743 235.874 146.996 235.454C146.259 235.025 145.675 234.432 145.246 233.676C144.817 232.92 144.602 232.066 144.602 231.114ZM159.238 236.126C158.52 236.126 157.866 235.963 157.278 235.636C156.7 235.309 156.242 234.847 155.906 234.25C155.58 233.643 155.416 232.943 155.416 232.15C155.416 231.366 155.584 230.675 155.92 230.078C156.266 229.471 156.732 229.009 157.32 228.692C157.908 228.365 158.566 228.202 159.294 228.202C160.022 228.202 160.68 228.365 161.268 228.692C161.856 229.009 162.318 229.467 162.654 230.064C163 230.661 163.172 231.357 163.172 232.15C163.172 232.943 162.995 233.643 162.64 234.25C162.295 234.847 161.824 235.309 161.226 235.636C160.629 235.963 159.966 236.126 159.238 236.126ZM159.238 235.006C159.696 235.006 160.125 234.899 160.526 234.684C160.928 234.469 161.25 234.147 161.492 233.718C161.744 233.289 161.87 232.766 161.87 232.15C161.87 231.534 161.749 231.011 161.506 230.582C161.264 230.153 160.946 229.835 160.554 229.63C160.162 229.415 159.738 229.308 159.28 229.308C158.814 229.308 158.384 229.415 157.992 229.63C157.61 229.835 157.302 230.153 157.068 230.582C156.835 231.011 156.718 231.534 156.718 232.15C156.718 232.775 156.83 233.303 157.054 233.732C157.288 234.161 157.596 234.483 157.978 234.698C158.361 234.903 158.781 235.006 159.238 235.006ZM168.586 228.188C169.519 228.188 170.275 228.473 170.854 229.042C171.432 229.602 171.722 230.414 171.722 231.478V236H170.462V231.66C170.462 230.895 170.27 230.311 169.888 229.91C169.505 229.499 168.982 229.294 168.32 229.294C167.648 229.294 167.111 229.504 166.71 229.924C166.318 230.344 166.122 230.955 166.122 231.758V236H164.848V228.328H166.122V229.42C166.374 229.028 166.714 228.725 167.144 228.51C167.582 228.295 168.063 228.188 168.586 228.188ZM177.541 228.188C178.474 228.188 179.23 228.473 179.809 229.042C180.387 229.602 180.677 230.414 180.677 231.478V236H179.417V231.66C179.417 230.895 179.225 230.311 178.843 229.91C178.46 229.499 177.937 229.294 177.275 229.294C176.603 229.294 176.066 229.504 175.665 229.924C175.273 230.344 175.077 230.955 175.077 231.758V236H173.803V228.328H175.077V229.42C175.329 229.028 175.669 228.725 176.099 228.51C176.537 228.295 177.018 228.188 177.541 228.188ZM189.758 231.87C189.758 232.113 189.744 232.369 189.716 232.64H183.584C183.63 233.396 183.887 233.989 184.354 234.418C184.83 234.838 185.404 235.048 186.076 235.048C186.626 235.048 187.084 234.922 187.448 234.67C187.821 234.409 188.082 234.063 188.232 233.634H189.604C189.398 234.371 188.988 234.973 188.372 235.44C187.756 235.897 186.99 236.126 186.076 236.126C185.348 236.126 184.694 235.963 184.116 235.636C183.546 235.309 183.098 234.847 182.772 234.25C182.445 233.643 182.282 232.943 182.282 232.15C182.282 231.357 182.44 230.661 182.758 230.064C183.075 229.467 183.518 229.009 184.088 228.692C184.666 228.365 185.329 228.202 186.076 228.202C186.804 228.202 187.448 228.361 188.008 228.678C188.568 228.995 188.997 229.434 189.296 229.994C189.604 230.545 189.758 231.17 189.758 231.87ZM188.442 231.604C188.442 231.119 188.334 230.703 188.12 230.358C187.905 230.003 187.611 229.737 187.238 229.56C186.874 229.373 186.468 229.28 186.02 229.28C185.376 229.28 184.825 229.485 184.368 229.896C183.92 230.307 183.663 230.876 183.598 231.604H188.442ZM190.963 232.15C190.963 231.357 191.122 230.666 191.439 230.078C191.757 229.481 192.195 229.019 192.755 228.692C193.325 228.365 193.973 228.202 194.701 228.202C195.644 228.202 196.419 228.431 197.025 228.888C197.641 229.345 198.047 229.98 198.243 230.792H196.871C196.741 230.325 196.484 229.957 196.101 229.686C195.728 229.415 195.261 229.28 194.701 229.28C193.973 229.28 193.385 229.532 192.937 230.036C192.489 230.531 192.265 231.235 192.265 232.15C192.265 233.074 192.489 233.788 192.937 234.292C193.385 234.796 193.973 235.048 194.701 235.048C195.261 235.048 195.728 234.917 196.101 234.656C196.475 234.395 196.731 234.021 196.871 233.536H198.243C198.038 234.32 197.627 234.95 197.011 235.426C196.395 235.893 195.625 236.126 194.701 236.126C193.973 236.126 193.325 235.963 192.755 235.636C192.195 235.309 191.757 234.847 191.439 234.25C191.122 233.653 190.963 232.953 190.963 232.15ZM201.497 229.378V233.9C201.497 234.273 201.577 234.539 201.735 234.698C201.894 234.847 202.169 234.922 202.561 234.922H203.499V236H202.351C201.642 236 201.11 235.837 200.755 235.51C200.401 235.183 200.223 234.647 200.223 233.9V229.378H199.229V228.328H200.223V226.396H201.497V228.328H203.499V229.378H201.497ZM205.701 227.082C205.458 227.082 205.253 226.998 205.085 226.83C204.917 226.662 204.833 226.457 204.833 226.214C204.833 225.971 204.917 225.766 205.085 225.598C205.253 225.43 205.458 225.346 205.701 225.346C205.934 225.346 206.13 225.43 206.289 225.598C206.457 225.766 206.541 225.971 206.541 226.214C206.541 226.457 206.457 226.662 206.289 226.83C206.13 226.998 205.934 227.082 205.701 227.082ZM206.317 228.328V236H205.043V228.328H206.317ZM211.344 234.824L213.724 228.328H215.082L212.072 236H210.588L207.578 228.328H208.95L211.344 234.824ZM216.994 227.082C216.751 227.082 216.546 226.998 216.378 226.83C216.21 226.662 216.126 226.457 216.126 226.214C216.126 225.971 216.21 225.766 216.378 225.598C216.546 225.43 216.751 225.346 216.994 225.346C217.227 225.346 217.423 225.43 217.582 225.598C217.75 225.766 217.834 225.971 217.834 226.214C217.834 226.457 217.75 226.662 217.582 226.83C217.423 226.998 217.227 227.082 216.994 227.082ZM217.61 228.328V236H216.336V228.328H217.61ZM221.335 229.378V233.9C221.335 234.273 221.414 234.539 221.573 234.698C221.732 234.847 222.007 234.922 222.399 234.922H223.337V236H222.189C221.48 236 220.948 235.837 220.593 235.51C220.238 235.183 220.061 234.647 220.061 233.9V229.378H219.067V228.328H220.061V226.396H221.335V228.328H223.337V229.378H221.335ZM231.489 228.328L226.869 239.612H225.553L227.065 235.916L223.971 228.328H225.385L227.793 234.544L230.173 228.328H231.489Z" fill="white"/>
<path d="M247 108.242L585 108.009" stroke="white"/>
<path d="M247 346.242L585 346.009" stroke="white"/>
<path d="M247 346L247 108" stroke="white"/>
<path d="M331.5 346L331.5 108" stroke="white"/>
<path d="M416 346L416 108" stroke="white"/>
<path d="M500.5 346L500.5 108" stroke="white"/>
<path d="M585 346L585 108" stroke="white"/>
<path d="M148.172 303.098C147.528 303.098 146.949 302.986 146.436 302.762C145.932 302.529 145.535 302.211 145.246 301.81C144.957 301.399 144.807 300.928 144.798 300.396H146.156C146.203 300.853 146.389 301.241 146.716 301.558C147.052 301.866 147.537 302.02 148.172 302.02C148.779 302.02 149.255 301.871 149.6 301.572C149.955 301.264 150.132 300.872 150.132 300.396C150.132 300.023 150.029 299.719 149.824 299.486C149.619 299.253 149.362 299.075 149.054 298.954C148.746 298.833 148.331 298.702 147.808 298.562C147.164 298.394 146.646 298.226 146.254 298.058C145.871 297.89 145.54 297.629 145.26 297.274C144.989 296.91 144.854 296.425 144.854 295.818C144.854 295.286 144.989 294.815 145.26 294.404C145.531 293.993 145.909 293.676 146.394 293.452C146.889 293.228 147.453 293.116 148.088 293.116C149.003 293.116 149.749 293.345 150.328 293.802C150.916 294.259 151.247 294.866 151.322 295.622H149.922C149.875 295.249 149.679 294.922 149.334 294.642C148.989 294.353 148.531 294.208 147.962 294.208C147.43 294.208 146.996 294.348 146.66 294.628C146.324 294.899 146.156 295.281 146.156 295.776C146.156 296.131 146.254 296.42 146.45 296.644C146.655 296.868 146.903 297.041 147.192 297.162C147.491 297.274 147.906 297.405 148.438 297.554C149.082 297.731 149.6 297.909 149.992 298.086C150.384 298.254 150.72 298.52 151 298.884C151.28 299.239 151.42 299.724 151.42 300.34C151.42 300.816 151.294 301.264 151.042 301.684C150.79 302.104 150.417 302.445 149.922 302.706C149.427 302.967 148.844 303.098 148.172 303.098ZM157.103 295.188C157.681 295.188 158.204 295.314 158.671 295.566C159.137 295.809 159.501 296.177 159.763 296.672C160.033 297.167 160.169 297.769 160.169 298.478V303H158.909V298.66C158.909 297.895 158.717 297.311 158.335 296.91C157.952 296.499 157.429 296.294 156.767 296.294C156.095 296.294 155.558 296.504 155.157 296.924C154.765 297.344 154.569 297.955 154.569 298.758V303H153.295V292.64H154.569V296.42C154.821 296.028 155.166 295.725 155.605 295.51C156.053 295.295 156.552 295.188 157.103 295.188ZM165.596 303.126C164.877 303.126 164.224 302.963 163.636 302.636C163.057 302.309 162.6 301.847 162.264 301.25C161.937 300.643 161.774 299.943 161.774 299.15C161.774 298.366 161.942 297.675 162.278 297.078C162.623 296.471 163.09 296.009 163.678 295.692C164.266 295.365 164.924 295.202 165.652 295.202C166.38 295.202 167.038 295.365 167.626 295.692C168.214 296.009 168.676 296.467 169.012 297.064C169.357 297.661 169.53 298.357 169.53 299.15C169.53 299.943 169.353 300.643 168.998 301.25C168.653 301.847 168.181 302.309 167.584 302.636C166.987 302.963 166.324 303.126 165.596 303.126ZM165.596 302.006C166.053 302.006 166.483 301.899 166.884 301.684C167.285 301.469 167.607 301.147 167.85 300.718C168.102 300.289 168.228 299.766 168.228 299.15C168.228 298.534 168.107 298.011 167.864 297.582C167.621 297.153 167.304 296.835 166.912 296.63C166.52 296.415 166.095 296.308 165.638 296.308C165.171 296.308 164.742 296.415 164.35 296.63C163.967 296.835 163.659 297.153 163.426 297.582C163.193 298.011 163.076 298.534 163.076 299.15C163.076 299.775 163.188 300.303 163.412 300.732C163.645 301.161 163.953 301.483 164.336 301.698C164.719 301.903 165.139 302.006 165.596 302.006ZM172.479 296.742C172.731 296.303 173.104 295.939 173.599 295.65C174.103 295.351 174.686 295.202 175.349 295.202C176.03 295.202 176.646 295.365 177.197 295.692C177.757 296.019 178.196 296.481 178.513 297.078C178.83 297.666 178.989 298.352 178.989 299.136C178.989 299.911 178.83 300.601 178.513 301.208C178.196 301.815 177.757 302.286 177.197 302.622C176.646 302.958 176.03 303.126 175.349 303.126C174.696 303.126 174.117 302.981 173.613 302.692C173.118 302.393 172.74 302.025 172.479 301.586V306.64H171.205V295.328H172.479V296.742ZM177.687 299.136C177.687 298.557 177.57 298.053 177.337 297.624C177.104 297.195 176.786 296.868 176.385 296.644C175.993 296.42 175.559 296.308 175.083 296.308C174.616 296.308 174.182 296.425 173.781 296.658C173.389 296.882 173.072 297.213 172.829 297.652C172.596 298.081 172.479 298.581 172.479 299.15C172.479 299.729 172.596 300.237 172.829 300.676C173.072 301.105 173.389 301.437 173.781 301.67C174.182 301.894 174.616 302.006 175.083 302.006C175.559 302.006 175.993 301.894 176.385 301.67C176.786 301.437 177.104 301.105 177.337 300.676C177.57 300.237 177.687 299.724 177.687 299.136ZM187.52 296.378H185.91V303H184.636V296.378H183.642V295.328H184.636V294.782C184.636 293.923 184.856 293.298 185.294 292.906C185.742 292.505 186.456 292.304 187.436 292.304V293.368C186.876 293.368 186.48 293.48 186.246 293.704C186.022 293.919 185.91 294.278 185.91 294.782V295.328H187.52V296.378ZM190.28 292.64V303H189.006V292.64H190.28ZM195.797 303.126C195.078 303.126 194.425 302.963 193.837 302.636C193.258 302.309 192.801 301.847 192.465 301.25C192.138 300.643 191.975 299.943 191.975 299.15C191.975 298.366 192.143 297.675 192.479 297.078C192.824 296.471 193.291 296.009 193.879 295.692C194.467 295.365 195.125 295.202 195.853 295.202C196.581 295.202 197.239 295.365 197.827 295.692C198.415 296.009 198.877 296.467 199.213 297.064C199.558 297.661 199.731 298.357 199.731 299.15C199.731 299.943 199.554 300.643 199.199 301.25C198.854 301.847 198.382 302.309 197.785 302.636C197.188 302.963 196.525 303.126 195.797 303.126ZM195.797 302.006C196.254 302.006 196.684 301.899 197.085 301.684C197.486 301.469 197.808 301.147 198.051 300.718C198.303 300.289 198.429 299.766 198.429 299.15C198.429 298.534 198.308 298.011 198.065 297.582C197.822 297.153 197.505 296.835 197.113 296.63C196.721 296.415 196.296 296.308 195.839 296.308C195.372 296.308 194.943 296.415 194.551 296.63C194.168 296.835 193.86 297.153 193.627 297.582C193.394 298.011 193.277 298.534 193.277 299.15C193.277 299.775 193.389 300.303 193.613 300.732C193.846 301.161 194.154 301.483 194.537 301.698C194.92 301.903 195.34 302.006 195.797 302.006ZM204.752 303.126C204.033 303.126 203.38 302.963 202.792 302.636C202.213 302.309 201.756 301.847 201.42 301.25C201.093 300.643 200.93 299.943 200.93 299.15C200.93 298.366 201.098 297.675 201.434 297.078C201.779 296.471 202.246 296.009 202.834 295.692C203.422 295.365 204.08 295.202 204.808 295.202C205.536 295.202 206.194 295.365 206.782 295.692C207.37 296.009 207.832 296.467 208.168 297.064C208.513 297.661 208.686 298.357 208.686 299.15C208.686 299.943 208.509 300.643 208.154 301.25C207.809 301.847 207.337 302.309 206.74 302.636C206.143 302.963 205.48 303.126 204.752 303.126ZM204.752 302.006C205.209 302.006 205.639 301.899 206.04 301.684C206.441 301.469 206.763 301.147 207.006 300.718C207.258 300.289 207.384 299.766 207.384 299.15C207.384 298.534 207.263 298.011 207.02 297.582C206.777 297.153 206.46 296.835 206.068 296.63C205.676 296.415 205.251 296.308 204.794 296.308C204.327 296.308 203.898 296.415 203.506 296.63C203.123 296.835 202.815 297.153 202.582 297.582C202.349 298.011 202.232 298.534 202.232 299.15C202.232 299.775 202.344 300.303 202.568 300.732C202.801 301.161 203.109 301.483 203.492 301.698C203.875 301.903 204.295 302.006 204.752 302.006ZM211.635 296.574C211.859 296.135 212.177 295.795 212.587 295.552C213.007 295.309 213.516 295.188 214.113 295.188V296.504H213.777C212.349 296.504 211.635 297.279 211.635 298.828V303H210.361V295.328H211.635V296.574ZM145.736 312.082C145.493 312.082 145.288 311.998 145.12 311.83C144.952 311.662 144.868 311.457 144.868 311.214C144.868 310.971 144.952 310.766 145.12 310.598C145.288 310.43 145.493 310.346 145.736 310.346C145.969 310.346 146.165 310.43 146.324 310.598C146.492 310.766 146.576 310.971 146.576 311.214C146.576 311.457 146.492 311.662 146.324 311.83C146.165 311.998 145.969 312.082 145.736 312.082ZM146.352 313.328V321H145.078V313.328H146.352ZM152.261 313.188C153.195 313.188 153.951 313.473 154.529 314.042C155.108 314.602 155.397 315.414 155.397 316.478V321H154.137V316.66C154.137 315.895 153.946 315.311 153.563 314.91C153.181 314.499 152.658 314.294 151.995 314.294C151.323 314.294 150.787 314.504 150.385 314.924C149.993 315.344 149.797 315.955 149.797 316.758V321H148.523V313.328H149.797V314.42C150.049 314.028 150.39 313.725 150.819 313.51C151.258 313.295 151.739 313.188 152.261 313.188ZM159.032 314.378V318.9C159.032 319.273 159.112 319.539 159.27 319.698C159.429 319.847 159.704 319.922 160.096 319.922H161.034V321H159.886C159.177 321 158.645 320.837 158.29 320.51C157.936 320.183 157.758 319.647 157.758 318.9V314.378H156.764V313.328H157.758V311.396H159.032V313.328H161.034V314.378H159.032ZM169.578 316.87C169.578 317.113 169.564 317.369 169.536 317.64H163.404C163.451 318.396 163.707 318.989 164.174 319.418C164.65 319.838 165.224 320.048 165.896 320.048C166.447 320.048 166.904 319.922 167.268 319.67C167.641 319.409 167.903 319.063 168.052 318.634H169.424C169.219 319.371 168.808 319.973 168.192 320.44C167.576 320.897 166.811 321.126 165.896 321.126C165.168 321.126 164.515 320.963 163.936 320.636C163.367 320.309 162.919 319.847 162.592 319.25C162.265 318.643 162.102 317.943 162.102 317.15C162.102 316.357 162.261 315.661 162.578 315.064C162.895 314.467 163.339 314.009 163.908 313.692C164.487 313.365 165.149 313.202 165.896 313.202C166.624 313.202 167.268 313.361 167.828 313.678C168.388 313.995 168.817 314.434 169.116 314.994C169.424 315.545 169.578 316.17 169.578 316.87ZM168.262 316.604C168.262 316.119 168.155 315.703 167.94 315.358C167.725 315.003 167.431 314.737 167.058 314.56C166.694 314.373 166.288 314.28 165.84 314.28C165.196 314.28 164.645 314.485 164.188 314.896C163.74 315.307 163.483 315.876 163.418 316.604H168.262ZM172.534 310.64V321H171.26V310.64H172.534ZM175.979 310.64V321H174.705V310.64H175.979ZM178.808 312.082C178.566 312.082 178.36 311.998 178.192 311.83C178.024 311.662 177.94 311.457 177.94 311.214C177.94 310.971 178.024 310.766 178.192 310.598C178.36 310.43 178.566 310.346 178.808 310.346C179.042 310.346 179.238 310.43 179.396 310.598C179.564 310.766 179.648 310.971 179.648 311.214C179.648 311.457 179.564 311.662 179.396 311.83C179.238 311.998 179.042 312.082 178.808 312.082ZM179.424 313.328V321H178.15V313.328H179.424ZM184.76 313.202C185.422 313.202 186.001 313.347 186.496 313.636C187 313.925 187.373 314.289 187.616 314.728V313.328H188.904V321.168C188.904 321.868 188.754 322.489 188.456 323.03C188.157 323.581 187.728 324.01 187.168 324.318C186.617 324.626 185.973 324.78 185.236 324.78C184.228 324.78 183.388 324.542 182.716 324.066C182.044 323.59 181.647 322.941 181.526 322.12H182.786C182.926 322.587 183.215 322.96 183.654 323.24C184.092 323.529 184.62 323.674 185.236 323.674C185.936 323.674 186.505 323.455 186.944 323.016C187.392 322.577 187.616 321.961 187.616 321.168V319.558C187.364 320.006 186.99 320.379 186.496 320.678C186.001 320.977 185.422 321.126 184.76 321.126C184.078 321.126 183.458 320.958 182.898 320.622C182.347 320.286 181.913 319.815 181.596 319.208C181.278 318.601 181.12 317.911 181.12 317.136C181.12 316.352 181.278 315.666 181.596 315.078C181.913 314.481 182.347 314.019 182.898 313.692C183.458 313.365 184.078 313.202 184.76 313.202ZM187.616 317.15C187.616 316.571 187.499 316.067 187.266 315.638C187.032 315.209 186.715 314.882 186.314 314.658C185.922 314.425 185.488 314.308 185.012 314.308C184.536 314.308 184.102 314.42 183.71 314.644C183.318 314.868 183.005 315.195 182.772 315.624C182.538 316.053 182.422 316.557 182.422 317.136C182.422 317.724 182.538 318.237 182.772 318.676C183.005 319.105 183.318 319.437 183.71 319.67C184.102 319.894 184.536 320.006 185.012 320.006C185.488 320.006 185.922 319.894 186.314 319.67C186.715 319.437 187.032 319.105 187.266 318.676C187.499 318.237 187.616 317.729 187.616 317.15ZM198.057 316.87C198.057 317.113 198.043 317.369 198.015 317.64H191.883C191.929 318.396 192.186 318.989 192.653 319.418C193.129 319.838 193.703 320.048 194.375 320.048C194.925 320.048 195.383 319.922 195.747 319.67C196.12 319.409 196.381 319.063 196.531 318.634H197.903C197.697 319.371 197.287 319.973 196.671 320.44C196.055 320.897 195.289 321.126 194.375 321.126C193.647 321.126 192.993 320.963 192.415 320.636C191.845 320.309 191.397 319.847 191.071 319.25C190.744 318.643 190.581 317.943 190.581 317.15C190.581 316.357 190.739 315.661 191.057 315.064C191.374 314.467 191.817 314.009 192.387 313.692C192.965 313.365 193.628 313.202 194.375 313.202C195.103 313.202 195.747 313.361 196.307 313.678C196.867 313.995 197.296 314.434 197.595 314.994C197.903 315.545 198.057 316.17 198.057 316.87ZM196.741 316.604C196.741 316.119 196.633 315.703 196.419 315.358C196.204 315.003 195.91 314.737 195.537 314.56C195.173 314.373 194.767 314.28 194.319 314.28C193.675 314.28 193.124 314.485 192.667 314.896C192.219 315.307 191.962 315.876 191.897 316.604H196.741ZM203.476 313.188C204.409 313.188 205.165 313.473 205.744 314.042C206.323 314.602 206.612 315.414 206.612 316.478V321H205.352V316.66C205.352 315.895 205.161 315.311 204.778 314.91C204.395 314.499 203.873 314.294 203.21 314.294C202.538 314.294 202.001 314.504 201.6 314.924C201.208 315.344 201.012 315.955 201.012 316.758V321H199.738V313.328H201.012V314.42C201.264 314.028 201.605 313.725 202.034 313.51C202.473 313.295 202.953 313.188 203.476 313.188ZM208.217 317.15C208.217 316.357 208.376 315.666 208.693 315.078C209.011 314.481 209.449 314.019 210.009 313.692C210.579 313.365 211.227 313.202 211.955 313.202C212.898 313.202 213.673 313.431 214.279 313.888C214.895 314.345 215.301 314.98 215.497 315.792H214.125C213.995 315.325 213.738 314.957 213.355 314.686C212.982 314.415 212.515 314.28 211.955 314.28C211.227 314.28 210.639 314.532 210.191 315.036C209.743 315.531 209.519 316.235 209.519 317.15C209.519 318.074 209.743 318.788 210.191 319.292C210.639 319.796 211.227 320.048 211.955 320.048C212.515 320.048 212.982 319.917 213.355 319.656C213.729 319.395 213.985 319.021 214.125 318.536H215.497C215.292 319.32 214.881 319.95 214.265 320.426C213.649 320.893 212.879 321.126 211.955 321.126C211.227 321.126 210.579 320.963 210.009 320.636C209.449 320.309 209.011 319.847 208.693 319.25C208.376 318.653 208.217 317.953 208.217 317.15ZM224.197 316.87C224.197 317.113 224.183 317.369 224.155 317.64H218.023C218.07 318.396 218.326 318.989 218.793 319.418C219.269 319.838 219.843 320.048 220.515 320.048C221.066 320.048 221.523 319.922 221.887 319.67C222.26 319.409 222.522 319.063 222.671 318.634H224.043C223.838 319.371 223.427 319.973 222.811 320.44C222.195 320.897 221.43 321.126 220.515 321.126C219.787 321.126 219.134 320.963 218.555 320.636C217.986 320.309 217.538 319.847 217.211 319.25C216.884 318.643 216.721 317.943 216.721 317.15C216.721 316.357 216.88 315.661 217.197 315.064C217.514 314.467 217.958 314.009 218.527 313.692C219.106 313.365 219.768 313.202 220.515 313.202C221.243 313.202 221.887 313.361 222.447 313.678C223.007 313.995 223.436 314.434 223.735 314.994C224.043 315.545 224.197 316.17 224.197 316.87ZM222.881 316.604C222.881 316.119 222.774 315.703 222.559 315.358C222.344 315.003 222.05 314.737 221.677 314.56C221.313 314.373 220.907 314.28 220.459 314.28C219.815 314.28 219.264 314.485 218.807 314.896C218.359 315.307 218.102 315.876 218.037 316.604H222.881Z" fill="white"/>
<path d="M244.992 91.096C244.992 89.2613 245.291 87.832 245.888 86.808C246.485 85.7733 247.531 85.256 249.024 85.256C250.507 85.256 251.547 85.7733 252.144 86.808C252.741 87.832 253.04 89.2613 253.04 91.096C253.04 92.9627 252.741 94.4133 252.144 95.448C251.547 96.4827 250.507 97 249.024 97C247.531 97 246.485 96.4827 245.888 95.448C245.291 94.4133 244.992 92.9627 244.992 91.096ZM251.6 91.096C251.6 90.168 251.536 89.384 251.408 88.744C251.291 88.0933 251.04 87.5707 250.656 87.176C250.283 86.7813 249.739 86.584 249.024 86.584C248.299 86.584 247.744 86.7813 247.36 87.176C246.987 87.5707 246.736 88.0933 246.608 88.744C246.491 89.384 246.432 90.168 246.432 91.096C246.432 92.056 246.491 92.8613 246.608 93.512C246.736 94.1627 246.987 94.6853 247.36 95.08C247.744 95.4747 248.299 95.672 249.024 95.672C249.739 95.672 250.283 95.4747 250.656 95.08C251.04 94.6853 251.291 94.1627 251.408 93.512C251.536 92.8613 251.6 92.056 251.6 91.096Z" fill="white"/>
<path d="M329.608 86.76V85.432H332.616V97H331.144V86.76H329.608Z" fill="white"/>
<path d="M412.816 95.832C414.171 94.744 415.232 93.8533 416 93.16C416.768 92.456 417.413 91.7253 417.936 90.968C418.469 90.2 418.736 89.448 418.736 88.712C418.736 88.0187 418.565 87.4747 418.224 87.08C417.893 86.6747 417.355 86.472 416.608 86.472C415.883 86.472 415.317 86.7013 414.912 87.16C414.517 87.608 414.304 88.2107 414.272 88.968H412.864C412.907 87.7733 413.269 86.8507 413.952 86.2C414.635 85.5493 415.515 85.224 416.592 85.224C417.691 85.224 418.56 85.528 419.2 86.136C419.851 86.744 420.176 87.5813 420.176 88.648C420.176 89.5333 419.909 90.3973 419.376 91.24C418.853 92.072 418.256 92.808 417.584 93.448C416.912 94.0773 416.053 94.8133 415.008 95.656H420.512V96.872H412.816V95.832Z" fill="white"/>
<path d="M496.96 88.344C497.035 87.3627 497.413 86.5947 498.096 86.04C498.779 85.4853 499.664 85.208 500.752 85.208C501.477 85.208 502.101 85.3413 502.624 85.608C503.157 85.864 503.557 86.216 503.824 86.664C504.101 87.112 504.24 87.6187 504.24 88.184C504.24 88.8453 504.048 89.416 503.664 89.896C503.291 90.376 502.8 90.6853 502.192 90.824V90.904C502.885 91.0747 503.435 91.4107 503.84 91.912C504.245 92.4133 504.448 93.0693 504.448 93.88C504.448 94.488 504.309 95.0373 504.032 95.528C503.755 96.008 503.339 96.3867 502.784 96.664C502.229 96.9413 501.563 97.08 500.784 97.08C499.653 97.08 498.725 96.7867 498 96.2C497.275 95.6027 496.869 94.76 496.784 93.672H498.192C498.267 94.312 498.528 94.8347 498.976 95.24C499.424 95.6453 500.021 95.848 500.768 95.848C501.515 95.848 502.08 95.656 502.464 95.272C502.859 94.8773 503.056 94.3707 503.056 93.752C503.056 92.952 502.789 92.376 502.256 92.024C501.723 91.672 500.917 91.496 499.84 91.496H499.472V90.28H499.856C500.837 90.2693 501.579 90.1093 502.08 89.8C502.581 89.48 502.832 88.9893 502.832 88.328C502.832 87.7627 502.645 87.3093 502.272 86.968C501.909 86.6267 501.387 86.456 500.704 86.456C500.043 86.456 499.509 86.6267 499.104 86.968C498.699 87.3093 498.459 87.768 498.384 88.344H496.96Z" fill="white"/>
<path d="M578.64 94.424V93.32L584.256 85.544H586V93.16H587.6V94.424H586V97H584.56V94.424H578.64ZM584.624 87.064L580.32 93.16H584.624V87.064Z" fill="white"/>
<path d="M137 136H130V306.5H137" stroke="white" stroke-linejoin="round"/>
<circle cx="320" cy="130" r="6" fill="#009FFF"/>
<circle cx="297" cy="218" r="6" fill="#4A22FF"/>
<circle cx="361" cy="310" r="6" fill="#4A22FF"/>
<path d="M449.408 372.696V381H448.316V374.808L445.556 381H444.788L442.016 374.796V381H440.924V372.696H442.1L445.172 379.56L448.244 372.696H449.408ZM451.824 373.356C451.616 373.356 451.44 373.284 451.296 373.14C451.152 372.996 451.08 372.82 451.08 372.612C451.08 372.404 451.152 372.228 451.296 372.084C451.44 371.94 451.616 371.868 451.824 371.868C452.024 371.868 452.192 371.94 452.328 372.084C452.472 372.228 452.544 372.404 452.544 372.612C452.544 372.82 452.472 372.996 452.328 373.14C452.192 373.284 452.024 373.356 451.824 373.356ZM452.352 374.424V381H451.26V374.424H452.352ZM453.805 377.688C453.805 377.016 453.941 376.428 454.213 375.924C454.485 375.412 454.857 375.016 455.329 374.736C455.809 374.456 456.345 374.316 456.937 374.316C457.449 374.316 457.925 374.436 458.365 374.676C458.805 374.908 459.141 375.216 459.373 375.6V372.12H460.477V381H459.373V379.764C459.157 380.156 458.837 380.48 458.413 380.736C457.989 380.984 457.493 381.108 456.925 381.108C456.341 381.108 455.809 380.964 455.329 380.676C454.857 380.388 454.485 379.984 454.213 379.464C453.941 378.944 453.805 378.352 453.805 377.688ZM459.373 377.7C459.373 377.204 459.273 376.772 459.073 376.404C458.873 376.036 458.601 375.756 458.257 375.564C457.921 375.364 457.549 375.264 457.141 375.264C456.733 375.264 456.361 375.36 456.025 375.552C455.689 375.744 455.421 376.024 455.221 376.392C455.021 376.76 454.921 377.192 454.921 377.688C454.921 378.192 455.021 378.632 455.221 379.008C455.421 379.376 455.689 379.66 456.025 379.86C456.361 380.052 456.733 380.148 457.141 380.148C457.549 380.148 457.921 380.052 458.257 379.86C458.601 379.66 458.873 379.376 459.073 379.008C459.273 378.632 459.373 378.196 459.373 377.7ZM466.926 376.488C466.478 376.312 466.134 376.056 465.894 375.72C465.654 375.384 465.534 374.976 465.534 374.496C465.534 374.064 465.642 373.676 465.858 373.332C466.074 372.98 466.394 372.704 466.818 372.504C467.25 372.296 467.77 372.192 468.378 372.192C468.986 372.192 469.502 372.296 469.926 372.504C470.358 372.704 470.682 372.98 470.898 373.332C471.122 373.676 471.234 374.064 471.234 374.496C471.234 374.96 471.11 375.368 470.862 375.72C470.614 376.064 470.274 376.32 469.842 376.488C470.338 376.64 470.73 376.908 471.018 377.292C471.314 377.668 471.462 378.124 471.462 378.66C471.462 379.18 471.334 379.636 471.078 380.028C470.822 380.412 470.458 380.712 469.986 380.928C469.522 381.136 468.986 381.24 468.378 381.24C467.77 381.24 467.234 381.136 466.77 380.928C466.314 380.712 465.958 380.412 465.702 380.028C465.446 379.636 465.318 379.18 465.318 378.66C465.318 378.124 465.462 377.664 465.75 377.28C466.038 376.896 466.43 376.632 466.926 376.488ZM470.178 374.628C470.178 374.14 470.018 373.764 469.698 373.5C469.378 373.236 468.938 373.104 468.378 373.104C467.826 373.104 467.39 373.236 467.07 373.5C466.75 373.764 466.59 374.144 466.59 374.64C466.59 375.088 466.754 375.448 467.082 375.72C467.418 375.992 467.85 376.128 468.378 376.128C468.914 376.128 469.346 375.992 469.674 375.72C470.01 375.44 470.178 375.076 470.178 374.628ZM468.378 376.968C467.786 376.968 467.302 377.108 466.926 377.388C466.55 377.66 466.362 378.072 466.362 378.624C466.362 379.136 466.542 379.548 466.902 379.86C467.27 380.172 467.762 380.328 468.378 380.328C468.994 380.328 469.482 380.172 469.842 379.86C470.202 379.548 470.382 379.136 470.382 378.624C470.382 378.088 470.198 377.68 469.83 377.4C469.462 377.112 468.978 376.968 468.378 376.968ZM472.912 376.572C472.912 375.196 473.136 374.124 473.584 373.356C474.032 372.58 474.816 372.192 475.936 372.192C477.048 372.192 477.828 372.58 478.276 373.356C478.724 374.124 478.948 375.196 478.948 376.572C478.948 377.972 478.724 379.06 478.276 379.836C477.828 380.612 477.048 381 475.936 381C474.816 381 474.032 380.612 473.584 379.836C473.136 379.06 472.912 377.972 472.912 376.572ZM477.868 376.572C477.868 375.876 477.82 375.288 477.724 374.808C477.636 374.32 477.448 373.928 477.16 373.632C476.88 373.336 476.472 373.188 475.936 373.188C475.392 373.188 474.976 373.336 474.688 373.632C474.408 373.928 474.22 374.32 474.124 374.808C474.036 375.288 473.992 375.876 473.992 376.572C473.992 377.292 474.036 377.896 474.124 378.384C474.22 378.872 474.408 379.264 474.688 379.56C474.976 379.856 475.392 380.004 475.936 380.004C476.472 380.004 476.88 379.856 477.16 379.56C477.448 379.264 477.636 378.872 477.724 378.384C477.82 377.896 477.868 377.292 477.868 376.572ZM480.207 374.28C480.207 373.736 480.371 373.304 480.699 372.984C481.027 372.656 481.447 372.492 481.959 372.492C482.471 372.492 482.891 372.656 483.219 372.984C483.547 373.304 483.711 373.736 483.711 374.28C483.711 374.832 483.547 375.272 483.219 375.6C482.891 375.92 482.471 376.08 481.959 376.08C481.447 376.08 481.027 375.92 480.699 375.6C480.371 375.272 480.207 374.832 480.207 374.28ZM487.215 372.624L482.355 381H481.275L486.135 372.624H487.215ZM481.959 373.164C481.687 373.164 481.471 373.26 481.311 373.452C481.159 373.636 481.083 373.912 481.083 374.28C481.083 374.648 481.159 374.928 481.311 375.12C481.471 375.312 481.687 375.408 481.959 375.408C482.231 375.408 482.447 375.312 482.607 375.12C482.767 374.92 482.847 374.64 482.847 374.28C482.847 373.912 482.767 373.636 482.607 373.452C482.447 373.26 482.231 373.164 481.959 373.164ZM484.803 379.344C484.803 378.792 484.967 378.356 485.295 378.036C485.623 377.708 486.043 377.544 486.555 377.544C487.067 377.544 487.483 377.708 487.803 378.036C488.131 378.356 488.295 378.792 488.295 379.344C488.295 379.888 488.131 380.324 487.803 380.652C487.483 380.98 487.067 381.144 486.555 381.144C486.043 381.144 485.623 380.984 485.295 380.664C484.967 380.336 484.803 379.896 484.803 379.344ZM486.543 378.228C486.271 378.228 486.055 378.324 485.895 378.516C485.735 378.7 485.655 378.976 485.655 379.344C485.655 379.704 485.735 379.98 485.895 380.172C486.055 380.356 486.271 380.448 486.543 380.448C486.815 380.448 487.031 380.356 487.191 380.172C487.351 379.98 487.431 379.704 487.431 379.344C487.431 378.976 487.351 378.7 487.191 378.516C487.031 378.324 486.815 378.228 486.543 378.228Z" fill="#4A22FF"/>
<circle cx="425.5" cy="377.5" r="7.5" fill="#4A22FF"/>
<circle cx="361" cy="130" r="6" fill="#4A22FF"/>
<circle cx="6" cy="6" r="6" transform="matrix(-1 0 0 1 551 212)" fill="#25E7E9"/>
<circle cx="6" cy="6" r="6" transform="matrix(-1 0 0 1 444 304)" fill="#25E7E9"/>
<path d="M545.072 372.636V373.524H542.792V381H541.7V373.524H539.408V372.636H545.072ZM549.284 381.108C548.668 381.108 548.108 380.968 547.604 380.688C547.108 380.408 546.716 380.012 546.428 379.5C546.148 378.98 546.008 378.38 546.008 377.7C546.008 377.028 546.152 376.436 546.44 375.924C546.736 375.404 547.136 375.008 547.64 374.736C548.144 374.456 548.708 374.316 549.332 374.316C549.956 374.316 550.52 374.456 551.024 374.736C551.528 375.008 551.924 375.4 552.212 375.912C552.508 376.424 552.656 377.02 552.656 377.7C552.656 378.38 552.504 378.98 552.2 379.5C551.904 380.012 551.5 380.408 550.988 380.688C550.476 380.968 549.908 381.108 549.284 381.108ZM549.284 380.148C549.676 380.148 550.044 380.056 550.388 379.872C550.732 379.688 551.008 379.412 551.216 379.044C551.432 378.676 551.54 378.228 551.54 377.7C551.54 377.172 551.436 376.724 551.228 376.356C551.02 375.988 550.748 375.716 550.412 375.54C550.076 375.356 549.712 375.264 549.32 375.264C548.92 375.264 548.552 375.356 548.216 375.54C547.888 375.716 547.624 375.988 547.424 376.356C547.224 376.724 547.124 377.172 547.124 377.7C547.124 378.236 547.22 378.688 547.412 379.056C547.612 379.424 547.876 379.7 548.204 379.884C548.532 380.06 548.892 380.148 549.284 380.148ZM555.184 375.636C555.4 375.26 555.72 374.948 556.144 374.7C556.576 374.444 557.076 374.316 557.644 374.316C558.228 374.316 558.756 374.456 559.228 374.736C559.708 375.016 560.084 375.412 560.356 375.924C560.628 376.428 560.764 377.016 560.764 377.688C560.764 378.352 560.628 378.944 560.356 379.464C560.084 379.984 559.708 380.388 559.228 380.676C558.756 380.964 558.228 381.108 557.644 381.108C557.084 381.108 556.588 380.984 556.156 380.736C555.732 380.48 555.408 380.164 555.184 379.788V384.12H554.092V374.424H555.184V375.636ZM559.648 377.688C559.648 377.192 559.548 376.76 559.348 376.392C559.148 376.024 558.876 375.744 558.532 375.552C558.196 375.36 557.824 375.264 557.416 375.264C557.016 375.264 556.644 375.364 556.3 375.564C555.964 375.756 555.692 376.04 555.484 376.416C555.284 376.784 555.184 377.212 555.184 377.7C555.184 378.196 555.284 378.632 555.484 379.008C555.692 379.376 555.964 379.66 556.3 379.86C556.644 380.052 557.016 380.148 557.416 380.148C557.824 380.148 558.196 380.052 558.532 379.86C558.876 379.66 559.148 379.376 559.348 379.008C559.548 378.632 559.648 378.192 559.648 377.688ZM564.933 373.32V372.324H567.189V381H566.085V373.32H564.933ZM569.064 376.572C569.064 375.196 569.288 374.124 569.736 373.356C570.184 372.58 570.968 372.192 572.088 372.192C573.2 372.192 573.98 372.58 574.428 373.356C574.876 374.124 575.1 375.196 575.1 376.572C575.1 377.972 574.876 379.06 574.428 379.836C573.98 380.612 573.2 381 572.088 381C570.968 381 570.184 380.612 569.736 379.836C569.288 379.06 569.064 377.972 569.064 376.572ZM574.02 376.572C574.02 375.876 573.972 375.288 573.876 374.808C573.788 374.32 573.6 373.928 573.312 373.632C573.032 373.336 572.624 373.188 572.088 373.188C571.544 373.188 571.128 373.336 570.84 373.632C570.56 373.928 570.372 374.32 570.276 374.808C570.188 375.288 570.144 375.876 570.144 376.572C570.144 377.292 570.188 377.896 570.276 378.384C570.372 378.872 570.56 379.264 570.84 379.56C571.128 379.856 571.544 380.004 572.088 380.004C572.624 380.004 573.032 379.856 573.312 379.56C573.6 379.264 573.788 378.872 573.876 378.384C573.972 377.896 574.02 377.292 574.02 376.572ZM576.359 374.28C576.359 373.736 576.523 373.304 576.851 372.984C577.179 372.656 577.599 372.492 578.111 372.492C578.623 372.492 579.043 372.656 579.371 372.984C579.699 373.304 579.863 373.736 579.863 374.28C579.863 374.832 579.699 375.272 579.371 375.6C579.043 375.92 578.623 376.08 578.111 376.08C577.599 376.08 577.179 375.92 576.851 375.6C576.523 375.272 576.359 374.832 576.359 374.28ZM583.367 372.624L578.507 381H577.427L582.287 372.624H583.367ZM578.111 373.164C577.839 373.164 577.623 373.26 577.463 373.452C577.311 373.636 577.235 373.912 577.235 374.28C577.235 374.648 577.311 374.928 577.463 375.12C577.623 375.312 577.839 375.408 578.111 375.408C578.383 375.408 578.599 375.312 578.759 375.12C578.919 374.92 578.999 374.64 578.999 374.28C578.999 373.912 578.919 373.636 578.759 373.452C578.599 373.26 578.383 373.164 578.111 373.164ZM580.955 379.344C580.955 378.792 581.119 378.356 581.447 378.036C581.775 377.708 582.195 377.544 582.707 377.544C583.219 377.544 583.635 377.708 583.955 378.036C584.283 378.356 584.447 378.792 584.447 379.344C584.447 379.888 584.283 380.324 583.955 380.652C583.635 380.98 583.219 381.144 582.707 381.144C582.195 381.144 581.775 380.984 581.447 380.664C581.119 380.336 580.955 379.896 580.955 379.344ZM582.695 378.228C582.423 378.228 582.207 378.324 582.047 378.516C581.887 378.7 581.807 378.976 581.807 379.344C581.807 379.704 581.887 379.98 582.047 380.172C582.207 380.356 582.423 380.448 582.695 380.448C582.967 380.448 583.183 380.356 583.343 380.172C583.503 379.98 583.583 379.704 583.583 379.344C583.583 378.976 583.503 378.7 583.343 378.516C583.183 378.324 582.967 378.228 582.695 378.228Z" fill="#25E7E9"/>
<circle cx="7.5" cy="7.5" r="7.5" transform="matrix(-1 0 0 1 532 370)" fill="#25E7E9"/>
<circle cx="6" cy="6" r="6" transform="matrix(-1 0 0 1 464 124)" fill="#25E7E9"/>
<circle cx="247" cy="219" r="6" fill="#009FFF"/>
<circle cx="287" cy="304" r="6" fill="#009FFF"/>
<path d="M327.112 376.692C327.416 376.74 327.692 376.864 327.94 377.064C328.196 377.264 328.396 377.512 328.54 377.808C328.692 378.104 328.768 378.42 328.768 378.756C328.768 379.18 328.66 379.564 328.444 379.908C328.228 380.244 327.912 380.512 327.496 380.712C327.088 380.904 326.604 381 326.044 381H322.924V372.636H325.924C326.492 372.636 326.976 372.732 327.376 372.924C327.776 373.108 328.076 373.36 328.276 373.68C328.476 374 328.576 374.36 328.576 374.76C328.576 375.256 328.44 375.668 328.168 375.996C327.904 376.316 327.552 376.548 327.112 376.692ZM324.016 376.248H325.852C326.364 376.248 326.76 376.128 327.04 375.888C327.32 375.648 327.46 375.316 327.46 374.892C327.46 374.468 327.32 374.136 327.04 373.896C326.76 373.656 326.356 373.536 325.828 373.536H324.016V376.248ZM325.948 380.1C326.492 380.1 326.916 379.972 327.22 379.716C327.524 379.46 327.676 379.104 327.676 378.648C327.676 378.184 327.516 377.82 327.196 377.556C326.876 377.284 326.448 377.148 325.912 377.148H324.016V380.1H325.948ZM333.151 381.108C332.535 381.108 331.975 380.968 331.471 380.688C330.975 380.408 330.583 380.012 330.295 379.5C330.015 378.98 329.875 378.38 329.875 377.7C329.875 377.028 330.019 376.436 330.307 375.924C330.603 375.404 331.003 375.008 331.507 374.736C332.011 374.456 332.575 374.316 333.199 374.316C333.823 374.316 334.387 374.456 334.891 374.736C335.395 375.008 335.791 375.4 336.079 375.912C336.375 376.424 336.523 377.02 336.523 377.7C336.523 378.38 336.371 378.98 336.067 379.5C335.771 380.012 335.367 380.408 334.855 380.688C334.343 380.968 333.775 381.108 333.151 381.108ZM333.151 380.148C333.543 380.148 333.911 380.056 334.255 379.872C334.599 379.688 334.875 379.412 335.083 379.044C335.299 378.676 335.407 378.228 335.407 377.7C335.407 377.172 335.303 376.724 335.095 376.356C334.887 375.988 334.615 375.716 334.279 375.54C333.943 375.356 333.579 375.264 333.187 375.264C332.787 375.264 332.419 375.356 332.083 375.54C331.755 375.716 331.491 375.988 331.291 376.356C331.091 376.724 330.991 377.172 330.991 377.7C330.991 378.236 331.087 378.688 331.279 379.056C331.479 379.424 331.743 379.7 332.071 379.884C332.399 380.06 332.759 380.148 333.151 380.148ZM339.291 375.324V379.2C339.291 379.52 339.359 379.748 339.495 379.884C339.631 380.012 339.867 380.076 340.203 380.076H341.007V381H340.023C339.415 381 338.959 380.86 338.655 380.58C338.351 380.3 338.199 379.84 338.199 379.2V375.324H337.347V374.424H338.199V372.768H339.291V374.424H341.007V375.324H339.291ZM343.662 375.324V379.2C343.662 379.52 343.73 379.748 343.866 379.884C344.002 380.012 344.238 380.076 344.574 380.076H345.378V381H344.394C343.786 381 343.33 380.86 343.026 380.58C342.722 380.3 342.57 379.84 342.57 379.2V375.324H341.718V374.424H342.57V372.768H343.662V374.424H345.378V375.324H343.662ZM349.569 381.108C348.953 381.108 348.393 380.968 347.889 380.688C347.393 380.408 347.001 380.012 346.713 379.5C346.433 378.98 346.293 378.38 346.293 377.7C346.293 377.028 346.437 376.436 346.725 375.924C347.021 375.404 347.421 375.008 347.925 374.736C348.429 374.456 348.993 374.316 349.617 374.316C350.241 374.316 350.805 374.456 351.309 374.736C351.813 375.008 352.209 375.4 352.497 375.912C352.793 376.424 352.941 377.02 352.941 377.7C352.941 378.38 352.789 378.98 352.485 379.5C352.189 380.012 351.785 380.408 351.273 380.688C350.761 380.968 350.193 381.108 349.569 381.108ZM349.569 380.148C349.961 380.148 350.329 380.056 350.673 379.872C351.017 379.688 351.293 379.412 351.501 379.044C351.717 378.676 351.825 378.228 351.825 377.7C351.825 377.172 351.721 376.724 351.513 376.356C351.305 375.988 351.033 375.716 350.697 375.54C350.361 375.356 349.997 375.264 349.605 375.264C349.205 375.264 348.837 375.356 348.501 375.54C348.173 375.716 347.909 375.988 347.709 376.356C347.509 376.724 347.409 377.172 347.409 377.7C347.409 378.236 347.505 378.688 347.697 379.056C347.897 379.424 348.161 379.7 348.489 379.884C348.817 380.06 349.177 380.148 349.569 380.148ZM362.285 374.304C362.797 374.304 363.253 374.412 363.653 374.628C364.053 374.836 364.369 375.152 364.601 375.576C364.833 376 364.949 376.516 364.949 377.124V381H363.869V377.28C363.869 376.624 363.705 376.124 363.377 375.78C363.057 375.428 362.621 375.252 362.069 375.252C361.501 375.252 361.049 375.436 360.713 375.804C360.377 376.164 360.209 376.688 360.209 377.376V381H359.129V377.28C359.129 376.624 358.965 376.124 358.637 375.78C358.317 375.428 357.881 375.252 357.329 375.252C356.761 375.252 356.309 375.436 355.973 375.804C355.637 376.164 355.469 376.688 355.469 377.376V381H354.377V374.424H355.469V375.372C355.685 375.028 355.973 374.764 356.333 374.58C356.701 374.396 357.105 374.304 357.545 374.304C358.097 374.304 358.585 374.428 359.009 374.676C359.433 374.924 359.749 375.288 359.957 375.768C360.141 375.304 360.445 374.944 360.869 374.688C361.293 374.432 361.765 374.304 362.285 374.304ZM369.472 373.32V372.324H371.728V381H370.624V373.32H369.472ZM373.603 376.572C373.603 375.196 373.827 374.124 374.275 373.356C374.723 372.58 375.507 372.192 376.627 372.192C377.739 372.192 378.519 372.58 378.967 373.356C379.415 374.124 379.639 375.196 379.639 376.572C379.639 377.972 379.415 379.06 378.967 379.836C378.519 380.612 377.739 381 376.627 381C375.507 381 374.723 380.612 374.275 379.836C373.827 379.06 373.603 377.972 373.603 376.572ZM378.559 376.572C378.559 375.876 378.511 375.288 378.415 374.808C378.327 374.32 378.139 373.928 377.851 373.632C377.571 373.336 377.163 373.188 376.627 373.188C376.083 373.188 375.667 373.336 375.379 373.632C375.099 373.928 374.911 374.32 374.815 374.808C374.727 375.288 374.683 375.876 374.683 376.572C374.683 377.292 374.727 377.896 374.815 378.384C374.911 378.872 375.099 379.264 375.379 379.56C375.667 379.856 376.083 380.004 376.627 380.004C377.163 380.004 377.571 379.856 377.851 379.56C378.139 379.264 378.327 378.872 378.415 378.384C378.511 377.896 378.559 377.292 378.559 376.572ZM380.899 374.28C380.899 373.736 381.063 373.304 381.391 372.984C381.719 372.656 382.139 372.492 382.651 372.492C383.163 372.492 383.583 372.656 383.911 372.984C384.239 373.304 384.403 373.736 384.403 374.28C384.403 374.832 384.239 375.272 383.911 375.6C383.583 375.92 383.163 376.08 382.651 376.08C382.139 376.08 381.719 375.92 381.391 375.6C381.063 375.272 380.899 374.832 380.899 374.28ZM387.907 372.624L383.047 381H381.967L386.827 372.624H387.907ZM382.651 373.164C382.379 373.164 382.163 373.26 382.003 373.452C381.851 373.636 381.775 373.912 381.775 374.28C381.775 374.648 381.851 374.928 382.003 375.12C382.163 375.312 382.379 375.408 382.651 375.408C382.923 375.408 383.139 375.312 383.299 375.12C383.459 374.92 383.539 374.64 383.539 374.28C383.539 373.912 383.459 373.636 383.299 373.452C383.139 373.26 382.923 373.164 382.651 373.164ZM385.495 379.344C385.495 378.792 385.659 378.356 385.987 378.036C386.315 377.708 386.735 377.544 387.247 377.544C387.759 377.544 388.175 377.708 388.495 378.036C388.823 378.356 388.987 378.792 388.987 379.344C388.987 379.888 388.823 380.324 388.495 380.652C388.175 380.98 387.759 381.144 387.247 381.144C386.735 381.144 386.315 380.984 385.987 380.664C385.659 380.336 385.495 379.896 385.495 379.344ZM387.235 378.228C386.963 378.228 386.747 378.324 386.587 378.516C386.427 378.7 386.347 378.976 386.347 379.344C386.347 379.704 386.427 379.98 386.587 380.172C386.747 380.356 386.963 380.448 387.235 380.448C387.507 380.448 387.723 380.356 387.883 380.172C388.043 379.98 388.123 379.704 388.123 379.344C388.123 378.976 388.043 378.7 387.883 378.516C387.723 378.324 387.507 378.228 387.235 378.228Z" fill="#009FFF"/>
<circle cx="307.5" cy="377.5" r="7.5" fill="#009FFF"/>
<path d="M307 108L321 128.5L247 219L287 303.5L310 346" stroke="#009FFF" stroke-width="1.5" stroke-linejoin="round" stroke-dasharray="3 3"/>
<path d="M354 108.5L361.5 130.5L297 218L361 310L367.5 346" stroke="#4A22FF" stroke-width="1.5" stroke-linejoin="round" stroke-dasharray="3 3"/>
<path d="M472.5 108.5L458 130L545 218L437.5 310.5L424.5 346" stroke="#25E7E9" stroke-width="1.5" stroke-linejoin="round" stroke-dasharray="3 3"/>
<path d="M404 370V385" stroke="#CCCCCC" stroke-linecap="round" stroke-linejoin="round"/>
<path d="M503 370V385" stroke="#CCCCCC" stroke-linecap="round" stroke-linejoin="round"/>
<defs>
<filter id="filter0_d_386_135" x="0.90625" y="0.515625" width="674.781" height="481.625" filterUnits="userSpaceOnUse" color-interpolation-filters="sRGB">
<feFlood flood-opacity="0" result="BackgroundImageFix"/>
<feColorMatrix in="SourceAlpha" type="matrix" values="0 0 0 0 0 0 0 0 0 0 0 0 0 0 0 0 0 0 127 0" result="hardAlpha"/>
<feOffset dx="9" dy="9"/>
<feGaussianBlur stdDeviation="15.5"/>
<feComposite in2="hardAlpha" operator="out"/>
<feColorMatrix type="matrix" values="0 0 0 0 0 0 0 0 0 0 0 0 0 0 0 0 0 0 0.42 0"/>
<feBlend mode="normal" in2="BackgroundImageFix" result="effect1_dropShadow_386_135"/>
<feBlend mode="normal" in="SourceGraphic" in2="effect1_dropShadow_386_135" result="shape"/>
</filter>
<linearGradient id="paint0_linear_386_135" x1="299.839" y1="20.8661" x2="530.183" y2="237.679" gradientUnits="userSpaceOnUse">
<stop stop-color="#0046FF"/>
<stop offset="1" stop-color="#009FFF"/>
</linearGradient>
</defs>
</svg>
