<svg width="21" height="20" viewBox="0 0 21 20" fill="none" xmlns="http://www.w3.org/2000/svg">
<g clip-path="url(#clip0_504_77)">
<path fill-rule="evenodd" clip-rule="evenodd" d="M4.7736 19.5406V6.66695H0.281201V19.5405H4.7736V19.5406ZM2.52787 4.90992C4.09397 4.90992 5.06953 3.92055 5.06953 2.6852C5.03992 1.42238 4.09397 0.460938 2.55724 0.460938C1.02026 0.460977 0.015625 1.42242 0.015625 2.68523C0.015625 3.92059 0.990648 4.90996 2.4983 4.90996L2.52787 4.90992ZM7.25997 19.5406C7.25997 19.5406 7.31891 7.87484 7.25997 6.66699H11.7531V8.53395H11.7232C12.314 7.65543 13.3784 6.36469 15.8018 6.36469C18.7585 6.36469 20.9746 8.20465 20.9746 12.1589V19.5406H16.4822V12.6536C16.4822 10.9231 15.8322 9.74223 14.206 9.74223C12.9651 9.74223 12.2256 10.5383 11.9008 11.3079C11.782 11.5818 11.7531 11.9665 11.7531 12.3513V19.5406H7.25997Z" fill="white"/>
</g>
<defs>
<clipPath id="clip0_504_77">
<rect width="21" height="20" fill="white"/>
</clipPath>
</defs>
</svg>
