<svg width="17" height="17" viewBox="0 0 17 17" fill="none" xmlns="http://www.w3.org/2000/svg">
<path d="M12.8843 13.0658C12.3202 12.6158 10.563 11.7499 10.1294 11.6501C9.69677 11.5495 9.17298 11.9679 9.02874 12.4875C8.88368 13.0074 8.61314 12.9582 8.61314 12.9582C8.61314 12.9582 7.57086 12.5752 5.66435 10.676C3.75753 8.77621 3.37211 7.73533 3.37211 7.73533C3.37211 7.73533 3.32122 7.46479 3.84083 7.31775C4.35932 7.17214 4.77604 6.64667 4.6743 6.21396C4.57314 5.78129 3.70023 4.02658 3.24854 3.46502C2.79577 2.90349 1.92118 3.19307 1.7289 3.3331C1.5355 3.47261 -0.497087 4.76479 0.114211 7.1442C0.726306 9.52392 2.03944 11.4277 3.48252 12.866C4.92589 14.3037 6.83434 15.6096 9.21601 16.2128C11.5974 16.8162 12.8823 14.7789 13.0212 14.5855C13.1604 14.3926 13.4466 13.5167 12.8843 13.0658Z" fill="white"/>
<path d="M7.87912 6.03109C8.19497 6.18595 8.69725 6.47327 9.27945 7.05519C9.86169 7.63742 10.1487 8.13967 10.3035 8.45523C10.4662 8.78702 10.5864 8.85383 10.6837 8.83118C10.8441 8.79398 10.8975 8.75094 10.9123 8.4164C10.9246 8.13131 10.7882 7.28103 9.9209 6.41374C9.05358 5.54642 8.20304 5.41032 7.91853 5.4226C7.58367 5.43686 7.54117 5.49052 7.50404 5.65151C7.48136 5.74824 7.54733 5.8687 7.87912 6.03109Z" fill="white"/>
<path d="M8.38625 2.67969C7.97764 2.6794 7.87446 2.93236 7.86215 3.03046C7.83701 3.22865 7.98319 3.38934 8.28672 3.47628C8.63385 3.5755 10.009 4.01656 11.1612 5.16868C12.3136 6.32081 12.7549 7.69625 12.8539 8.04339C12.9405 8.34666 13.1009 8.49259 13.2994 8.4677C13.398 8.45593 13.6507 8.35253 13.6501 7.94391C13.6504 7.62051 13.4528 5.92699 11.9278 4.40144C10.4032 2.87672 8.7088 2.67937 8.38625 2.67969Z" fill="white"/>
<path d="M13.9506 2.38329C11.7662 0.198968 9.46171 0.0108666 9.06563 0.000498076C8.58208 -0.0117847 8.39034 0.205126 8.39063 0.427587C8.39034 0.617092 8.5846 0.811893 8.87361 0.88626C9.3074 0.997475 11.0269 1.26833 13.046 3.28749C15.0657 5.30665 15.3361 7.02645 15.4478 7.46053C15.5219 7.74897 15.717 7.94351 15.9062 7.94351C16.129 7.94351 16.3459 7.75203 16.333 7.26879C16.323 6.87246 16.1349 4.56793 13.9506 2.38329Z" fill="white"/>
</svg>
