<svg width="85" height="85" viewBox="0 0 85 85" fill="none" xmlns="http://www.w3.org/2000/svg">
<g filter="url(#filter0_bd_914_10)">
<circle cx="42.5" cy="36.5" r="26.5" fill="#777777" fill-opacity="0.25" shape-rendering="crispEdges"/>
<circle cx="42.5" cy="36.5" r="26.25" stroke="#343434" stroke-width="0.5" shape-rendering="crispEdges"/>
</g>
<mask id="mask0_914_10" style="mask-type:luminance" maskUnits="userSpaceOnUse" x="28" y="23" width="29" height="25">
<path d="M28.2812 48L28.2813 23L56.9285 23V48H28.2812Z" fill="white"/>
</mask>
<g mask="url(#mask0_914_10)">
<path d="M41.9778 23.2609L28.597 36.6413C28.5135 36.7252 28.4492 36.8216 28.4036 36.9307C28.3584 37.0402 28.3359 37.1539 28.3359 37.272V47.0846C28.3359 47.1726 28.3487 47.259 28.3743 47.3436C28.3998 47.4279 28.4371 47.5066 28.4862 47.5802C28.5352 47.6534 28.5936 47.718 28.662 47.774C28.73 47.8299 28.805 47.8748 28.8865 47.9087C28.968 47.9425 29.0526 47.9636 29.1403 47.9722C29.2281 47.9808 29.3154 47.9767 29.4018 47.9594C29.4885 47.9422 29.5703 47.9128 29.6484 47.871C29.7261 47.8296 29.7962 47.7778 29.8584 47.7152L42.6084 34.9655L55.3585 47.7152C55.4206 47.7778 55.4908 47.8296 55.5685 47.871C55.6465 47.9128 55.7284 47.9422 55.8151 47.9594C55.9014 47.9767 55.9888 47.9808 56.0765 47.9722C56.1643 47.9636 56.2489 47.9425 56.3304 47.9087C56.4119 47.8748 56.4868 47.8299 56.5549 47.774C56.6233 47.718 56.6816 47.6534 56.7307 47.5802C56.7797 47.5066 56.817 47.4279 56.8426 47.3436C56.8681 47.259 56.8809 47.1726 56.8809 47.0846V37.272C56.8809 37.1539 56.8585 37.0402 56.8132 36.9307C56.7676 36.8216 56.7034 36.7252 56.6198 36.6413L43.2391 23.2609C43.1976 23.2195 43.1527 23.1825 43.104 23.1501C43.0553 23.1173 43.0039 23.09 42.9497 23.0675C42.8958 23.0451 42.8398 23.0282 42.7825 23.0168C42.7252 23.0054 42.6671 22.9995 42.6084 22.9995C42.5497 22.9995 42.4917 23.0054 42.4344 23.0168C42.377 23.0282 42.3211 23.0451 42.2672 23.0675C42.213 23.09 42.1615 23.1173 42.1128 23.1501C42.0641 23.1825 42.0192 23.2195 41.9778 23.2609ZM55.097 37.6415V44.9311L43.2391 33.0732C43.1976 33.0317 43.1527 32.9948 43.104 32.9623C43.0553 32.9299 43.0039 32.9022 42.9497 32.8798C42.8958 32.8573 42.8398 32.8404 42.7825 32.829C42.7248 32.8176 42.6671 32.8121 42.6084 32.8121C42.5497 32.8121 42.4917 32.8176 42.4344 32.829C42.377 32.8404 42.3211 32.8573 42.2672 32.8798C42.213 32.9022 42.1615 32.9299 42.1128 32.9623C42.0641 32.9948 42.0192 33.0317 41.9778 33.0732L30.1198 44.9311V37.6415L42.6084 25.1529L55.097 37.6415Z" fill="#0075FF"/>
</g>
<defs>
<filter id="filter0_bd_914_10" x="0.9" y="0.9" width="83.2" height="83.2" filterUnits="userSpaceOnUse" color-interpolation-filters="sRGB">
<feFlood flood-opacity="0" result="BackgroundImageFix"/>
<feGaussianBlur in="BackgroundImageFix" stdDeviation="4"/>
<feComposite in2="SourceAlpha" operator="in" result="effect1_backgroundBlur_914_10"/>
<feColorMatrix in="SourceAlpha" type="matrix" values="0 0 0 0 0 0 0 0 0 0 0 0 0 0 0 0 0 0 127 0" result="hardAlpha"/>
<feOffset dy="6"/>
<feGaussianBlur stdDeviation="7.55"/>
<feComposite in2="hardAlpha" operator="out"/>
<feColorMatrix type="matrix" values="0 0 0 0 0 0 0 0 0 0 0 0 0 0 0 0 0 0 0.25 0"/>
<feBlend mode="normal" in2="effect1_backgroundBlur_914_10" result="effect2_dropShadow_914_10"/>
<feBlend mode="normal" in="SourceGraphic" in2="effect2_dropShadow_914_10" result="shape"/>
</filter>
</defs>
</svg>
