<svg width="21" height="20" viewBox="0 0 21 20" fill="none" xmlns="http://www.w3.org/2000/svg">
<path fill-rule="evenodd" clip-rule="evenodd" d="M21 3.24363C20.2267 3.5954 19.3966 3.83186 18.5257 3.94009C19.4151 3.39304 20.0982 2.52833 20.4207 1.4954C19.5868 2.00246 18.6628 2.37069 17.682 2.56833C16.8976 1.70833 15.7759 1.17188 14.5382 1.17188C12.1565 1.17188 10.227 3.15069 10.227 5.59069C10.227 5.93775 10.2665 6.27422 10.3382 6.59775C6.75828 6.41304 3.57989 4.6554 1.45518 1.98128C1.08582 2.63305 0.872113 3.39305 0.872113 4.20246C0.872113 5.7354 1.86776 7.08598 3.024 7.8801C2.31742 7.85656 1.30571 7.65656 1.30571 7.3248V7.38364C1.30571 9.52246 2.55707 11.3072 4.52735 11.7154C4.16665 11.8142 3.67007 11.8695 3.276 11.8695C2.99806 11.8695 2.66947 11.8413 2.40511 11.7883C2.95483 13.5436 4.51747 14.8213 6.40253 14.8589C4.92758 16.0413 3.05489 16.7483 1.03642 16.7483C0.688056 16.7483 0.336 16.7272 0 16.6872C1.90853 17.9389 4.16911 18.6719 6.60264 18.6719C14.532 18.6719 18.8642 11.9413 18.8642 6.10363C18.8642 5.91186 18.8592 5.71893 18.8493 5.52951C19.6918 4.90716 20.4231 4.12951 21 3.24363Z" fill="white"/>
</svg>
